%TF.GenerationSoftware,KiCad,Pcbnew,(5.1.8)-1*%
%TF.CreationDate,2020-12-12T14:46:25+01:00*%
%TF.ProjectId,ltc5599-test-pcb,6c746335-3539-4392-9d74-6573742d7063,rev?*%
%TF.SameCoordinates,Original*%
%TF.FileFunction,Copper,L2,Bot*%
%TF.FilePolarity,Positive*%
%FSLAX46Y46*%
G04 Gerber Fmt 4.6, Leading zero omitted, Abs format (unit mm)*
G04 Created by KiCad (PCBNEW (5.1.8)-1) date 2020-12-12 14:46:25*
%MOMM*%
%LPD*%
G01*
G04 APERTURE LIST*
%TA.AperFunction,ComponentPad*%
%ADD10C,2.340000*%
%TD*%
%TA.AperFunction,ComponentPad*%
%ADD11O,1.700000X1.700000*%
%TD*%
%TA.AperFunction,ComponentPad*%
%ADD12R,1.700000X1.700000*%
%TD*%
%TA.AperFunction,SMDPad,CuDef*%
%ADD13R,5.080000X1.500000*%
%TD*%
%TA.AperFunction,ViaPad*%
%ADD14C,0.600000*%
%TD*%
%TA.AperFunction,Conductor*%
%ADD15C,0.500000*%
%TD*%
%TA.AperFunction,Conductor*%
%ADD16C,0.254000*%
%TD*%
%TA.AperFunction,Conductor*%
%ADD17C,0.100000*%
%TD*%
G04 APERTURE END LIST*
D10*
%TO.P,RV101,1*%
%TO.N,GND*%
X98665000Y-98980000D03*
%TO.P,RV101,2*%
%TO.N,Net-(J103-Pad3)*%
X101165000Y-101480000D03*
%TO.P,RV101,3*%
%TO.N,VCC*%
X98665000Y-103980000D03*
%TD*%
D11*
%TO.P,J103,3*%
%TO.N,Net-(J103-Pad3)*%
X101205000Y-91360000D03*
%TO.P,J103,2*%
%TO.N,VREF*%
X101205000Y-88820000D03*
D12*
%TO.P,J103,1*%
%TO.N,GND*%
X101205000Y-86280000D03*
%TD*%
%TO.P,J1,1*%
%TO.N,GND*%
X106285000Y-81200000D03*
D11*
%TO.P,J1,2*%
%TO.N,Net-(J1-Pad2)*%
X106285000Y-78660000D03*
%TD*%
%TO.P,J102,3*%
%TO.N,GND*%
X167245000Y-71040000D03*
%TO.P,J102,2*%
%TO.N,TTCK*%
X164705000Y-71040000D03*
D12*
%TO.P,J102,1*%
%TO.N,TEMP*%
X162165000Y-71040000D03*
%TD*%
D11*
%TO.P,J101,7*%
%TO.N,GND*%
X177405000Y-104060000D03*
%TO.P,J101,6*%
%TO.N,CSB*%
X177405000Y-101520000D03*
%TO.P,J101,5*%
%TO.N,SCLK*%
X177405000Y-98980000D03*
%TO.P,J101,4*%
%TO.N,SDI*%
X177405000Y-96440000D03*
%TO.P,J101,3*%
%TO.N,SDO*%
X177405000Y-93900000D03*
%TO.P,J101,2*%
%TO.N,EN*%
X177405000Y-91360000D03*
D12*
%TO.P,J101,1*%
%TO.N,VCC*%
X177405000Y-88820000D03*
%TD*%
%TO.P,J3,1*%
%TO.N,GND*%
X106285000Y-111680000D03*
D11*
%TO.P,J3,2*%
%TO.N,Net-(J3-Pad2)*%
X106285000Y-114220000D03*
%TD*%
%TO.P,JP8,3*%
%TO.N,Net-(JP4-Pad3)*%
X159625000Y-98980000D03*
%TO.P,JP8,2*%
%TO.N,QP*%
X159625000Y-101520000D03*
D12*
%TO.P,JP8,1*%
%TO.N,Net-(C25-Pad2)*%
X159625000Y-104060000D03*
%TD*%
D11*
%TO.P,JP7,3*%
%TO.N,Net-(JP3-Pad3)*%
X159625000Y-114220000D03*
%TO.P,JP7,2*%
%TO.N,QM*%
X159625000Y-111680000D03*
D12*
%TO.P,JP7,1*%
%TO.N,Net-(C24-Pad2)*%
X159625000Y-109140000D03*
%TD*%
D11*
%TO.P,JP6,3*%
%TO.N,Net-(JP2-Pad3)*%
X159625000Y-78660000D03*
%TO.P,JP6,2*%
%TO.N,IP*%
X159625000Y-81200000D03*
D12*
%TO.P,JP6,1*%
%TO.N,Net-(C22-Pad2)*%
X159625000Y-83740000D03*
%TD*%
D11*
%TO.P,JP5,3*%
%TO.N,Net-(JP1-Pad3)*%
X159625000Y-93900000D03*
%TO.P,JP5,2*%
%TO.N,IM*%
X159625000Y-91360000D03*
D12*
%TO.P,JP5,1*%
%TO.N,Net-(C21-Pad2)*%
X159625000Y-88820000D03*
%TD*%
D11*
%TO.P,JP4,3*%
%TO.N,Net-(JP4-Pad3)*%
X121525000Y-98980000D03*
%TO.P,JP4,2*%
%TO.N,Net-(C8-Pad1)*%
X121525000Y-101520000D03*
D12*
%TO.P,JP4,1*%
%TO.N,Net-(JP4-Pad1)*%
X121525000Y-104060000D03*
%TD*%
D11*
%TO.P,JP3,3*%
%TO.N,Net-(JP3-Pad3)*%
X121525000Y-114220000D03*
%TO.P,JP3,2*%
%TO.N,Net-(C7-Pad1)*%
X121525000Y-111680000D03*
D12*
%TO.P,JP3,1*%
%TO.N,Net-(JP3-Pad1)*%
X121525000Y-109140000D03*
%TD*%
D11*
%TO.P,JP2,3*%
%TO.N,Net-(JP2-Pad3)*%
X121525000Y-78660000D03*
%TO.P,JP2,2*%
%TO.N,Net-(C6-Pad1)*%
X121525000Y-81200000D03*
D12*
%TO.P,JP2,1*%
%TO.N,Net-(JP2-Pad1)*%
X121525000Y-83740000D03*
%TD*%
D11*
%TO.P,JP1,3*%
%TO.N,Net-(JP1-Pad3)*%
X121525000Y-93900000D03*
%TO.P,JP1,2*%
%TO.N,Net-(C5-Pad1)*%
X121525000Y-91360000D03*
D12*
%TO.P,JP1,1*%
%TO.N,Net-(JP1-Pad1)*%
X121525000Y-88820000D03*
%TD*%
D13*
%TO.P,J7,2*%
%TO.N,GND*%
X184125000Y-112190000D03*
X184125000Y-120690000D03*
%TD*%
%TO.P,J5,2*%
%TO.N,GND*%
X184125000Y-72190000D03*
X184125000Y-80690000D03*
%TD*%
%TO.P,J4,2*%
%TO.N,GND*%
X99595000Y-112190000D03*
X99595000Y-120690000D03*
%TD*%
%TO.P,J2,2*%
%TO.N,GND*%
X99595000Y-72190000D03*
X99595000Y-80690000D03*
%TD*%
D14*
%TO.N,GND*%
X140575000Y-80565000D03*
X153275000Y-80565000D03*
X127875000Y-80565000D03*
X127875000Y-91995000D03*
X140575000Y-91995000D03*
X153275000Y-91995000D03*
X140575000Y-100885000D03*
X153275000Y-100885000D03*
X127875000Y-100250000D03*
X127875000Y-112315000D03*
X140575000Y-112315000D03*
X153275000Y-112315000D03*
X165125000Y-97940000D03*
X174125000Y-94190000D03*
X174125000Y-92440000D03*
X174375000Y-90690000D03*
X166187500Y-98377500D03*
X167625000Y-99440000D03*
X166625000Y-99440000D03*
X169125000Y-99440000D03*
X170125000Y-99440000D03*
X167125000Y-93690000D03*
X169125000Y-93690000D03*
X167125000Y-89440000D03*
X167125000Y-87940000D03*
X167125000Y-86440000D03*
X167125000Y-84940000D03*
X167125000Y-83440000D03*
X169125000Y-89440000D03*
X169125000Y-87940000D03*
X169125000Y-86440000D03*
X169125000Y-84940000D03*
X169125000Y-83440000D03*
X167125000Y-81940000D03*
X170125000Y-81940000D03*
X171125000Y-80940000D03*
X172125000Y-79940000D03*
X173125000Y-78940000D03*
X174125000Y-77940000D03*
X175625000Y-77440000D03*
X177375000Y-77440000D03*
X178875000Y-77440000D03*
X180375000Y-77440000D03*
X180375000Y-75440000D03*
X178875000Y-75440000D03*
X177375000Y-75440000D03*
X175875000Y-75440000D03*
X174375000Y-75440000D03*
X168125000Y-80940000D03*
X169125000Y-79940000D03*
X170125000Y-78940000D03*
X171125000Y-77940000D03*
X172125000Y-76940000D03*
X173125000Y-75940000D03*
X183125000Y-96440000D03*
X183085000Y-98980000D03*
X167880000Y-74850000D03*
X129145000Y-86280000D03*
X139305000Y-86280000D03*
X141845000Y-86280000D03*
X152005000Y-86280000D03*
X146925000Y-79930000D03*
X134225000Y-79930000D03*
X134225000Y-92630000D03*
X146925000Y-92630000D03*
X134225000Y-100250000D03*
X146925000Y-100250000D03*
X152005000Y-106600000D03*
X129145000Y-106600000D03*
X139305000Y-106600000D03*
X141845000Y-106600000D03*
X134225000Y-112950000D03*
X146925000Y-112950000D03*
X134225000Y-106600000D03*
X146925000Y-106600000D03*
X125335000Y-106600000D03*
X125335000Y-86280000D03*
X162165000Y-95440000D03*
X127875000Y-77390000D03*
X140575000Y-77390000D03*
X153275000Y-77390000D03*
X127875000Y-115490000D03*
X140575000Y-115490000D03*
X153275000Y-115490000D03*
X167375000Y-103190000D03*
X169375000Y-103190000D03*
X169375000Y-104690000D03*
X169375000Y-106190000D03*
X169375000Y-107690000D03*
X169375000Y-109190000D03*
X167375000Y-107690000D03*
X167375000Y-106190000D03*
X167375000Y-104690000D03*
X167375000Y-109190000D03*
X167375000Y-110690000D03*
X168125000Y-111940000D03*
X169125000Y-112940000D03*
X170125000Y-113940000D03*
X171125000Y-114940000D03*
X172125000Y-115940000D03*
X173125000Y-116940000D03*
X174625000Y-117440000D03*
X176125000Y-117440000D03*
X177625000Y-117440000D03*
X179125000Y-117440000D03*
X180625000Y-117440000D03*
X180625000Y-115440000D03*
X179125000Y-115440000D03*
X177625000Y-115440000D03*
X176125000Y-115440000D03*
X169875000Y-110690000D03*
X170875000Y-111690000D03*
X171875000Y-112690000D03*
X172875000Y-113690000D03*
X173875000Y-114690000D03*
X174875000Y-115440000D03*
X162875000Y-92190000D03*
X162625000Y-73440000D03*
X181875000Y-74940000D03*
X183375000Y-74940000D03*
X184875000Y-74940000D03*
X181875000Y-77940000D03*
X183375000Y-77940000D03*
X184875000Y-77940000D03*
X180875000Y-72190000D03*
X184125000Y-73690000D03*
X184125000Y-79190000D03*
X180875000Y-80690000D03*
X184125000Y-82190000D03*
X182125000Y-114940000D03*
X183625000Y-114940000D03*
X185125000Y-114940000D03*
X182125000Y-117940000D03*
X183625000Y-117940000D03*
X185125000Y-117940000D03*
X180875000Y-112190000D03*
X184125000Y-113690000D03*
X184125000Y-110690000D03*
X184125000Y-119190000D03*
X180875000Y-120690000D03*
X184125000Y-122190000D03*
X174375000Y-88690000D03*
X162125000Y-97440000D03*
X153275000Y-95170000D03*
X153275000Y-97710000D03*
X140575000Y-95170000D03*
X140575000Y-97710000D03*
X127875000Y-95170000D03*
X127875000Y-97710000D03*
X170125000Y-98440000D03*
X171625000Y-98440000D03*
X173125000Y-98440000D03*
X116675000Y-108190000D03*
X116675000Y-104690000D03*
X114125000Y-107440000D03*
X111625000Y-106690000D03*
X109625000Y-106690000D03*
X111125000Y-104440000D03*
X113875000Y-85690000D03*
X116675000Y-86690000D03*
X116675000Y-83190000D03*
X111625000Y-82940000D03*
X116925000Y-97640000D03*
X116925000Y-95240000D03*
X114125000Y-94440000D03*
X112325000Y-95890000D03*
X184125000Y-70690000D03*
X109375000Y-86690000D03*
X111375000Y-86690000D03*
X105625000Y-97940000D03*
X104875000Y-90940000D03*
X110125000Y-90940000D03*
X159625000Y-86280000D03*
X159625000Y-106600000D03*
X162165000Y-79930000D03*
X157375000Y-108690000D03*
X157375000Y-104440000D03*
X118875000Y-109190000D03*
X121525000Y-106600000D03*
X121525000Y-86280000D03*
X119375000Y-82190000D03*
X123375000Y-81190000D03*
X99625000Y-73940000D03*
X99625000Y-70440000D03*
X103125000Y-72190000D03*
X103125000Y-80690000D03*
X99625000Y-78940000D03*
X99625000Y-82440000D03*
X99625000Y-110440000D03*
X99625000Y-113940000D03*
X103125000Y-112190000D03*
X103125000Y-120690000D03*
X99625000Y-118940000D03*
X99625000Y-122440000D03*
X106125000Y-101690000D03*
X108125000Y-99690000D03*
X115125000Y-98440000D03*
X113625000Y-92690000D03*
X123375000Y-91440000D03*
X123375000Y-101440000D03*
X123375000Y-111690000D03*
X157875000Y-81190000D03*
X157875000Y-91190000D03*
X99875000Y-97190000D03*
X104625000Y-100190000D03*
X102375000Y-92940000D03*
X108875000Y-110940000D03*
X112375000Y-100690000D03*
X108625000Y-79190000D03*
X119125000Y-77690000D03*
X134225000Y-86280000D03*
X146925000Y-86280000D03*
%TO.N,VCC*%
X163375000Y-96440000D03*
X118875000Y-90190000D03*
X119875000Y-99440000D03*
X118875000Y-92439990D03*
X119875000Y-101440000D03*
X105375000Y-100940000D03*
X106875000Y-99440000D03*
%TO.N,+1.4V*%
X118875000Y-99440000D03*
X119875000Y-90190000D03*
X118126952Y-94190000D03*
X118875000Y-101440000D03*
%TD*%
D15*
%TO.N,VCC*%
X175375000Y-94690000D02*
X175375000Y-90850000D01*
X175375000Y-90850000D02*
X177405000Y-88820000D01*
X163375000Y-96440000D02*
X173625000Y-96440000D01*
X173625000Y-96440000D02*
X175375000Y-94690000D01*
X118875000Y-90190000D02*
X118875000Y-92439990D01*
X119875000Y-99440000D02*
X119875000Y-101440000D01*
X105375000Y-100940000D02*
X106625000Y-99690000D01*
X106625000Y-99690000D02*
X106875000Y-99440000D01*
%TO.N,+1.4V*%
X119875000Y-92441952D02*
X118126952Y-94190000D01*
X119875000Y-90190000D02*
X119875000Y-92441952D01*
X118875000Y-99440000D02*
X118875000Y-101440000D01*
%TD*%
D16*
%TO.N,GND*%
X186185000Y-70802582D02*
X184410750Y-70805000D01*
X184252000Y-70963750D01*
X184252000Y-72063000D01*
X184272000Y-72063000D01*
X184272000Y-72317000D01*
X184252000Y-72317000D01*
X184252000Y-73416250D01*
X184410750Y-73575000D01*
X186185000Y-73577418D01*
X186185000Y-79302582D01*
X184410750Y-79305000D01*
X184252000Y-79463750D01*
X184252000Y-80563000D01*
X184272000Y-80563000D01*
X184272000Y-80817000D01*
X184252000Y-80817000D01*
X184252000Y-81916250D01*
X184410750Y-82075000D01*
X186185000Y-82077418D01*
X186185001Y-110802582D01*
X184410750Y-110805000D01*
X184252000Y-110963750D01*
X184252000Y-112063000D01*
X184272000Y-112063000D01*
X184272000Y-112317000D01*
X184252000Y-112317000D01*
X184252000Y-113416250D01*
X184410750Y-113575000D01*
X186185001Y-113577418D01*
X186185001Y-119302582D01*
X184410750Y-119305000D01*
X184252000Y-119463750D01*
X184252000Y-120563000D01*
X184272000Y-120563000D01*
X184272000Y-120817000D01*
X184252000Y-120817000D01*
X184252000Y-121916250D01*
X184410750Y-122075000D01*
X186185001Y-122077418D01*
X186185001Y-125780000D01*
X97505000Y-125780000D01*
X97505000Y-122077459D01*
X99309250Y-122075000D01*
X99468000Y-121916250D01*
X99468000Y-120817000D01*
X99722000Y-120817000D01*
X99722000Y-121916250D01*
X99880750Y-122075000D01*
X102135000Y-122078072D01*
X102259482Y-122065812D01*
X102379180Y-122029502D01*
X102489494Y-121970537D01*
X102586185Y-121891185D01*
X102665537Y-121794494D01*
X102724502Y-121684180D01*
X102760812Y-121564482D01*
X102773072Y-121440000D01*
X180946928Y-121440000D01*
X180959188Y-121564482D01*
X180995498Y-121684180D01*
X181054463Y-121794494D01*
X181133815Y-121891185D01*
X181230506Y-121970537D01*
X181340820Y-122029502D01*
X181460518Y-122065812D01*
X181585000Y-122078072D01*
X183839250Y-122075000D01*
X183998000Y-121916250D01*
X183998000Y-120817000D01*
X181108750Y-120817000D01*
X180950000Y-120975750D01*
X180946928Y-121440000D01*
X102773072Y-121440000D01*
X102770000Y-120975750D01*
X102611250Y-120817000D01*
X99722000Y-120817000D01*
X99468000Y-120817000D01*
X99448000Y-120817000D01*
X99448000Y-120563000D01*
X99468000Y-120563000D01*
X99468000Y-119463750D01*
X99722000Y-119463750D01*
X99722000Y-120563000D01*
X102611250Y-120563000D01*
X102770000Y-120404250D01*
X102773072Y-119940000D01*
X180946928Y-119940000D01*
X180950000Y-120404250D01*
X181108750Y-120563000D01*
X183998000Y-120563000D01*
X183998000Y-119463750D01*
X183839250Y-119305000D01*
X181585000Y-119301928D01*
X181460518Y-119314188D01*
X181340820Y-119350498D01*
X181230506Y-119409463D01*
X181133815Y-119488815D01*
X181054463Y-119585506D01*
X180995498Y-119695820D01*
X180959188Y-119815518D01*
X180946928Y-119940000D01*
X102773072Y-119940000D01*
X102760812Y-119815518D01*
X102724502Y-119695820D01*
X102665537Y-119585506D01*
X102586185Y-119488815D01*
X102489494Y-119409463D01*
X102379180Y-119350498D01*
X102259482Y-119314188D01*
X102135000Y-119301928D01*
X99880750Y-119305000D01*
X99722000Y-119463750D01*
X99468000Y-119463750D01*
X99309250Y-119305000D01*
X97505000Y-119302541D01*
X97505000Y-113577459D01*
X99309250Y-113575000D01*
X99468000Y-113416250D01*
X99468000Y-112317000D01*
X99722000Y-112317000D01*
X99722000Y-113416250D01*
X99880750Y-113575000D01*
X102135000Y-113578072D01*
X102259482Y-113565812D01*
X102379180Y-113529502D01*
X102489494Y-113470537D01*
X102586185Y-113391185D01*
X102665537Y-113294494D01*
X102724502Y-113184180D01*
X102760812Y-113064482D01*
X102773072Y-112940000D01*
X102770359Y-112530000D01*
X104796928Y-112530000D01*
X104809188Y-112654482D01*
X104845498Y-112774180D01*
X104904463Y-112884494D01*
X104983815Y-112981185D01*
X105080506Y-113060537D01*
X105190820Y-113119502D01*
X105263380Y-113141513D01*
X105131525Y-113273368D01*
X104969010Y-113516589D01*
X104857068Y-113786842D01*
X104800000Y-114073740D01*
X104800000Y-114366260D01*
X104857068Y-114653158D01*
X104969010Y-114923411D01*
X105131525Y-115166632D01*
X105338368Y-115373475D01*
X105581589Y-115535990D01*
X105851842Y-115647932D01*
X106138740Y-115705000D01*
X106431260Y-115705000D01*
X106718158Y-115647932D01*
X106988411Y-115535990D01*
X107231632Y-115373475D01*
X107438475Y-115166632D01*
X107600990Y-114923411D01*
X107712932Y-114653158D01*
X107770000Y-114366260D01*
X107770000Y-114073740D01*
X107712932Y-113786842D01*
X107600990Y-113516589D01*
X107438475Y-113273368D01*
X107306620Y-113141513D01*
X107379180Y-113119502D01*
X107489494Y-113060537D01*
X107586185Y-112981185D01*
X107665537Y-112884494D01*
X107724502Y-112774180D01*
X107760812Y-112654482D01*
X107773072Y-112530000D01*
X107770000Y-111965750D01*
X107611250Y-111807000D01*
X106412000Y-111807000D01*
X106412000Y-111827000D01*
X106158000Y-111827000D01*
X106158000Y-111807000D01*
X104958750Y-111807000D01*
X104800000Y-111965750D01*
X104796928Y-112530000D01*
X102770359Y-112530000D01*
X102770000Y-112475750D01*
X102611250Y-112317000D01*
X99722000Y-112317000D01*
X99468000Y-112317000D01*
X99448000Y-112317000D01*
X99448000Y-112063000D01*
X99468000Y-112063000D01*
X99468000Y-110963750D01*
X99722000Y-110963750D01*
X99722000Y-112063000D01*
X102611250Y-112063000D01*
X102770000Y-111904250D01*
X102773072Y-111440000D01*
X102760812Y-111315518D01*
X102724502Y-111195820D01*
X102665537Y-111085506D01*
X102586185Y-110988815D01*
X102489494Y-110909463D01*
X102379180Y-110850498D01*
X102311608Y-110830000D01*
X104796928Y-110830000D01*
X104800000Y-111394250D01*
X104958750Y-111553000D01*
X106158000Y-111553000D01*
X106158000Y-110353750D01*
X106412000Y-110353750D01*
X106412000Y-111553000D01*
X107611250Y-111553000D01*
X107770000Y-111394250D01*
X107773072Y-110830000D01*
X107760812Y-110705518D01*
X107724502Y-110585820D01*
X107665537Y-110475506D01*
X107586185Y-110378815D01*
X107489494Y-110299463D01*
X107379180Y-110240498D01*
X107259482Y-110204188D01*
X107135000Y-110191928D01*
X106570750Y-110195000D01*
X106412000Y-110353750D01*
X106158000Y-110353750D01*
X105999250Y-110195000D01*
X105435000Y-110191928D01*
X105310518Y-110204188D01*
X105190820Y-110240498D01*
X105080506Y-110299463D01*
X104983815Y-110378815D01*
X104904463Y-110475506D01*
X104845498Y-110585820D01*
X104809188Y-110705518D01*
X104796928Y-110830000D01*
X102311608Y-110830000D01*
X102259482Y-110814188D01*
X102135000Y-110801928D01*
X99880750Y-110805000D01*
X99722000Y-110963750D01*
X99468000Y-110963750D01*
X99309250Y-110805000D01*
X97505000Y-110802541D01*
X97505000Y-108290000D01*
X120036928Y-108290000D01*
X120036928Y-109990000D01*
X120049188Y-110114482D01*
X120085498Y-110234180D01*
X120144463Y-110344494D01*
X120223815Y-110441185D01*
X120320506Y-110520537D01*
X120430820Y-110579502D01*
X120503380Y-110601513D01*
X120371525Y-110733368D01*
X120209010Y-110976589D01*
X120097068Y-111246842D01*
X120040000Y-111533740D01*
X120040000Y-111826260D01*
X120097068Y-112113158D01*
X120209010Y-112383411D01*
X120371525Y-112626632D01*
X120578368Y-112833475D01*
X120752760Y-112950000D01*
X120578368Y-113066525D01*
X120371525Y-113273368D01*
X120209010Y-113516589D01*
X120097068Y-113786842D01*
X120040000Y-114073740D01*
X120040000Y-114366260D01*
X120097068Y-114653158D01*
X120209010Y-114923411D01*
X120371525Y-115166632D01*
X120578368Y-115373475D01*
X120821589Y-115535990D01*
X121091842Y-115647932D01*
X121378740Y-115705000D01*
X121671260Y-115705000D01*
X121958158Y-115647932D01*
X122228411Y-115535990D01*
X122471632Y-115373475D01*
X122678475Y-115166632D01*
X122840990Y-114923411D01*
X122952932Y-114653158D01*
X123010000Y-114366260D01*
X123010000Y-114073740D01*
X122952932Y-113786842D01*
X122840990Y-113516589D01*
X122678475Y-113273368D01*
X122471632Y-113066525D01*
X122297240Y-112950000D01*
X122471632Y-112833475D01*
X122678475Y-112626632D01*
X122840990Y-112383411D01*
X122952932Y-112113158D01*
X123010000Y-111826260D01*
X123010000Y-111533740D01*
X122952932Y-111246842D01*
X122840990Y-110976589D01*
X122678475Y-110733368D01*
X122546620Y-110601513D01*
X122619180Y-110579502D01*
X122729494Y-110520537D01*
X122826185Y-110441185D01*
X122905537Y-110344494D01*
X122964502Y-110234180D01*
X123000812Y-110114482D01*
X123013072Y-109990000D01*
X123013072Y-108290000D01*
X158136928Y-108290000D01*
X158136928Y-109990000D01*
X158149188Y-110114482D01*
X158185498Y-110234180D01*
X158244463Y-110344494D01*
X158323815Y-110441185D01*
X158420506Y-110520537D01*
X158530820Y-110579502D01*
X158603380Y-110601513D01*
X158471525Y-110733368D01*
X158309010Y-110976589D01*
X158197068Y-111246842D01*
X158140000Y-111533740D01*
X158140000Y-111826260D01*
X158197068Y-112113158D01*
X158309010Y-112383411D01*
X158471525Y-112626632D01*
X158678368Y-112833475D01*
X158852760Y-112950000D01*
X158678368Y-113066525D01*
X158471525Y-113273368D01*
X158309010Y-113516589D01*
X158197068Y-113786842D01*
X158140000Y-114073740D01*
X158140000Y-114366260D01*
X158197068Y-114653158D01*
X158309010Y-114923411D01*
X158471525Y-115166632D01*
X158678368Y-115373475D01*
X158921589Y-115535990D01*
X159191842Y-115647932D01*
X159478740Y-115705000D01*
X159771260Y-115705000D01*
X160058158Y-115647932D01*
X160328411Y-115535990D01*
X160571632Y-115373475D01*
X160778475Y-115166632D01*
X160940990Y-114923411D01*
X161052932Y-114653158D01*
X161110000Y-114366260D01*
X161110000Y-114073740D01*
X161052932Y-113786842D01*
X160940990Y-113516589D01*
X160778475Y-113273368D01*
X160571632Y-113066525D01*
X160397240Y-112950000D01*
X160412206Y-112940000D01*
X180946928Y-112940000D01*
X180959188Y-113064482D01*
X180995498Y-113184180D01*
X181054463Y-113294494D01*
X181133815Y-113391185D01*
X181230506Y-113470537D01*
X181340820Y-113529502D01*
X181460518Y-113565812D01*
X181585000Y-113578072D01*
X183839250Y-113575000D01*
X183998000Y-113416250D01*
X183998000Y-112317000D01*
X181108750Y-112317000D01*
X180950000Y-112475750D01*
X180946928Y-112940000D01*
X160412206Y-112940000D01*
X160571632Y-112833475D01*
X160778475Y-112626632D01*
X160940990Y-112383411D01*
X161052932Y-112113158D01*
X161110000Y-111826260D01*
X161110000Y-111533740D01*
X161091354Y-111440000D01*
X180946928Y-111440000D01*
X180950000Y-111904250D01*
X181108750Y-112063000D01*
X183998000Y-112063000D01*
X183998000Y-110963750D01*
X183839250Y-110805000D01*
X181585000Y-110801928D01*
X181460518Y-110814188D01*
X181340820Y-110850498D01*
X181230506Y-110909463D01*
X181133815Y-110988815D01*
X181054463Y-111085506D01*
X180995498Y-111195820D01*
X180959188Y-111315518D01*
X180946928Y-111440000D01*
X161091354Y-111440000D01*
X161052932Y-111246842D01*
X160940990Y-110976589D01*
X160778475Y-110733368D01*
X160646620Y-110601513D01*
X160719180Y-110579502D01*
X160829494Y-110520537D01*
X160926185Y-110441185D01*
X161005537Y-110344494D01*
X161064502Y-110234180D01*
X161100812Y-110114482D01*
X161113072Y-109990000D01*
X161113072Y-108290000D01*
X161100812Y-108165518D01*
X161064502Y-108045820D01*
X161005537Y-107935506D01*
X160926185Y-107838815D01*
X160829494Y-107759463D01*
X160719180Y-107700498D01*
X160599482Y-107664188D01*
X160475000Y-107651928D01*
X158775000Y-107651928D01*
X158650518Y-107664188D01*
X158530820Y-107700498D01*
X158420506Y-107759463D01*
X158323815Y-107838815D01*
X158244463Y-107935506D01*
X158185498Y-108045820D01*
X158149188Y-108165518D01*
X158136928Y-108290000D01*
X123013072Y-108290000D01*
X123000812Y-108165518D01*
X122964502Y-108045820D01*
X122905537Y-107935506D01*
X122826185Y-107838815D01*
X122729494Y-107759463D01*
X122619180Y-107700498D01*
X122499482Y-107664188D01*
X122375000Y-107651928D01*
X120675000Y-107651928D01*
X120550518Y-107664188D01*
X120430820Y-107700498D01*
X120320506Y-107759463D01*
X120223815Y-107838815D01*
X120144463Y-107935506D01*
X120085498Y-108045820D01*
X120049188Y-108165518D01*
X120036928Y-108290000D01*
X97505000Y-108290000D01*
X97505000Y-105372656D01*
X97514379Y-105382035D01*
X97810012Y-105579571D01*
X98138501Y-105715635D01*
X98487223Y-105785000D01*
X98842777Y-105785000D01*
X99191499Y-105715635D01*
X99519988Y-105579571D01*
X99815621Y-105382035D01*
X100067035Y-105130621D01*
X100264571Y-104834988D01*
X100400635Y-104506499D01*
X100470000Y-104157777D01*
X100470000Y-103802223D01*
X100400635Y-103453501D01*
X100264571Y-103125012D01*
X100173067Y-102988067D01*
X100310012Y-103079571D01*
X100638501Y-103215635D01*
X100987223Y-103285000D01*
X101342777Y-103285000D01*
X101691499Y-103215635D01*
X102019988Y-103079571D01*
X102315621Y-102882035D01*
X102567035Y-102630621D01*
X102764571Y-102334988D01*
X102900635Y-102006499D01*
X102970000Y-101657777D01*
X102970000Y-101302223D01*
X102900635Y-100953501D01*
X102856899Y-100847911D01*
X104440000Y-100847911D01*
X104440000Y-101032089D01*
X104475932Y-101212729D01*
X104546414Y-101382889D01*
X104648738Y-101536028D01*
X104778972Y-101666262D01*
X104932111Y-101768586D01*
X105102271Y-101839068D01*
X105282911Y-101875000D01*
X105467089Y-101875000D01*
X105647729Y-101839068D01*
X105817889Y-101768586D01*
X105971028Y-101666262D01*
X106101262Y-101536028D01*
X106203586Y-101382889D01*
X106217655Y-101348923D01*
X107281532Y-100285047D01*
X107281537Y-100285041D01*
X107283923Y-100282655D01*
X107317889Y-100268586D01*
X107471028Y-100166262D01*
X107601262Y-100036028D01*
X107703586Y-99882889D01*
X107774068Y-99712729D01*
X107810000Y-99532089D01*
X107810000Y-99347911D01*
X117940000Y-99347911D01*
X117940000Y-99532089D01*
X117975932Y-99712729D01*
X117990000Y-99746693D01*
X117990001Y-101133306D01*
X117975932Y-101167271D01*
X117940000Y-101347911D01*
X117940000Y-101532089D01*
X117975932Y-101712729D01*
X118046414Y-101882889D01*
X118148738Y-102036028D01*
X118278972Y-102166262D01*
X118432111Y-102268586D01*
X118602271Y-102339068D01*
X118782911Y-102375000D01*
X118967089Y-102375000D01*
X119147729Y-102339068D01*
X119317889Y-102268586D01*
X119375000Y-102230426D01*
X119432111Y-102268586D01*
X119602271Y-102339068D01*
X119782911Y-102375000D01*
X119967089Y-102375000D01*
X120147729Y-102339068D01*
X120256254Y-102294116D01*
X120371525Y-102466632D01*
X120503380Y-102598487D01*
X120430820Y-102620498D01*
X120320506Y-102679463D01*
X120223815Y-102758815D01*
X120144463Y-102855506D01*
X120085498Y-102965820D01*
X120049188Y-103085518D01*
X120036928Y-103210000D01*
X120036928Y-104910000D01*
X120049188Y-105034482D01*
X120085498Y-105154180D01*
X120144463Y-105264494D01*
X120223815Y-105361185D01*
X120320506Y-105440537D01*
X120430820Y-105499502D01*
X120550518Y-105535812D01*
X120675000Y-105548072D01*
X122375000Y-105548072D01*
X122499482Y-105535812D01*
X122619180Y-105499502D01*
X122729494Y-105440537D01*
X122826185Y-105361185D01*
X122905537Y-105264494D01*
X122964502Y-105154180D01*
X123000812Y-105034482D01*
X123013072Y-104910000D01*
X123013072Y-103210000D01*
X158136928Y-103210000D01*
X158136928Y-104910000D01*
X158149188Y-105034482D01*
X158185498Y-105154180D01*
X158244463Y-105264494D01*
X158323815Y-105361185D01*
X158420506Y-105440537D01*
X158530820Y-105499502D01*
X158650518Y-105535812D01*
X158775000Y-105548072D01*
X160475000Y-105548072D01*
X160599482Y-105535812D01*
X160719180Y-105499502D01*
X160829494Y-105440537D01*
X160926185Y-105361185D01*
X161005537Y-105264494D01*
X161064502Y-105154180D01*
X161100812Y-105034482D01*
X161113072Y-104910000D01*
X161113072Y-104416890D01*
X175963524Y-104416890D01*
X176008175Y-104564099D01*
X176133359Y-104826920D01*
X176307412Y-105060269D01*
X176523645Y-105255178D01*
X176773748Y-105404157D01*
X177048109Y-105501481D01*
X177278000Y-105380814D01*
X177278000Y-104187000D01*
X177532000Y-104187000D01*
X177532000Y-105380814D01*
X177761891Y-105501481D01*
X178036252Y-105404157D01*
X178286355Y-105255178D01*
X178502588Y-105060269D01*
X178676641Y-104826920D01*
X178801825Y-104564099D01*
X178846476Y-104416890D01*
X178725155Y-104187000D01*
X177532000Y-104187000D01*
X177278000Y-104187000D01*
X176084845Y-104187000D01*
X175963524Y-104416890D01*
X161113072Y-104416890D01*
X161113072Y-103210000D01*
X161100812Y-103085518D01*
X161064502Y-102965820D01*
X161005537Y-102855506D01*
X160926185Y-102758815D01*
X160829494Y-102679463D01*
X160719180Y-102620498D01*
X160646620Y-102598487D01*
X160778475Y-102466632D01*
X160940990Y-102223411D01*
X161052932Y-101953158D01*
X161110000Y-101666260D01*
X161110000Y-101373740D01*
X161052932Y-101086842D01*
X160940990Y-100816589D01*
X160778475Y-100573368D01*
X160571632Y-100366525D01*
X160397240Y-100250000D01*
X160571632Y-100133475D01*
X160778475Y-99926632D01*
X160940990Y-99683411D01*
X161052932Y-99413158D01*
X161110000Y-99126260D01*
X161110000Y-98833740D01*
X161052932Y-98546842D01*
X160940990Y-98276589D01*
X160778475Y-98033368D01*
X160571632Y-97826525D01*
X160328411Y-97664010D01*
X160058158Y-97552068D01*
X159771260Y-97495000D01*
X159478740Y-97495000D01*
X159191842Y-97552068D01*
X158921589Y-97664010D01*
X158678368Y-97826525D01*
X158471525Y-98033368D01*
X158309010Y-98276589D01*
X158197068Y-98546842D01*
X158140000Y-98833740D01*
X158140000Y-99126260D01*
X158197068Y-99413158D01*
X158309010Y-99683411D01*
X158471525Y-99926632D01*
X158678368Y-100133475D01*
X158852760Y-100250000D01*
X158678368Y-100366525D01*
X158471525Y-100573368D01*
X158309010Y-100816589D01*
X158197068Y-101086842D01*
X158140000Y-101373740D01*
X158140000Y-101666260D01*
X158197068Y-101953158D01*
X158309010Y-102223411D01*
X158471525Y-102466632D01*
X158603380Y-102598487D01*
X158530820Y-102620498D01*
X158420506Y-102679463D01*
X158323815Y-102758815D01*
X158244463Y-102855506D01*
X158185498Y-102965820D01*
X158149188Y-103085518D01*
X158136928Y-103210000D01*
X123013072Y-103210000D01*
X123000812Y-103085518D01*
X122964502Y-102965820D01*
X122905537Y-102855506D01*
X122826185Y-102758815D01*
X122729494Y-102679463D01*
X122619180Y-102620498D01*
X122546620Y-102598487D01*
X122678475Y-102466632D01*
X122840990Y-102223411D01*
X122952932Y-101953158D01*
X123010000Y-101666260D01*
X123010000Y-101373740D01*
X122952932Y-101086842D01*
X122840990Y-100816589D01*
X122678475Y-100573368D01*
X122471632Y-100366525D01*
X122297240Y-100250000D01*
X122471632Y-100133475D01*
X122678475Y-99926632D01*
X122840990Y-99683411D01*
X122952932Y-99413158D01*
X123010000Y-99126260D01*
X123010000Y-98833740D01*
X122952932Y-98546842D01*
X122840990Y-98276589D01*
X122678475Y-98033368D01*
X122471632Y-97826525D01*
X122228411Y-97664010D01*
X121958158Y-97552068D01*
X121671260Y-97495000D01*
X121378740Y-97495000D01*
X121091842Y-97552068D01*
X120821589Y-97664010D01*
X120578368Y-97826525D01*
X120371525Y-98033368D01*
X120209010Y-98276589D01*
X120103186Y-98532072D01*
X119967089Y-98505000D01*
X119782911Y-98505000D01*
X119602271Y-98540932D01*
X119432111Y-98611414D01*
X119375000Y-98649574D01*
X119317889Y-98611414D01*
X119147729Y-98540932D01*
X118967089Y-98505000D01*
X118782911Y-98505000D01*
X118602271Y-98540932D01*
X118432111Y-98611414D01*
X118278972Y-98713738D01*
X118148738Y-98843972D01*
X118046414Y-98997111D01*
X117975932Y-99167271D01*
X117940000Y-99347911D01*
X107810000Y-99347911D01*
X107774068Y-99167271D01*
X107703586Y-98997111D01*
X107601262Y-98843972D01*
X107471028Y-98713738D01*
X107317889Y-98611414D01*
X107147729Y-98540932D01*
X106967089Y-98505000D01*
X106782911Y-98505000D01*
X106602271Y-98540932D01*
X106432111Y-98611414D01*
X106278972Y-98713738D01*
X106148738Y-98843972D01*
X106046414Y-98997111D01*
X106032345Y-99031077D01*
X106029959Y-99033463D01*
X106029953Y-99033468D01*
X104966077Y-100097345D01*
X104932111Y-100111414D01*
X104778972Y-100213738D01*
X104648738Y-100343972D01*
X104546414Y-100497111D01*
X104475932Y-100667271D01*
X104440000Y-100847911D01*
X102856899Y-100847911D01*
X102764571Y-100625012D01*
X102567035Y-100329379D01*
X102315621Y-100077965D01*
X102019988Y-99880429D01*
X101691499Y-99744365D01*
X101342777Y-99675000D01*
X100987223Y-99675000D01*
X100638501Y-99744365D01*
X100310012Y-99880429D01*
X100014379Y-100077965D01*
X99978476Y-100113868D01*
X99921604Y-100056996D01*
X100203389Y-99940725D01*
X100361257Y-99622140D01*
X100453938Y-99278878D01*
X100477873Y-98924131D01*
X100432139Y-98571530D01*
X100318495Y-98234627D01*
X100203389Y-98019275D01*
X99921602Y-97903003D01*
X98844605Y-98980000D01*
X98858748Y-98994143D01*
X98679143Y-99173748D01*
X98665000Y-99159605D01*
X98650858Y-99173748D01*
X98471253Y-98994143D01*
X98485395Y-98980000D01*
X98471253Y-98965858D01*
X98650858Y-98786253D01*
X98665000Y-98800395D01*
X99741997Y-97723398D01*
X99625725Y-97441611D01*
X99307140Y-97283743D01*
X98963878Y-97191062D01*
X98609131Y-97167127D01*
X98256530Y-97212861D01*
X97919627Y-97326505D01*
X97704275Y-97441611D01*
X97588004Y-97723396D01*
X97505000Y-97640392D01*
X97505000Y-96347911D01*
X162440000Y-96347911D01*
X162440000Y-96532089D01*
X162475932Y-96712729D01*
X162546414Y-96882889D01*
X162648738Y-97036028D01*
X162778972Y-97166262D01*
X162932111Y-97268586D01*
X163102271Y-97339068D01*
X163282911Y-97375000D01*
X163467089Y-97375000D01*
X163647729Y-97339068D01*
X163681692Y-97325000D01*
X173581531Y-97325000D01*
X173625000Y-97329281D01*
X173668469Y-97325000D01*
X173668477Y-97325000D01*
X173798490Y-97312195D01*
X173965313Y-97261589D01*
X174119059Y-97179411D01*
X174253817Y-97068817D01*
X174281534Y-97035044D01*
X175970050Y-95346529D01*
X176003817Y-95318817D01*
X176114411Y-95184059D01*
X176196589Y-95030313D01*
X176247195Y-94863490D01*
X176249198Y-94843150D01*
X176251525Y-94846632D01*
X176458368Y-95053475D01*
X176632760Y-95170000D01*
X176458368Y-95286525D01*
X176251525Y-95493368D01*
X176089010Y-95736589D01*
X175977068Y-96006842D01*
X175920000Y-96293740D01*
X175920000Y-96586260D01*
X175977068Y-96873158D01*
X176089010Y-97143411D01*
X176251525Y-97386632D01*
X176458368Y-97593475D01*
X176632760Y-97710000D01*
X176458368Y-97826525D01*
X176251525Y-98033368D01*
X176089010Y-98276589D01*
X175977068Y-98546842D01*
X175920000Y-98833740D01*
X175920000Y-99126260D01*
X175977068Y-99413158D01*
X176089010Y-99683411D01*
X176251525Y-99926632D01*
X176458368Y-100133475D01*
X176632760Y-100250000D01*
X176458368Y-100366525D01*
X176251525Y-100573368D01*
X176089010Y-100816589D01*
X175977068Y-101086842D01*
X175920000Y-101373740D01*
X175920000Y-101666260D01*
X175977068Y-101953158D01*
X176089010Y-102223411D01*
X176251525Y-102466632D01*
X176458368Y-102673475D01*
X176640534Y-102795195D01*
X176523645Y-102864822D01*
X176307412Y-103059731D01*
X176133359Y-103293080D01*
X176008175Y-103555901D01*
X175963524Y-103703110D01*
X176084845Y-103933000D01*
X177278000Y-103933000D01*
X177278000Y-103913000D01*
X177532000Y-103913000D01*
X177532000Y-103933000D01*
X178725155Y-103933000D01*
X178846476Y-103703110D01*
X178801825Y-103555901D01*
X178676641Y-103293080D01*
X178502588Y-103059731D01*
X178286355Y-102864822D01*
X178169466Y-102795195D01*
X178351632Y-102673475D01*
X178558475Y-102466632D01*
X178720990Y-102223411D01*
X178832932Y-101953158D01*
X178890000Y-101666260D01*
X178890000Y-101373740D01*
X178832932Y-101086842D01*
X178720990Y-100816589D01*
X178558475Y-100573368D01*
X178351632Y-100366525D01*
X178177240Y-100250000D01*
X178351632Y-100133475D01*
X178558475Y-99926632D01*
X178720990Y-99683411D01*
X178832932Y-99413158D01*
X178890000Y-99126260D01*
X178890000Y-98833740D01*
X178832932Y-98546842D01*
X178720990Y-98276589D01*
X178558475Y-98033368D01*
X178351632Y-97826525D01*
X178177240Y-97710000D01*
X178351632Y-97593475D01*
X178558475Y-97386632D01*
X178720990Y-97143411D01*
X178832932Y-96873158D01*
X178890000Y-96586260D01*
X178890000Y-96293740D01*
X178832932Y-96006842D01*
X178720990Y-95736589D01*
X178558475Y-95493368D01*
X178351632Y-95286525D01*
X178177240Y-95170000D01*
X178351632Y-95053475D01*
X178558475Y-94846632D01*
X178720990Y-94603411D01*
X178832932Y-94333158D01*
X178890000Y-94046260D01*
X178890000Y-93753740D01*
X178832932Y-93466842D01*
X178720990Y-93196589D01*
X178558475Y-92953368D01*
X178351632Y-92746525D01*
X178177240Y-92630000D01*
X178351632Y-92513475D01*
X178558475Y-92306632D01*
X178720990Y-92063411D01*
X178832932Y-91793158D01*
X178890000Y-91506260D01*
X178890000Y-91213740D01*
X178832932Y-90926842D01*
X178720990Y-90656589D01*
X178558475Y-90413368D01*
X178426620Y-90281513D01*
X178499180Y-90259502D01*
X178609494Y-90200537D01*
X178706185Y-90121185D01*
X178785537Y-90024494D01*
X178844502Y-89914180D01*
X178880812Y-89794482D01*
X178893072Y-89670000D01*
X178893072Y-87970000D01*
X178880812Y-87845518D01*
X178844502Y-87725820D01*
X178785537Y-87615506D01*
X178706185Y-87518815D01*
X178609494Y-87439463D01*
X178499180Y-87380498D01*
X178379482Y-87344188D01*
X178255000Y-87331928D01*
X176555000Y-87331928D01*
X176430518Y-87344188D01*
X176310820Y-87380498D01*
X176200506Y-87439463D01*
X176103815Y-87518815D01*
X176024463Y-87615506D01*
X175965498Y-87725820D01*
X175929188Y-87845518D01*
X175916928Y-87970000D01*
X175916928Y-89056493D01*
X174779951Y-90193471D01*
X174746184Y-90221183D01*
X174718471Y-90254951D01*
X174718468Y-90254954D01*
X174635590Y-90355941D01*
X174553412Y-90509687D01*
X174502805Y-90676510D01*
X174485719Y-90850000D01*
X174490001Y-90893479D01*
X174490000Y-94323421D01*
X173258422Y-95555000D01*
X163681692Y-95555000D01*
X163647729Y-95540932D01*
X163467089Y-95505000D01*
X163282911Y-95505000D01*
X163102271Y-95540932D01*
X162932111Y-95611414D01*
X162778972Y-95713738D01*
X162648738Y-95843972D01*
X162546414Y-95997111D01*
X162475932Y-96167271D01*
X162440000Y-96347911D01*
X97505000Y-96347911D01*
X97505000Y-94097911D01*
X117191952Y-94097911D01*
X117191952Y-94282089D01*
X117227884Y-94462729D01*
X117298366Y-94632889D01*
X117400690Y-94786028D01*
X117530924Y-94916262D01*
X117684063Y-95018586D01*
X117854223Y-95089068D01*
X118034863Y-95125000D01*
X118219041Y-95125000D01*
X118399681Y-95089068D01*
X118569841Y-95018586D01*
X118722980Y-94916262D01*
X118853214Y-94786028D01*
X118955538Y-94632889D01*
X118969607Y-94598923D01*
X120095921Y-93472610D01*
X120040000Y-93753740D01*
X120040000Y-94046260D01*
X120097068Y-94333158D01*
X120209010Y-94603411D01*
X120371525Y-94846632D01*
X120578368Y-95053475D01*
X120821589Y-95215990D01*
X121091842Y-95327932D01*
X121378740Y-95385000D01*
X121671260Y-95385000D01*
X121958158Y-95327932D01*
X122228411Y-95215990D01*
X122471632Y-95053475D01*
X122678475Y-94846632D01*
X122840990Y-94603411D01*
X122952932Y-94333158D01*
X123010000Y-94046260D01*
X123010000Y-93753740D01*
X122952932Y-93466842D01*
X122840990Y-93196589D01*
X122678475Y-92953368D01*
X122471632Y-92746525D01*
X122297240Y-92630000D01*
X122471632Y-92513475D01*
X122678475Y-92306632D01*
X122840990Y-92063411D01*
X122952932Y-91793158D01*
X123010000Y-91506260D01*
X123010000Y-91213740D01*
X122952932Y-90926842D01*
X122840990Y-90656589D01*
X122678475Y-90413368D01*
X122546620Y-90281513D01*
X122619180Y-90259502D01*
X122729494Y-90200537D01*
X122826185Y-90121185D01*
X122905537Y-90024494D01*
X122964502Y-89914180D01*
X123000812Y-89794482D01*
X123013072Y-89670000D01*
X123013072Y-87970000D01*
X158136928Y-87970000D01*
X158136928Y-89670000D01*
X158149188Y-89794482D01*
X158185498Y-89914180D01*
X158244463Y-90024494D01*
X158323815Y-90121185D01*
X158420506Y-90200537D01*
X158530820Y-90259502D01*
X158603380Y-90281513D01*
X158471525Y-90413368D01*
X158309010Y-90656589D01*
X158197068Y-90926842D01*
X158140000Y-91213740D01*
X158140000Y-91506260D01*
X158197068Y-91793158D01*
X158309010Y-92063411D01*
X158471525Y-92306632D01*
X158678368Y-92513475D01*
X158852760Y-92630000D01*
X158678368Y-92746525D01*
X158471525Y-92953368D01*
X158309010Y-93196589D01*
X158197068Y-93466842D01*
X158140000Y-93753740D01*
X158140000Y-94046260D01*
X158197068Y-94333158D01*
X158309010Y-94603411D01*
X158471525Y-94846632D01*
X158678368Y-95053475D01*
X158921589Y-95215990D01*
X159191842Y-95327932D01*
X159478740Y-95385000D01*
X159771260Y-95385000D01*
X160058158Y-95327932D01*
X160328411Y-95215990D01*
X160571632Y-95053475D01*
X160778475Y-94846632D01*
X160940990Y-94603411D01*
X161052932Y-94333158D01*
X161110000Y-94046260D01*
X161110000Y-93753740D01*
X161052932Y-93466842D01*
X160940990Y-93196589D01*
X160778475Y-92953368D01*
X160571632Y-92746525D01*
X160397240Y-92630000D01*
X160571632Y-92513475D01*
X160778475Y-92306632D01*
X160940990Y-92063411D01*
X161052932Y-91793158D01*
X161110000Y-91506260D01*
X161110000Y-91213740D01*
X161052932Y-90926842D01*
X160940990Y-90656589D01*
X160778475Y-90413368D01*
X160646620Y-90281513D01*
X160719180Y-90259502D01*
X160829494Y-90200537D01*
X160926185Y-90121185D01*
X161005537Y-90024494D01*
X161064502Y-89914180D01*
X161100812Y-89794482D01*
X161113072Y-89670000D01*
X161113072Y-87970000D01*
X161100812Y-87845518D01*
X161064502Y-87725820D01*
X161005537Y-87615506D01*
X160926185Y-87518815D01*
X160829494Y-87439463D01*
X160719180Y-87380498D01*
X160599482Y-87344188D01*
X160475000Y-87331928D01*
X158775000Y-87331928D01*
X158650518Y-87344188D01*
X158530820Y-87380498D01*
X158420506Y-87439463D01*
X158323815Y-87518815D01*
X158244463Y-87615506D01*
X158185498Y-87725820D01*
X158149188Y-87845518D01*
X158136928Y-87970000D01*
X123013072Y-87970000D01*
X123000812Y-87845518D01*
X122964502Y-87725820D01*
X122905537Y-87615506D01*
X122826185Y-87518815D01*
X122729494Y-87439463D01*
X122619180Y-87380498D01*
X122499482Y-87344188D01*
X122375000Y-87331928D01*
X120675000Y-87331928D01*
X120550518Y-87344188D01*
X120430820Y-87380498D01*
X120320506Y-87439463D01*
X120223815Y-87518815D01*
X120144463Y-87615506D01*
X120085498Y-87725820D01*
X120049188Y-87845518D01*
X120036928Y-87970000D01*
X120036928Y-89268892D01*
X119967089Y-89255000D01*
X119782911Y-89255000D01*
X119602271Y-89290932D01*
X119432111Y-89361414D01*
X119375000Y-89399574D01*
X119317889Y-89361414D01*
X119147729Y-89290932D01*
X118967089Y-89255000D01*
X118782911Y-89255000D01*
X118602271Y-89290932D01*
X118432111Y-89361414D01*
X118278972Y-89463738D01*
X118148738Y-89593972D01*
X118046414Y-89747111D01*
X117975932Y-89917271D01*
X117940000Y-90097911D01*
X117940000Y-90282089D01*
X117975932Y-90462729D01*
X117990000Y-90496693D01*
X117990001Y-92133296D01*
X117975932Y-92167261D01*
X117940000Y-92347901D01*
X117940000Y-92532079D01*
X117975932Y-92712719D01*
X118046414Y-92882879D01*
X118100920Y-92964453D01*
X117718029Y-93347345D01*
X117684063Y-93361414D01*
X117530924Y-93463738D01*
X117400690Y-93593972D01*
X117298366Y-93747111D01*
X117227884Y-93917271D01*
X117191952Y-94097911D01*
X97505000Y-94097911D01*
X97505000Y-87130000D01*
X99716928Y-87130000D01*
X99729188Y-87254482D01*
X99765498Y-87374180D01*
X99824463Y-87484494D01*
X99903815Y-87581185D01*
X100000506Y-87660537D01*
X100110820Y-87719502D01*
X100183380Y-87741513D01*
X100051525Y-87873368D01*
X99889010Y-88116589D01*
X99777068Y-88386842D01*
X99720000Y-88673740D01*
X99720000Y-88966260D01*
X99777068Y-89253158D01*
X99889010Y-89523411D01*
X100051525Y-89766632D01*
X100258368Y-89973475D01*
X100432760Y-90090000D01*
X100258368Y-90206525D01*
X100051525Y-90413368D01*
X99889010Y-90656589D01*
X99777068Y-90926842D01*
X99720000Y-91213740D01*
X99720000Y-91506260D01*
X99777068Y-91793158D01*
X99889010Y-92063411D01*
X100051525Y-92306632D01*
X100258368Y-92513475D01*
X100501589Y-92675990D01*
X100771842Y-92787932D01*
X101058740Y-92845000D01*
X101351260Y-92845000D01*
X101638158Y-92787932D01*
X101908411Y-92675990D01*
X102151632Y-92513475D01*
X102358475Y-92306632D01*
X102520990Y-92063411D01*
X102632932Y-91793158D01*
X102690000Y-91506260D01*
X102690000Y-91213740D01*
X102632932Y-90926842D01*
X102520990Y-90656589D01*
X102358475Y-90413368D01*
X102151632Y-90206525D01*
X101977240Y-90090000D01*
X102151632Y-89973475D01*
X102358475Y-89766632D01*
X102520990Y-89523411D01*
X102632932Y-89253158D01*
X102690000Y-88966260D01*
X102690000Y-88673740D01*
X102632932Y-88386842D01*
X102520990Y-88116589D01*
X102358475Y-87873368D01*
X102226620Y-87741513D01*
X102299180Y-87719502D01*
X102409494Y-87660537D01*
X102506185Y-87581185D01*
X102585537Y-87484494D01*
X102644502Y-87374180D01*
X102680812Y-87254482D01*
X102693072Y-87130000D01*
X102690000Y-86565750D01*
X102531250Y-86407000D01*
X101332000Y-86407000D01*
X101332000Y-86427000D01*
X101078000Y-86427000D01*
X101078000Y-86407000D01*
X99878750Y-86407000D01*
X99720000Y-86565750D01*
X99716928Y-87130000D01*
X97505000Y-87130000D01*
X97505000Y-85430000D01*
X99716928Y-85430000D01*
X99720000Y-85994250D01*
X99878750Y-86153000D01*
X101078000Y-86153000D01*
X101078000Y-84953750D01*
X101332000Y-84953750D01*
X101332000Y-86153000D01*
X102531250Y-86153000D01*
X102690000Y-85994250D01*
X102693072Y-85430000D01*
X102680812Y-85305518D01*
X102644502Y-85185820D01*
X102585537Y-85075506D01*
X102506185Y-84978815D01*
X102409494Y-84899463D01*
X102299180Y-84840498D01*
X102179482Y-84804188D01*
X102055000Y-84791928D01*
X101490750Y-84795000D01*
X101332000Y-84953750D01*
X101078000Y-84953750D01*
X100919250Y-84795000D01*
X100355000Y-84791928D01*
X100230518Y-84804188D01*
X100110820Y-84840498D01*
X100000506Y-84899463D01*
X99903815Y-84978815D01*
X99824463Y-85075506D01*
X99765498Y-85185820D01*
X99729188Y-85305518D01*
X99716928Y-85430000D01*
X97505000Y-85430000D01*
X97505000Y-82890000D01*
X120036928Y-82890000D01*
X120036928Y-84590000D01*
X120049188Y-84714482D01*
X120085498Y-84834180D01*
X120144463Y-84944494D01*
X120223815Y-85041185D01*
X120320506Y-85120537D01*
X120430820Y-85179502D01*
X120550518Y-85215812D01*
X120675000Y-85228072D01*
X122375000Y-85228072D01*
X122499482Y-85215812D01*
X122619180Y-85179502D01*
X122729494Y-85120537D01*
X122826185Y-85041185D01*
X122905537Y-84944494D01*
X122964502Y-84834180D01*
X123000812Y-84714482D01*
X123013072Y-84590000D01*
X123013072Y-82890000D01*
X158136928Y-82890000D01*
X158136928Y-84590000D01*
X158149188Y-84714482D01*
X158185498Y-84834180D01*
X158244463Y-84944494D01*
X158323815Y-85041185D01*
X158420506Y-85120537D01*
X158530820Y-85179502D01*
X158650518Y-85215812D01*
X158775000Y-85228072D01*
X160475000Y-85228072D01*
X160599482Y-85215812D01*
X160719180Y-85179502D01*
X160829494Y-85120537D01*
X160926185Y-85041185D01*
X161005537Y-84944494D01*
X161064502Y-84834180D01*
X161100812Y-84714482D01*
X161113072Y-84590000D01*
X161113072Y-82890000D01*
X161100812Y-82765518D01*
X161064502Y-82645820D01*
X161005537Y-82535506D01*
X160926185Y-82438815D01*
X160829494Y-82359463D01*
X160719180Y-82300498D01*
X160646620Y-82278487D01*
X160778475Y-82146632D01*
X160940990Y-81903411D01*
X161052932Y-81633158D01*
X161091353Y-81440000D01*
X180946928Y-81440000D01*
X180959188Y-81564482D01*
X180995498Y-81684180D01*
X181054463Y-81794494D01*
X181133815Y-81891185D01*
X181230506Y-81970537D01*
X181340820Y-82029502D01*
X181460518Y-82065812D01*
X181585000Y-82078072D01*
X183839250Y-82075000D01*
X183998000Y-81916250D01*
X183998000Y-80817000D01*
X181108750Y-80817000D01*
X180950000Y-80975750D01*
X180946928Y-81440000D01*
X161091353Y-81440000D01*
X161110000Y-81346260D01*
X161110000Y-81053740D01*
X161052932Y-80766842D01*
X160940990Y-80496589D01*
X160778475Y-80253368D01*
X160571632Y-80046525D01*
X160412207Y-79940000D01*
X180946928Y-79940000D01*
X180950000Y-80404250D01*
X181108750Y-80563000D01*
X183998000Y-80563000D01*
X183998000Y-79463750D01*
X183839250Y-79305000D01*
X181585000Y-79301928D01*
X181460518Y-79314188D01*
X181340820Y-79350498D01*
X181230506Y-79409463D01*
X181133815Y-79488815D01*
X181054463Y-79585506D01*
X180995498Y-79695820D01*
X180959188Y-79815518D01*
X180946928Y-79940000D01*
X160412207Y-79940000D01*
X160397240Y-79930000D01*
X160571632Y-79813475D01*
X160778475Y-79606632D01*
X160940990Y-79363411D01*
X161052932Y-79093158D01*
X161110000Y-78806260D01*
X161110000Y-78513740D01*
X161052932Y-78226842D01*
X160940990Y-77956589D01*
X160778475Y-77713368D01*
X160571632Y-77506525D01*
X160328411Y-77344010D01*
X160058158Y-77232068D01*
X159771260Y-77175000D01*
X159478740Y-77175000D01*
X159191842Y-77232068D01*
X158921589Y-77344010D01*
X158678368Y-77506525D01*
X158471525Y-77713368D01*
X158309010Y-77956589D01*
X158197068Y-78226842D01*
X158140000Y-78513740D01*
X158140000Y-78806260D01*
X158197068Y-79093158D01*
X158309010Y-79363411D01*
X158471525Y-79606632D01*
X158678368Y-79813475D01*
X158852760Y-79930000D01*
X158678368Y-80046525D01*
X158471525Y-80253368D01*
X158309010Y-80496589D01*
X158197068Y-80766842D01*
X158140000Y-81053740D01*
X158140000Y-81346260D01*
X158197068Y-81633158D01*
X158309010Y-81903411D01*
X158471525Y-82146632D01*
X158603380Y-82278487D01*
X158530820Y-82300498D01*
X158420506Y-82359463D01*
X158323815Y-82438815D01*
X158244463Y-82535506D01*
X158185498Y-82645820D01*
X158149188Y-82765518D01*
X158136928Y-82890000D01*
X123013072Y-82890000D01*
X123000812Y-82765518D01*
X122964502Y-82645820D01*
X122905537Y-82535506D01*
X122826185Y-82438815D01*
X122729494Y-82359463D01*
X122619180Y-82300498D01*
X122546620Y-82278487D01*
X122678475Y-82146632D01*
X122840990Y-81903411D01*
X122952932Y-81633158D01*
X123010000Y-81346260D01*
X123010000Y-81053740D01*
X122952932Y-80766842D01*
X122840990Y-80496589D01*
X122678475Y-80253368D01*
X122471632Y-80046525D01*
X122297240Y-79930000D01*
X122471632Y-79813475D01*
X122678475Y-79606632D01*
X122840990Y-79363411D01*
X122952932Y-79093158D01*
X123010000Y-78806260D01*
X123010000Y-78513740D01*
X122952932Y-78226842D01*
X122840990Y-77956589D01*
X122678475Y-77713368D01*
X122471632Y-77506525D01*
X122228411Y-77344010D01*
X121958158Y-77232068D01*
X121671260Y-77175000D01*
X121378740Y-77175000D01*
X121091842Y-77232068D01*
X120821589Y-77344010D01*
X120578368Y-77506525D01*
X120371525Y-77713368D01*
X120209010Y-77956589D01*
X120097068Y-78226842D01*
X120040000Y-78513740D01*
X120040000Y-78806260D01*
X120097068Y-79093158D01*
X120209010Y-79363411D01*
X120371525Y-79606632D01*
X120578368Y-79813475D01*
X120752760Y-79930000D01*
X120578368Y-80046525D01*
X120371525Y-80253368D01*
X120209010Y-80496589D01*
X120097068Y-80766842D01*
X120040000Y-81053740D01*
X120040000Y-81346260D01*
X120097068Y-81633158D01*
X120209010Y-81903411D01*
X120371525Y-82146632D01*
X120503380Y-82278487D01*
X120430820Y-82300498D01*
X120320506Y-82359463D01*
X120223815Y-82438815D01*
X120144463Y-82535506D01*
X120085498Y-82645820D01*
X120049188Y-82765518D01*
X120036928Y-82890000D01*
X97505000Y-82890000D01*
X97505000Y-82077459D01*
X99309250Y-82075000D01*
X99468000Y-81916250D01*
X99468000Y-80817000D01*
X99722000Y-80817000D01*
X99722000Y-81916250D01*
X99880750Y-82075000D01*
X102135000Y-82078072D01*
X102259482Y-82065812D01*
X102311607Y-82050000D01*
X104796928Y-82050000D01*
X104809188Y-82174482D01*
X104845498Y-82294180D01*
X104904463Y-82404494D01*
X104983815Y-82501185D01*
X105080506Y-82580537D01*
X105190820Y-82639502D01*
X105310518Y-82675812D01*
X105435000Y-82688072D01*
X105999250Y-82685000D01*
X106158000Y-82526250D01*
X106158000Y-81327000D01*
X106412000Y-81327000D01*
X106412000Y-82526250D01*
X106570750Y-82685000D01*
X107135000Y-82688072D01*
X107259482Y-82675812D01*
X107379180Y-82639502D01*
X107489494Y-82580537D01*
X107586185Y-82501185D01*
X107665537Y-82404494D01*
X107724502Y-82294180D01*
X107760812Y-82174482D01*
X107773072Y-82050000D01*
X107770000Y-81485750D01*
X107611250Y-81327000D01*
X106412000Y-81327000D01*
X106158000Y-81327000D01*
X104958750Y-81327000D01*
X104800000Y-81485750D01*
X104796928Y-82050000D01*
X102311607Y-82050000D01*
X102379180Y-82029502D01*
X102489494Y-81970537D01*
X102586185Y-81891185D01*
X102665537Y-81794494D01*
X102724502Y-81684180D01*
X102760812Y-81564482D01*
X102773072Y-81440000D01*
X102770000Y-80975750D01*
X102611250Y-80817000D01*
X99722000Y-80817000D01*
X99468000Y-80817000D01*
X99448000Y-80817000D01*
X99448000Y-80563000D01*
X99468000Y-80563000D01*
X99468000Y-79463750D01*
X99722000Y-79463750D01*
X99722000Y-80563000D01*
X102611250Y-80563000D01*
X102770000Y-80404250D01*
X102770358Y-80350000D01*
X104796928Y-80350000D01*
X104800000Y-80914250D01*
X104958750Y-81073000D01*
X106158000Y-81073000D01*
X106158000Y-81053000D01*
X106412000Y-81053000D01*
X106412000Y-81073000D01*
X107611250Y-81073000D01*
X107770000Y-80914250D01*
X107773072Y-80350000D01*
X107760812Y-80225518D01*
X107724502Y-80105820D01*
X107665537Y-79995506D01*
X107586185Y-79898815D01*
X107489494Y-79819463D01*
X107379180Y-79760498D01*
X107306620Y-79738487D01*
X107438475Y-79606632D01*
X107600990Y-79363411D01*
X107712932Y-79093158D01*
X107770000Y-78806260D01*
X107770000Y-78513740D01*
X107712932Y-78226842D01*
X107600990Y-77956589D01*
X107438475Y-77713368D01*
X107231632Y-77506525D01*
X106988411Y-77344010D01*
X106718158Y-77232068D01*
X106431260Y-77175000D01*
X106138740Y-77175000D01*
X105851842Y-77232068D01*
X105581589Y-77344010D01*
X105338368Y-77506525D01*
X105131525Y-77713368D01*
X104969010Y-77956589D01*
X104857068Y-78226842D01*
X104800000Y-78513740D01*
X104800000Y-78806260D01*
X104857068Y-79093158D01*
X104969010Y-79363411D01*
X105131525Y-79606632D01*
X105263380Y-79738487D01*
X105190820Y-79760498D01*
X105080506Y-79819463D01*
X104983815Y-79898815D01*
X104904463Y-79995506D01*
X104845498Y-80105820D01*
X104809188Y-80225518D01*
X104796928Y-80350000D01*
X102770358Y-80350000D01*
X102773072Y-79940000D01*
X102760812Y-79815518D01*
X102724502Y-79695820D01*
X102665537Y-79585506D01*
X102586185Y-79488815D01*
X102489494Y-79409463D01*
X102379180Y-79350498D01*
X102259482Y-79314188D01*
X102135000Y-79301928D01*
X99880750Y-79305000D01*
X99722000Y-79463750D01*
X99468000Y-79463750D01*
X99309250Y-79305000D01*
X97505000Y-79302541D01*
X97505000Y-73577459D01*
X99309250Y-73575000D01*
X99468000Y-73416250D01*
X99468000Y-72317000D01*
X99722000Y-72317000D01*
X99722000Y-73416250D01*
X99880750Y-73575000D01*
X102135000Y-73578072D01*
X102259482Y-73565812D01*
X102379180Y-73529502D01*
X102489494Y-73470537D01*
X102586185Y-73391185D01*
X102665537Y-73294494D01*
X102724502Y-73184180D01*
X102760812Y-73064482D01*
X102773072Y-72940000D01*
X180946928Y-72940000D01*
X180959188Y-73064482D01*
X180995498Y-73184180D01*
X181054463Y-73294494D01*
X181133815Y-73391185D01*
X181230506Y-73470537D01*
X181340820Y-73529502D01*
X181460518Y-73565812D01*
X181585000Y-73578072D01*
X183839250Y-73575000D01*
X183998000Y-73416250D01*
X183998000Y-72317000D01*
X181108750Y-72317000D01*
X180950000Y-72475750D01*
X180946928Y-72940000D01*
X102773072Y-72940000D01*
X102770000Y-72475750D01*
X102611250Y-72317000D01*
X99722000Y-72317000D01*
X99468000Y-72317000D01*
X99448000Y-72317000D01*
X99448000Y-72063000D01*
X99468000Y-72063000D01*
X99468000Y-70963750D01*
X99722000Y-70963750D01*
X99722000Y-72063000D01*
X102611250Y-72063000D01*
X102770000Y-71904250D01*
X102773072Y-71440000D01*
X102760812Y-71315518D01*
X102724502Y-71195820D01*
X102665537Y-71085506D01*
X102586185Y-70988815D01*
X102489494Y-70909463D01*
X102379180Y-70850498D01*
X102259482Y-70814188D01*
X102135000Y-70801928D01*
X99880750Y-70805000D01*
X99722000Y-70963750D01*
X99468000Y-70963750D01*
X99309250Y-70805000D01*
X97505000Y-70802541D01*
X97505000Y-70190000D01*
X160676928Y-70190000D01*
X160676928Y-71890000D01*
X160689188Y-72014482D01*
X160725498Y-72134180D01*
X160784463Y-72244494D01*
X160863815Y-72341185D01*
X160960506Y-72420537D01*
X161070820Y-72479502D01*
X161190518Y-72515812D01*
X161315000Y-72528072D01*
X163015000Y-72528072D01*
X163139482Y-72515812D01*
X163259180Y-72479502D01*
X163369494Y-72420537D01*
X163466185Y-72341185D01*
X163545537Y-72244494D01*
X163604502Y-72134180D01*
X163626513Y-72061620D01*
X163758368Y-72193475D01*
X164001589Y-72355990D01*
X164271842Y-72467932D01*
X164558740Y-72525000D01*
X164851260Y-72525000D01*
X165138158Y-72467932D01*
X165408411Y-72355990D01*
X165651632Y-72193475D01*
X165858475Y-71986632D01*
X165980195Y-71804466D01*
X166049822Y-71921355D01*
X166244731Y-72137588D01*
X166478080Y-72311641D01*
X166740901Y-72436825D01*
X166888110Y-72481476D01*
X167118000Y-72360155D01*
X167118000Y-71167000D01*
X167372000Y-71167000D01*
X167372000Y-72360155D01*
X167601890Y-72481476D01*
X167749099Y-72436825D01*
X168011920Y-72311641D01*
X168245269Y-72137588D01*
X168440178Y-71921355D01*
X168589157Y-71671252D01*
X168671188Y-71440000D01*
X180946928Y-71440000D01*
X180950000Y-71904250D01*
X181108750Y-72063000D01*
X183998000Y-72063000D01*
X183998000Y-70963750D01*
X183839250Y-70805000D01*
X181585000Y-70801928D01*
X181460518Y-70814188D01*
X181340820Y-70850498D01*
X181230506Y-70909463D01*
X181133815Y-70988815D01*
X181054463Y-71085506D01*
X180995498Y-71195820D01*
X180959188Y-71315518D01*
X180946928Y-71440000D01*
X168671188Y-71440000D01*
X168686481Y-71396891D01*
X168565814Y-71167000D01*
X167372000Y-71167000D01*
X167118000Y-71167000D01*
X167098000Y-71167000D01*
X167098000Y-70913000D01*
X167118000Y-70913000D01*
X167118000Y-69719845D01*
X167372000Y-69719845D01*
X167372000Y-70913000D01*
X168565814Y-70913000D01*
X168686481Y-70683109D01*
X168589157Y-70408748D01*
X168440178Y-70158645D01*
X168245269Y-69942412D01*
X168011920Y-69768359D01*
X167749099Y-69643175D01*
X167601890Y-69598524D01*
X167372000Y-69719845D01*
X167118000Y-69719845D01*
X166888110Y-69598524D01*
X166740901Y-69643175D01*
X166478080Y-69768359D01*
X166244731Y-69942412D01*
X166049822Y-70158645D01*
X165980195Y-70275534D01*
X165858475Y-70093368D01*
X165651632Y-69886525D01*
X165408411Y-69724010D01*
X165138158Y-69612068D01*
X164851260Y-69555000D01*
X164558740Y-69555000D01*
X164271842Y-69612068D01*
X164001589Y-69724010D01*
X163758368Y-69886525D01*
X163626513Y-70018380D01*
X163604502Y-69945820D01*
X163545537Y-69835506D01*
X163466185Y-69738815D01*
X163369494Y-69659463D01*
X163259180Y-69600498D01*
X163139482Y-69564188D01*
X163015000Y-69551928D01*
X161315000Y-69551928D01*
X161190518Y-69564188D01*
X161070820Y-69600498D01*
X160960506Y-69659463D01*
X160863815Y-69738815D01*
X160784463Y-69835506D01*
X160725498Y-69945820D01*
X160689188Y-70065518D01*
X160676928Y-70190000D01*
X97505000Y-70190000D01*
X97505000Y-67100000D01*
X186185000Y-67100000D01*
X186185000Y-70802582D01*
%TA.AperFunction,Conductor*%
D17*
G36*
X186185000Y-70802582D02*
G01*
X184410750Y-70805000D01*
X184252000Y-70963750D01*
X184252000Y-72063000D01*
X184272000Y-72063000D01*
X184272000Y-72317000D01*
X184252000Y-72317000D01*
X184252000Y-73416250D01*
X184410750Y-73575000D01*
X186185000Y-73577418D01*
X186185000Y-79302582D01*
X184410750Y-79305000D01*
X184252000Y-79463750D01*
X184252000Y-80563000D01*
X184272000Y-80563000D01*
X184272000Y-80817000D01*
X184252000Y-80817000D01*
X184252000Y-81916250D01*
X184410750Y-82075000D01*
X186185000Y-82077418D01*
X186185001Y-110802582D01*
X184410750Y-110805000D01*
X184252000Y-110963750D01*
X184252000Y-112063000D01*
X184272000Y-112063000D01*
X184272000Y-112317000D01*
X184252000Y-112317000D01*
X184252000Y-113416250D01*
X184410750Y-113575000D01*
X186185001Y-113577418D01*
X186185001Y-119302582D01*
X184410750Y-119305000D01*
X184252000Y-119463750D01*
X184252000Y-120563000D01*
X184272000Y-120563000D01*
X184272000Y-120817000D01*
X184252000Y-120817000D01*
X184252000Y-121916250D01*
X184410750Y-122075000D01*
X186185001Y-122077418D01*
X186185001Y-125780000D01*
X97505000Y-125780000D01*
X97505000Y-122077459D01*
X99309250Y-122075000D01*
X99468000Y-121916250D01*
X99468000Y-120817000D01*
X99722000Y-120817000D01*
X99722000Y-121916250D01*
X99880750Y-122075000D01*
X102135000Y-122078072D01*
X102259482Y-122065812D01*
X102379180Y-122029502D01*
X102489494Y-121970537D01*
X102586185Y-121891185D01*
X102665537Y-121794494D01*
X102724502Y-121684180D01*
X102760812Y-121564482D01*
X102773072Y-121440000D01*
X180946928Y-121440000D01*
X180959188Y-121564482D01*
X180995498Y-121684180D01*
X181054463Y-121794494D01*
X181133815Y-121891185D01*
X181230506Y-121970537D01*
X181340820Y-122029502D01*
X181460518Y-122065812D01*
X181585000Y-122078072D01*
X183839250Y-122075000D01*
X183998000Y-121916250D01*
X183998000Y-120817000D01*
X181108750Y-120817000D01*
X180950000Y-120975750D01*
X180946928Y-121440000D01*
X102773072Y-121440000D01*
X102770000Y-120975750D01*
X102611250Y-120817000D01*
X99722000Y-120817000D01*
X99468000Y-120817000D01*
X99448000Y-120817000D01*
X99448000Y-120563000D01*
X99468000Y-120563000D01*
X99468000Y-119463750D01*
X99722000Y-119463750D01*
X99722000Y-120563000D01*
X102611250Y-120563000D01*
X102770000Y-120404250D01*
X102773072Y-119940000D01*
X180946928Y-119940000D01*
X180950000Y-120404250D01*
X181108750Y-120563000D01*
X183998000Y-120563000D01*
X183998000Y-119463750D01*
X183839250Y-119305000D01*
X181585000Y-119301928D01*
X181460518Y-119314188D01*
X181340820Y-119350498D01*
X181230506Y-119409463D01*
X181133815Y-119488815D01*
X181054463Y-119585506D01*
X180995498Y-119695820D01*
X180959188Y-119815518D01*
X180946928Y-119940000D01*
X102773072Y-119940000D01*
X102760812Y-119815518D01*
X102724502Y-119695820D01*
X102665537Y-119585506D01*
X102586185Y-119488815D01*
X102489494Y-119409463D01*
X102379180Y-119350498D01*
X102259482Y-119314188D01*
X102135000Y-119301928D01*
X99880750Y-119305000D01*
X99722000Y-119463750D01*
X99468000Y-119463750D01*
X99309250Y-119305000D01*
X97505000Y-119302541D01*
X97505000Y-113577459D01*
X99309250Y-113575000D01*
X99468000Y-113416250D01*
X99468000Y-112317000D01*
X99722000Y-112317000D01*
X99722000Y-113416250D01*
X99880750Y-113575000D01*
X102135000Y-113578072D01*
X102259482Y-113565812D01*
X102379180Y-113529502D01*
X102489494Y-113470537D01*
X102586185Y-113391185D01*
X102665537Y-113294494D01*
X102724502Y-113184180D01*
X102760812Y-113064482D01*
X102773072Y-112940000D01*
X102770359Y-112530000D01*
X104796928Y-112530000D01*
X104809188Y-112654482D01*
X104845498Y-112774180D01*
X104904463Y-112884494D01*
X104983815Y-112981185D01*
X105080506Y-113060537D01*
X105190820Y-113119502D01*
X105263380Y-113141513D01*
X105131525Y-113273368D01*
X104969010Y-113516589D01*
X104857068Y-113786842D01*
X104800000Y-114073740D01*
X104800000Y-114366260D01*
X104857068Y-114653158D01*
X104969010Y-114923411D01*
X105131525Y-115166632D01*
X105338368Y-115373475D01*
X105581589Y-115535990D01*
X105851842Y-115647932D01*
X106138740Y-115705000D01*
X106431260Y-115705000D01*
X106718158Y-115647932D01*
X106988411Y-115535990D01*
X107231632Y-115373475D01*
X107438475Y-115166632D01*
X107600990Y-114923411D01*
X107712932Y-114653158D01*
X107770000Y-114366260D01*
X107770000Y-114073740D01*
X107712932Y-113786842D01*
X107600990Y-113516589D01*
X107438475Y-113273368D01*
X107306620Y-113141513D01*
X107379180Y-113119502D01*
X107489494Y-113060537D01*
X107586185Y-112981185D01*
X107665537Y-112884494D01*
X107724502Y-112774180D01*
X107760812Y-112654482D01*
X107773072Y-112530000D01*
X107770000Y-111965750D01*
X107611250Y-111807000D01*
X106412000Y-111807000D01*
X106412000Y-111827000D01*
X106158000Y-111827000D01*
X106158000Y-111807000D01*
X104958750Y-111807000D01*
X104800000Y-111965750D01*
X104796928Y-112530000D01*
X102770359Y-112530000D01*
X102770000Y-112475750D01*
X102611250Y-112317000D01*
X99722000Y-112317000D01*
X99468000Y-112317000D01*
X99448000Y-112317000D01*
X99448000Y-112063000D01*
X99468000Y-112063000D01*
X99468000Y-110963750D01*
X99722000Y-110963750D01*
X99722000Y-112063000D01*
X102611250Y-112063000D01*
X102770000Y-111904250D01*
X102773072Y-111440000D01*
X102760812Y-111315518D01*
X102724502Y-111195820D01*
X102665537Y-111085506D01*
X102586185Y-110988815D01*
X102489494Y-110909463D01*
X102379180Y-110850498D01*
X102311608Y-110830000D01*
X104796928Y-110830000D01*
X104800000Y-111394250D01*
X104958750Y-111553000D01*
X106158000Y-111553000D01*
X106158000Y-110353750D01*
X106412000Y-110353750D01*
X106412000Y-111553000D01*
X107611250Y-111553000D01*
X107770000Y-111394250D01*
X107773072Y-110830000D01*
X107760812Y-110705518D01*
X107724502Y-110585820D01*
X107665537Y-110475506D01*
X107586185Y-110378815D01*
X107489494Y-110299463D01*
X107379180Y-110240498D01*
X107259482Y-110204188D01*
X107135000Y-110191928D01*
X106570750Y-110195000D01*
X106412000Y-110353750D01*
X106158000Y-110353750D01*
X105999250Y-110195000D01*
X105435000Y-110191928D01*
X105310518Y-110204188D01*
X105190820Y-110240498D01*
X105080506Y-110299463D01*
X104983815Y-110378815D01*
X104904463Y-110475506D01*
X104845498Y-110585820D01*
X104809188Y-110705518D01*
X104796928Y-110830000D01*
X102311608Y-110830000D01*
X102259482Y-110814188D01*
X102135000Y-110801928D01*
X99880750Y-110805000D01*
X99722000Y-110963750D01*
X99468000Y-110963750D01*
X99309250Y-110805000D01*
X97505000Y-110802541D01*
X97505000Y-108290000D01*
X120036928Y-108290000D01*
X120036928Y-109990000D01*
X120049188Y-110114482D01*
X120085498Y-110234180D01*
X120144463Y-110344494D01*
X120223815Y-110441185D01*
X120320506Y-110520537D01*
X120430820Y-110579502D01*
X120503380Y-110601513D01*
X120371525Y-110733368D01*
X120209010Y-110976589D01*
X120097068Y-111246842D01*
X120040000Y-111533740D01*
X120040000Y-111826260D01*
X120097068Y-112113158D01*
X120209010Y-112383411D01*
X120371525Y-112626632D01*
X120578368Y-112833475D01*
X120752760Y-112950000D01*
X120578368Y-113066525D01*
X120371525Y-113273368D01*
X120209010Y-113516589D01*
X120097068Y-113786842D01*
X120040000Y-114073740D01*
X120040000Y-114366260D01*
X120097068Y-114653158D01*
X120209010Y-114923411D01*
X120371525Y-115166632D01*
X120578368Y-115373475D01*
X120821589Y-115535990D01*
X121091842Y-115647932D01*
X121378740Y-115705000D01*
X121671260Y-115705000D01*
X121958158Y-115647932D01*
X122228411Y-115535990D01*
X122471632Y-115373475D01*
X122678475Y-115166632D01*
X122840990Y-114923411D01*
X122952932Y-114653158D01*
X123010000Y-114366260D01*
X123010000Y-114073740D01*
X122952932Y-113786842D01*
X122840990Y-113516589D01*
X122678475Y-113273368D01*
X122471632Y-113066525D01*
X122297240Y-112950000D01*
X122471632Y-112833475D01*
X122678475Y-112626632D01*
X122840990Y-112383411D01*
X122952932Y-112113158D01*
X123010000Y-111826260D01*
X123010000Y-111533740D01*
X122952932Y-111246842D01*
X122840990Y-110976589D01*
X122678475Y-110733368D01*
X122546620Y-110601513D01*
X122619180Y-110579502D01*
X122729494Y-110520537D01*
X122826185Y-110441185D01*
X122905537Y-110344494D01*
X122964502Y-110234180D01*
X123000812Y-110114482D01*
X123013072Y-109990000D01*
X123013072Y-108290000D01*
X158136928Y-108290000D01*
X158136928Y-109990000D01*
X158149188Y-110114482D01*
X158185498Y-110234180D01*
X158244463Y-110344494D01*
X158323815Y-110441185D01*
X158420506Y-110520537D01*
X158530820Y-110579502D01*
X158603380Y-110601513D01*
X158471525Y-110733368D01*
X158309010Y-110976589D01*
X158197068Y-111246842D01*
X158140000Y-111533740D01*
X158140000Y-111826260D01*
X158197068Y-112113158D01*
X158309010Y-112383411D01*
X158471525Y-112626632D01*
X158678368Y-112833475D01*
X158852760Y-112950000D01*
X158678368Y-113066525D01*
X158471525Y-113273368D01*
X158309010Y-113516589D01*
X158197068Y-113786842D01*
X158140000Y-114073740D01*
X158140000Y-114366260D01*
X158197068Y-114653158D01*
X158309010Y-114923411D01*
X158471525Y-115166632D01*
X158678368Y-115373475D01*
X158921589Y-115535990D01*
X159191842Y-115647932D01*
X159478740Y-115705000D01*
X159771260Y-115705000D01*
X160058158Y-115647932D01*
X160328411Y-115535990D01*
X160571632Y-115373475D01*
X160778475Y-115166632D01*
X160940990Y-114923411D01*
X161052932Y-114653158D01*
X161110000Y-114366260D01*
X161110000Y-114073740D01*
X161052932Y-113786842D01*
X160940990Y-113516589D01*
X160778475Y-113273368D01*
X160571632Y-113066525D01*
X160397240Y-112950000D01*
X160412206Y-112940000D01*
X180946928Y-112940000D01*
X180959188Y-113064482D01*
X180995498Y-113184180D01*
X181054463Y-113294494D01*
X181133815Y-113391185D01*
X181230506Y-113470537D01*
X181340820Y-113529502D01*
X181460518Y-113565812D01*
X181585000Y-113578072D01*
X183839250Y-113575000D01*
X183998000Y-113416250D01*
X183998000Y-112317000D01*
X181108750Y-112317000D01*
X180950000Y-112475750D01*
X180946928Y-112940000D01*
X160412206Y-112940000D01*
X160571632Y-112833475D01*
X160778475Y-112626632D01*
X160940990Y-112383411D01*
X161052932Y-112113158D01*
X161110000Y-111826260D01*
X161110000Y-111533740D01*
X161091354Y-111440000D01*
X180946928Y-111440000D01*
X180950000Y-111904250D01*
X181108750Y-112063000D01*
X183998000Y-112063000D01*
X183998000Y-110963750D01*
X183839250Y-110805000D01*
X181585000Y-110801928D01*
X181460518Y-110814188D01*
X181340820Y-110850498D01*
X181230506Y-110909463D01*
X181133815Y-110988815D01*
X181054463Y-111085506D01*
X180995498Y-111195820D01*
X180959188Y-111315518D01*
X180946928Y-111440000D01*
X161091354Y-111440000D01*
X161052932Y-111246842D01*
X160940990Y-110976589D01*
X160778475Y-110733368D01*
X160646620Y-110601513D01*
X160719180Y-110579502D01*
X160829494Y-110520537D01*
X160926185Y-110441185D01*
X161005537Y-110344494D01*
X161064502Y-110234180D01*
X161100812Y-110114482D01*
X161113072Y-109990000D01*
X161113072Y-108290000D01*
X161100812Y-108165518D01*
X161064502Y-108045820D01*
X161005537Y-107935506D01*
X160926185Y-107838815D01*
X160829494Y-107759463D01*
X160719180Y-107700498D01*
X160599482Y-107664188D01*
X160475000Y-107651928D01*
X158775000Y-107651928D01*
X158650518Y-107664188D01*
X158530820Y-107700498D01*
X158420506Y-107759463D01*
X158323815Y-107838815D01*
X158244463Y-107935506D01*
X158185498Y-108045820D01*
X158149188Y-108165518D01*
X158136928Y-108290000D01*
X123013072Y-108290000D01*
X123000812Y-108165518D01*
X122964502Y-108045820D01*
X122905537Y-107935506D01*
X122826185Y-107838815D01*
X122729494Y-107759463D01*
X122619180Y-107700498D01*
X122499482Y-107664188D01*
X122375000Y-107651928D01*
X120675000Y-107651928D01*
X120550518Y-107664188D01*
X120430820Y-107700498D01*
X120320506Y-107759463D01*
X120223815Y-107838815D01*
X120144463Y-107935506D01*
X120085498Y-108045820D01*
X120049188Y-108165518D01*
X120036928Y-108290000D01*
X97505000Y-108290000D01*
X97505000Y-105372656D01*
X97514379Y-105382035D01*
X97810012Y-105579571D01*
X98138501Y-105715635D01*
X98487223Y-105785000D01*
X98842777Y-105785000D01*
X99191499Y-105715635D01*
X99519988Y-105579571D01*
X99815621Y-105382035D01*
X100067035Y-105130621D01*
X100264571Y-104834988D01*
X100400635Y-104506499D01*
X100470000Y-104157777D01*
X100470000Y-103802223D01*
X100400635Y-103453501D01*
X100264571Y-103125012D01*
X100173067Y-102988067D01*
X100310012Y-103079571D01*
X100638501Y-103215635D01*
X100987223Y-103285000D01*
X101342777Y-103285000D01*
X101691499Y-103215635D01*
X102019988Y-103079571D01*
X102315621Y-102882035D01*
X102567035Y-102630621D01*
X102764571Y-102334988D01*
X102900635Y-102006499D01*
X102970000Y-101657777D01*
X102970000Y-101302223D01*
X102900635Y-100953501D01*
X102856899Y-100847911D01*
X104440000Y-100847911D01*
X104440000Y-101032089D01*
X104475932Y-101212729D01*
X104546414Y-101382889D01*
X104648738Y-101536028D01*
X104778972Y-101666262D01*
X104932111Y-101768586D01*
X105102271Y-101839068D01*
X105282911Y-101875000D01*
X105467089Y-101875000D01*
X105647729Y-101839068D01*
X105817889Y-101768586D01*
X105971028Y-101666262D01*
X106101262Y-101536028D01*
X106203586Y-101382889D01*
X106217655Y-101348923D01*
X107281532Y-100285047D01*
X107281537Y-100285041D01*
X107283923Y-100282655D01*
X107317889Y-100268586D01*
X107471028Y-100166262D01*
X107601262Y-100036028D01*
X107703586Y-99882889D01*
X107774068Y-99712729D01*
X107810000Y-99532089D01*
X107810000Y-99347911D01*
X117940000Y-99347911D01*
X117940000Y-99532089D01*
X117975932Y-99712729D01*
X117990000Y-99746693D01*
X117990001Y-101133306D01*
X117975932Y-101167271D01*
X117940000Y-101347911D01*
X117940000Y-101532089D01*
X117975932Y-101712729D01*
X118046414Y-101882889D01*
X118148738Y-102036028D01*
X118278972Y-102166262D01*
X118432111Y-102268586D01*
X118602271Y-102339068D01*
X118782911Y-102375000D01*
X118967089Y-102375000D01*
X119147729Y-102339068D01*
X119317889Y-102268586D01*
X119375000Y-102230426D01*
X119432111Y-102268586D01*
X119602271Y-102339068D01*
X119782911Y-102375000D01*
X119967089Y-102375000D01*
X120147729Y-102339068D01*
X120256254Y-102294116D01*
X120371525Y-102466632D01*
X120503380Y-102598487D01*
X120430820Y-102620498D01*
X120320506Y-102679463D01*
X120223815Y-102758815D01*
X120144463Y-102855506D01*
X120085498Y-102965820D01*
X120049188Y-103085518D01*
X120036928Y-103210000D01*
X120036928Y-104910000D01*
X120049188Y-105034482D01*
X120085498Y-105154180D01*
X120144463Y-105264494D01*
X120223815Y-105361185D01*
X120320506Y-105440537D01*
X120430820Y-105499502D01*
X120550518Y-105535812D01*
X120675000Y-105548072D01*
X122375000Y-105548072D01*
X122499482Y-105535812D01*
X122619180Y-105499502D01*
X122729494Y-105440537D01*
X122826185Y-105361185D01*
X122905537Y-105264494D01*
X122964502Y-105154180D01*
X123000812Y-105034482D01*
X123013072Y-104910000D01*
X123013072Y-103210000D01*
X158136928Y-103210000D01*
X158136928Y-104910000D01*
X158149188Y-105034482D01*
X158185498Y-105154180D01*
X158244463Y-105264494D01*
X158323815Y-105361185D01*
X158420506Y-105440537D01*
X158530820Y-105499502D01*
X158650518Y-105535812D01*
X158775000Y-105548072D01*
X160475000Y-105548072D01*
X160599482Y-105535812D01*
X160719180Y-105499502D01*
X160829494Y-105440537D01*
X160926185Y-105361185D01*
X161005537Y-105264494D01*
X161064502Y-105154180D01*
X161100812Y-105034482D01*
X161113072Y-104910000D01*
X161113072Y-104416890D01*
X175963524Y-104416890D01*
X176008175Y-104564099D01*
X176133359Y-104826920D01*
X176307412Y-105060269D01*
X176523645Y-105255178D01*
X176773748Y-105404157D01*
X177048109Y-105501481D01*
X177278000Y-105380814D01*
X177278000Y-104187000D01*
X177532000Y-104187000D01*
X177532000Y-105380814D01*
X177761891Y-105501481D01*
X178036252Y-105404157D01*
X178286355Y-105255178D01*
X178502588Y-105060269D01*
X178676641Y-104826920D01*
X178801825Y-104564099D01*
X178846476Y-104416890D01*
X178725155Y-104187000D01*
X177532000Y-104187000D01*
X177278000Y-104187000D01*
X176084845Y-104187000D01*
X175963524Y-104416890D01*
X161113072Y-104416890D01*
X161113072Y-103210000D01*
X161100812Y-103085518D01*
X161064502Y-102965820D01*
X161005537Y-102855506D01*
X160926185Y-102758815D01*
X160829494Y-102679463D01*
X160719180Y-102620498D01*
X160646620Y-102598487D01*
X160778475Y-102466632D01*
X160940990Y-102223411D01*
X161052932Y-101953158D01*
X161110000Y-101666260D01*
X161110000Y-101373740D01*
X161052932Y-101086842D01*
X160940990Y-100816589D01*
X160778475Y-100573368D01*
X160571632Y-100366525D01*
X160397240Y-100250000D01*
X160571632Y-100133475D01*
X160778475Y-99926632D01*
X160940990Y-99683411D01*
X161052932Y-99413158D01*
X161110000Y-99126260D01*
X161110000Y-98833740D01*
X161052932Y-98546842D01*
X160940990Y-98276589D01*
X160778475Y-98033368D01*
X160571632Y-97826525D01*
X160328411Y-97664010D01*
X160058158Y-97552068D01*
X159771260Y-97495000D01*
X159478740Y-97495000D01*
X159191842Y-97552068D01*
X158921589Y-97664010D01*
X158678368Y-97826525D01*
X158471525Y-98033368D01*
X158309010Y-98276589D01*
X158197068Y-98546842D01*
X158140000Y-98833740D01*
X158140000Y-99126260D01*
X158197068Y-99413158D01*
X158309010Y-99683411D01*
X158471525Y-99926632D01*
X158678368Y-100133475D01*
X158852760Y-100250000D01*
X158678368Y-100366525D01*
X158471525Y-100573368D01*
X158309010Y-100816589D01*
X158197068Y-101086842D01*
X158140000Y-101373740D01*
X158140000Y-101666260D01*
X158197068Y-101953158D01*
X158309010Y-102223411D01*
X158471525Y-102466632D01*
X158603380Y-102598487D01*
X158530820Y-102620498D01*
X158420506Y-102679463D01*
X158323815Y-102758815D01*
X158244463Y-102855506D01*
X158185498Y-102965820D01*
X158149188Y-103085518D01*
X158136928Y-103210000D01*
X123013072Y-103210000D01*
X123000812Y-103085518D01*
X122964502Y-102965820D01*
X122905537Y-102855506D01*
X122826185Y-102758815D01*
X122729494Y-102679463D01*
X122619180Y-102620498D01*
X122546620Y-102598487D01*
X122678475Y-102466632D01*
X122840990Y-102223411D01*
X122952932Y-101953158D01*
X123010000Y-101666260D01*
X123010000Y-101373740D01*
X122952932Y-101086842D01*
X122840990Y-100816589D01*
X122678475Y-100573368D01*
X122471632Y-100366525D01*
X122297240Y-100250000D01*
X122471632Y-100133475D01*
X122678475Y-99926632D01*
X122840990Y-99683411D01*
X122952932Y-99413158D01*
X123010000Y-99126260D01*
X123010000Y-98833740D01*
X122952932Y-98546842D01*
X122840990Y-98276589D01*
X122678475Y-98033368D01*
X122471632Y-97826525D01*
X122228411Y-97664010D01*
X121958158Y-97552068D01*
X121671260Y-97495000D01*
X121378740Y-97495000D01*
X121091842Y-97552068D01*
X120821589Y-97664010D01*
X120578368Y-97826525D01*
X120371525Y-98033368D01*
X120209010Y-98276589D01*
X120103186Y-98532072D01*
X119967089Y-98505000D01*
X119782911Y-98505000D01*
X119602271Y-98540932D01*
X119432111Y-98611414D01*
X119375000Y-98649574D01*
X119317889Y-98611414D01*
X119147729Y-98540932D01*
X118967089Y-98505000D01*
X118782911Y-98505000D01*
X118602271Y-98540932D01*
X118432111Y-98611414D01*
X118278972Y-98713738D01*
X118148738Y-98843972D01*
X118046414Y-98997111D01*
X117975932Y-99167271D01*
X117940000Y-99347911D01*
X107810000Y-99347911D01*
X107774068Y-99167271D01*
X107703586Y-98997111D01*
X107601262Y-98843972D01*
X107471028Y-98713738D01*
X107317889Y-98611414D01*
X107147729Y-98540932D01*
X106967089Y-98505000D01*
X106782911Y-98505000D01*
X106602271Y-98540932D01*
X106432111Y-98611414D01*
X106278972Y-98713738D01*
X106148738Y-98843972D01*
X106046414Y-98997111D01*
X106032345Y-99031077D01*
X106029959Y-99033463D01*
X106029953Y-99033468D01*
X104966077Y-100097345D01*
X104932111Y-100111414D01*
X104778972Y-100213738D01*
X104648738Y-100343972D01*
X104546414Y-100497111D01*
X104475932Y-100667271D01*
X104440000Y-100847911D01*
X102856899Y-100847911D01*
X102764571Y-100625012D01*
X102567035Y-100329379D01*
X102315621Y-100077965D01*
X102019988Y-99880429D01*
X101691499Y-99744365D01*
X101342777Y-99675000D01*
X100987223Y-99675000D01*
X100638501Y-99744365D01*
X100310012Y-99880429D01*
X100014379Y-100077965D01*
X99978476Y-100113868D01*
X99921604Y-100056996D01*
X100203389Y-99940725D01*
X100361257Y-99622140D01*
X100453938Y-99278878D01*
X100477873Y-98924131D01*
X100432139Y-98571530D01*
X100318495Y-98234627D01*
X100203389Y-98019275D01*
X99921602Y-97903003D01*
X98844605Y-98980000D01*
X98858748Y-98994143D01*
X98679143Y-99173748D01*
X98665000Y-99159605D01*
X98650858Y-99173748D01*
X98471253Y-98994143D01*
X98485395Y-98980000D01*
X98471253Y-98965858D01*
X98650858Y-98786253D01*
X98665000Y-98800395D01*
X99741997Y-97723398D01*
X99625725Y-97441611D01*
X99307140Y-97283743D01*
X98963878Y-97191062D01*
X98609131Y-97167127D01*
X98256530Y-97212861D01*
X97919627Y-97326505D01*
X97704275Y-97441611D01*
X97588004Y-97723396D01*
X97505000Y-97640392D01*
X97505000Y-96347911D01*
X162440000Y-96347911D01*
X162440000Y-96532089D01*
X162475932Y-96712729D01*
X162546414Y-96882889D01*
X162648738Y-97036028D01*
X162778972Y-97166262D01*
X162932111Y-97268586D01*
X163102271Y-97339068D01*
X163282911Y-97375000D01*
X163467089Y-97375000D01*
X163647729Y-97339068D01*
X163681692Y-97325000D01*
X173581531Y-97325000D01*
X173625000Y-97329281D01*
X173668469Y-97325000D01*
X173668477Y-97325000D01*
X173798490Y-97312195D01*
X173965313Y-97261589D01*
X174119059Y-97179411D01*
X174253817Y-97068817D01*
X174281534Y-97035044D01*
X175970050Y-95346529D01*
X176003817Y-95318817D01*
X176114411Y-95184059D01*
X176196589Y-95030313D01*
X176247195Y-94863490D01*
X176249198Y-94843150D01*
X176251525Y-94846632D01*
X176458368Y-95053475D01*
X176632760Y-95170000D01*
X176458368Y-95286525D01*
X176251525Y-95493368D01*
X176089010Y-95736589D01*
X175977068Y-96006842D01*
X175920000Y-96293740D01*
X175920000Y-96586260D01*
X175977068Y-96873158D01*
X176089010Y-97143411D01*
X176251525Y-97386632D01*
X176458368Y-97593475D01*
X176632760Y-97710000D01*
X176458368Y-97826525D01*
X176251525Y-98033368D01*
X176089010Y-98276589D01*
X175977068Y-98546842D01*
X175920000Y-98833740D01*
X175920000Y-99126260D01*
X175977068Y-99413158D01*
X176089010Y-99683411D01*
X176251525Y-99926632D01*
X176458368Y-100133475D01*
X176632760Y-100250000D01*
X176458368Y-100366525D01*
X176251525Y-100573368D01*
X176089010Y-100816589D01*
X175977068Y-101086842D01*
X175920000Y-101373740D01*
X175920000Y-101666260D01*
X175977068Y-101953158D01*
X176089010Y-102223411D01*
X176251525Y-102466632D01*
X176458368Y-102673475D01*
X176640534Y-102795195D01*
X176523645Y-102864822D01*
X176307412Y-103059731D01*
X176133359Y-103293080D01*
X176008175Y-103555901D01*
X175963524Y-103703110D01*
X176084845Y-103933000D01*
X177278000Y-103933000D01*
X177278000Y-103913000D01*
X177532000Y-103913000D01*
X177532000Y-103933000D01*
X178725155Y-103933000D01*
X178846476Y-103703110D01*
X178801825Y-103555901D01*
X178676641Y-103293080D01*
X178502588Y-103059731D01*
X178286355Y-102864822D01*
X178169466Y-102795195D01*
X178351632Y-102673475D01*
X178558475Y-102466632D01*
X178720990Y-102223411D01*
X178832932Y-101953158D01*
X178890000Y-101666260D01*
X178890000Y-101373740D01*
X178832932Y-101086842D01*
X178720990Y-100816589D01*
X178558475Y-100573368D01*
X178351632Y-100366525D01*
X178177240Y-100250000D01*
X178351632Y-100133475D01*
X178558475Y-99926632D01*
X178720990Y-99683411D01*
X178832932Y-99413158D01*
X178890000Y-99126260D01*
X178890000Y-98833740D01*
X178832932Y-98546842D01*
X178720990Y-98276589D01*
X178558475Y-98033368D01*
X178351632Y-97826525D01*
X178177240Y-97710000D01*
X178351632Y-97593475D01*
X178558475Y-97386632D01*
X178720990Y-97143411D01*
X178832932Y-96873158D01*
X178890000Y-96586260D01*
X178890000Y-96293740D01*
X178832932Y-96006842D01*
X178720990Y-95736589D01*
X178558475Y-95493368D01*
X178351632Y-95286525D01*
X178177240Y-95170000D01*
X178351632Y-95053475D01*
X178558475Y-94846632D01*
X178720990Y-94603411D01*
X178832932Y-94333158D01*
X178890000Y-94046260D01*
X178890000Y-93753740D01*
X178832932Y-93466842D01*
X178720990Y-93196589D01*
X178558475Y-92953368D01*
X178351632Y-92746525D01*
X178177240Y-92630000D01*
X178351632Y-92513475D01*
X178558475Y-92306632D01*
X178720990Y-92063411D01*
X178832932Y-91793158D01*
X178890000Y-91506260D01*
X178890000Y-91213740D01*
X178832932Y-90926842D01*
X178720990Y-90656589D01*
X178558475Y-90413368D01*
X178426620Y-90281513D01*
X178499180Y-90259502D01*
X178609494Y-90200537D01*
X178706185Y-90121185D01*
X178785537Y-90024494D01*
X178844502Y-89914180D01*
X178880812Y-89794482D01*
X178893072Y-89670000D01*
X178893072Y-87970000D01*
X178880812Y-87845518D01*
X178844502Y-87725820D01*
X178785537Y-87615506D01*
X178706185Y-87518815D01*
X178609494Y-87439463D01*
X178499180Y-87380498D01*
X178379482Y-87344188D01*
X178255000Y-87331928D01*
X176555000Y-87331928D01*
X176430518Y-87344188D01*
X176310820Y-87380498D01*
X176200506Y-87439463D01*
X176103815Y-87518815D01*
X176024463Y-87615506D01*
X175965498Y-87725820D01*
X175929188Y-87845518D01*
X175916928Y-87970000D01*
X175916928Y-89056493D01*
X174779951Y-90193471D01*
X174746184Y-90221183D01*
X174718471Y-90254951D01*
X174718468Y-90254954D01*
X174635590Y-90355941D01*
X174553412Y-90509687D01*
X174502805Y-90676510D01*
X174485719Y-90850000D01*
X174490001Y-90893479D01*
X174490000Y-94323421D01*
X173258422Y-95555000D01*
X163681692Y-95555000D01*
X163647729Y-95540932D01*
X163467089Y-95505000D01*
X163282911Y-95505000D01*
X163102271Y-95540932D01*
X162932111Y-95611414D01*
X162778972Y-95713738D01*
X162648738Y-95843972D01*
X162546414Y-95997111D01*
X162475932Y-96167271D01*
X162440000Y-96347911D01*
X97505000Y-96347911D01*
X97505000Y-94097911D01*
X117191952Y-94097911D01*
X117191952Y-94282089D01*
X117227884Y-94462729D01*
X117298366Y-94632889D01*
X117400690Y-94786028D01*
X117530924Y-94916262D01*
X117684063Y-95018586D01*
X117854223Y-95089068D01*
X118034863Y-95125000D01*
X118219041Y-95125000D01*
X118399681Y-95089068D01*
X118569841Y-95018586D01*
X118722980Y-94916262D01*
X118853214Y-94786028D01*
X118955538Y-94632889D01*
X118969607Y-94598923D01*
X120095921Y-93472610D01*
X120040000Y-93753740D01*
X120040000Y-94046260D01*
X120097068Y-94333158D01*
X120209010Y-94603411D01*
X120371525Y-94846632D01*
X120578368Y-95053475D01*
X120821589Y-95215990D01*
X121091842Y-95327932D01*
X121378740Y-95385000D01*
X121671260Y-95385000D01*
X121958158Y-95327932D01*
X122228411Y-95215990D01*
X122471632Y-95053475D01*
X122678475Y-94846632D01*
X122840990Y-94603411D01*
X122952932Y-94333158D01*
X123010000Y-94046260D01*
X123010000Y-93753740D01*
X122952932Y-93466842D01*
X122840990Y-93196589D01*
X122678475Y-92953368D01*
X122471632Y-92746525D01*
X122297240Y-92630000D01*
X122471632Y-92513475D01*
X122678475Y-92306632D01*
X122840990Y-92063411D01*
X122952932Y-91793158D01*
X123010000Y-91506260D01*
X123010000Y-91213740D01*
X122952932Y-90926842D01*
X122840990Y-90656589D01*
X122678475Y-90413368D01*
X122546620Y-90281513D01*
X122619180Y-90259502D01*
X122729494Y-90200537D01*
X122826185Y-90121185D01*
X122905537Y-90024494D01*
X122964502Y-89914180D01*
X123000812Y-89794482D01*
X123013072Y-89670000D01*
X123013072Y-87970000D01*
X158136928Y-87970000D01*
X158136928Y-89670000D01*
X158149188Y-89794482D01*
X158185498Y-89914180D01*
X158244463Y-90024494D01*
X158323815Y-90121185D01*
X158420506Y-90200537D01*
X158530820Y-90259502D01*
X158603380Y-90281513D01*
X158471525Y-90413368D01*
X158309010Y-90656589D01*
X158197068Y-90926842D01*
X158140000Y-91213740D01*
X158140000Y-91506260D01*
X158197068Y-91793158D01*
X158309010Y-92063411D01*
X158471525Y-92306632D01*
X158678368Y-92513475D01*
X158852760Y-92630000D01*
X158678368Y-92746525D01*
X158471525Y-92953368D01*
X158309010Y-93196589D01*
X158197068Y-93466842D01*
X158140000Y-93753740D01*
X158140000Y-94046260D01*
X158197068Y-94333158D01*
X158309010Y-94603411D01*
X158471525Y-94846632D01*
X158678368Y-95053475D01*
X158921589Y-95215990D01*
X159191842Y-95327932D01*
X159478740Y-95385000D01*
X159771260Y-95385000D01*
X160058158Y-95327932D01*
X160328411Y-95215990D01*
X160571632Y-95053475D01*
X160778475Y-94846632D01*
X160940990Y-94603411D01*
X161052932Y-94333158D01*
X161110000Y-94046260D01*
X161110000Y-93753740D01*
X161052932Y-93466842D01*
X160940990Y-93196589D01*
X160778475Y-92953368D01*
X160571632Y-92746525D01*
X160397240Y-92630000D01*
X160571632Y-92513475D01*
X160778475Y-92306632D01*
X160940990Y-92063411D01*
X161052932Y-91793158D01*
X161110000Y-91506260D01*
X161110000Y-91213740D01*
X161052932Y-90926842D01*
X160940990Y-90656589D01*
X160778475Y-90413368D01*
X160646620Y-90281513D01*
X160719180Y-90259502D01*
X160829494Y-90200537D01*
X160926185Y-90121185D01*
X161005537Y-90024494D01*
X161064502Y-89914180D01*
X161100812Y-89794482D01*
X161113072Y-89670000D01*
X161113072Y-87970000D01*
X161100812Y-87845518D01*
X161064502Y-87725820D01*
X161005537Y-87615506D01*
X160926185Y-87518815D01*
X160829494Y-87439463D01*
X160719180Y-87380498D01*
X160599482Y-87344188D01*
X160475000Y-87331928D01*
X158775000Y-87331928D01*
X158650518Y-87344188D01*
X158530820Y-87380498D01*
X158420506Y-87439463D01*
X158323815Y-87518815D01*
X158244463Y-87615506D01*
X158185498Y-87725820D01*
X158149188Y-87845518D01*
X158136928Y-87970000D01*
X123013072Y-87970000D01*
X123000812Y-87845518D01*
X122964502Y-87725820D01*
X122905537Y-87615506D01*
X122826185Y-87518815D01*
X122729494Y-87439463D01*
X122619180Y-87380498D01*
X122499482Y-87344188D01*
X122375000Y-87331928D01*
X120675000Y-87331928D01*
X120550518Y-87344188D01*
X120430820Y-87380498D01*
X120320506Y-87439463D01*
X120223815Y-87518815D01*
X120144463Y-87615506D01*
X120085498Y-87725820D01*
X120049188Y-87845518D01*
X120036928Y-87970000D01*
X120036928Y-89268892D01*
X119967089Y-89255000D01*
X119782911Y-89255000D01*
X119602271Y-89290932D01*
X119432111Y-89361414D01*
X119375000Y-89399574D01*
X119317889Y-89361414D01*
X119147729Y-89290932D01*
X118967089Y-89255000D01*
X118782911Y-89255000D01*
X118602271Y-89290932D01*
X118432111Y-89361414D01*
X118278972Y-89463738D01*
X118148738Y-89593972D01*
X118046414Y-89747111D01*
X117975932Y-89917271D01*
X117940000Y-90097911D01*
X117940000Y-90282089D01*
X117975932Y-90462729D01*
X117990000Y-90496693D01*
X117990001Y-92133296D01*
X117975932Y-92167261D01*
X117940000Y-92347901D01*
X117940000Y-92532079D01*
X117975932Y-92712719D01*
X118046414Y-92882879D01*
X118100920Y-92964453D01*
X117718029Y-93347345D01*
X117684063Y-93361414D01*
X117530924Y-93463738D01*
X117400690Y-93593972D01*
X117298366Y-93747111D01*
X117227884Y-93917271D01*
X117191952Y-94097911D01*
X97505000Y-94097911D01*
X97505000Y-87130000D01*
X99716928Y-87130000D01*
X99729188Y-87254482D01*
X99765498Y-87374180D01*
X99824463Y-87484494D01*
X99903815Y-87581185D01*
X100000506Y-87660537D01*
X100110820Y-87719502D01*
X100183380Y-87741513D01*
X100051525Y-87873368D01*
X99889010Y-88116589D01*
X99777068Y-88386842D01*
X99720000Y-88673740D01*
X99720000Y-88966260D01*
X99777068Y-89253158D01*
X99889010Y-89523411D01*
X100051525Y-89766632D01*
X100258368Y-89973475D01*
X100432760Y-90090000D01*
X100258368Y-90206525D01*
X100051525Y-90413368D01*
X99889010Y-90656589D01*
X99777068Y-90926842D01*
X99720000Y-91213740D01*
X99720000Y-91506260D01*
X99777068Y-91793158D01*
X99889010Y-92063411D01*
X100051525Y-92306632D01*
X100258368Y-92513475D01*
X100501589Y-92675990D01*
X100771842Y-92787932D01*
X101058740Y-92845000D01*
X101351260Y-92845000D01*
X101638158Y-92787932D01*
X101908411Y-92675990D01*
X102151632Y-92513475D01*
X102358475Y-92306632D01*
X102520990Y-92063411D01*
X102632932Y-91793158D01*
X102690000Y-91506260D01*
X102690000Y-91213740D01*
X102632932Y-90926842D01*
X102520990Y-90656589D01*
X102358475Y-90413368D01*
X102151632Y-90206525D01*
X101977240Y-90090000D01*
X102151632Y-89973475D01*
X102358475Y-89766632D01*
X102520990Y-89523411D01*
X102632932Y-89253158D01*
X102690000Y-88966260D01*
X102690000Y-88673740D01*
X102632932Y-88386842D01*
X102520990Y-88116589D01*
X102358475Y-87873368D01*
X102226620Y-87741513D01*
X102299180Y-87719502D01*
X102409494Y-87660537D01*
X102506185Y-87581185D01*
X102585537Y-87484494D01*
X102644502Y-87374180D01*
X102680812Y-87254482D01*
X102693072Y-87130000D01*
X102690000Y-86565750D01*
X102531250Y-86407000D01*
X101332000Y-86407000D01*
X101332000Y-86427000D01*
X101078000Y-86427000D01*
X101078000Y-86407000D01*
X99878750Y-86407000D01*
X99720000Y-86565750D01*
X99716928Y-87130000D01*
X97505000Y-87130000D01*
X97505000Y-85430000D01*
X99716928Y-85430000D01*
X99720000Y-85994250D01*
X99878750Y-86153000D01*
X101078000Y-86153000D01*
X101078000Y-84953750D01*
X101332000Y-84953750D01*
X101332000Y-86153000D01*
X102531250Y-86153000D01*
X102690000Y-85994250D01*
X102693072Y-85430000D01*
X102680812Y-85305518D01*
X102644502Y-85185820D01*
X102585537Y-85075506D01*
X102506185Y-84978815D01*
X102409494Y-84899463D01*
X102299180Y-84840498D01*
X102179482Y-84804188D01*
X102055000Y-84791928D01*
X101490750Y-84795000D01*
X101332000Y-84953750D01*
X101078000Y-84953750D01*
X100919250Y-84795000D01*
X100355000Y-84791928D01*
X100230518Y-84804188D01*
X100110820Y-84840498D01*
X100000506Y-84899463D01*
X99903815Y-84978815D01*
X99824463Y-85075506D01*
X99765498Y-85185820D01*
X99729188Y-85305518D01*
X99716928Y-85430000D01*
X97505000Y-85430000D01*
X97505000Y-82890000D01*
X120036928Y-82890000D01*
X120036928Y-84590000D01*
X120049188Y-84714482D01*
X120085498Y-84834180D01*
X120144463Y-84944494D01*
X120223815Y-85041185D01*
X120320506Y-85120537D01*
X120430820Y-85179502D01*
X120550518Y-85215812D01*
X120675000Y-85228072D01*
X122375000Y-85228072D01*
X122499482Y-85215812D01*
X122619180Y-85179502D01*
X122729494Y-85120537D01*
X122826185Y-85041185D01*
X122905537Y-84944494D01*
X122964502Y-84834180D01*
X123000812Y-84714482D01*
X123013072Y-84590000D01*
X123013072Y-82890000D01*
X158136928Y-82890000D01*
X158136928Y-84590000D01*
X158149188Y-84714482D01*
X158185498Y-84834180D01*
X158244463Y-84944494D01*
X158323815Y-85041185D01*
X158420506Y-85120537D01*
X158530820Y-85179502D01*
X158650518Y-85215812D01*
X158775000Y-85228072D01*
X160475000Y-85228072D01*
X160599482Y-85215812D01*
X160719180Y-85179502D01*
X160829494Y-85120537D01*
X160926185Y-85041185D01*
X161005537Y-84944494D01*
X161064502Y-84834180D01*
X161100812Y-84714482D01*
X161113072Y-84590000D01*
X161113072Y-82890000D01*
X161100812Y-82765518D01*
X161064502Y-82645820D01*
X161005537Y-82535506D01*
X160926185Y-82438815D01*
X160829494Y-82359463D01*
X160719180Y-82300498D01*
X160646620Y-82278487D01*
X160778475Y-82146632D01*
X160940990Y-81903411D01*
X161052932Y-81633158D01*
X161091353Y-81440000D01*
X180946928Y-81440000D01*
X180959188Y-81564482D01*
X180995498Y-81684180D01*
X181054463Y-81794494D01*
X181133815Y-81891185D01*
X181230506Y-81970537D01*
X181340820Y-82029502D01*
X181460518Y-82065812D01*
X181585000Y-82078072D01*
X183839250Y-82075000D01*
X183998000Y-81916250D01*
X183998000Y-80817000D01*
X181108750Y-80817000D01*
X180950000Y-80975750D01*
X180946928Y-81440000D01*
X161091353Y-81440000D01*
X161110000Y-81346260D01*
X161110000Y-81053740D01*
X161052932Y-80766842D01*
X160940990Y-80496589D01*
X160778475Y-80253368D01*
X160571632Y-80046525D01*
X160412207Y-79940000D01*
X180946928Y-79940000D01*
X180950000Y-80404250D01*
X181108750Y-80563000D01*
X183998000Y-80563000D01*
X183998000Y-79463750D01*
X183839250Y-79305000D01*
X181585000Y-79301928D01*
X181460518Y-79314188D01*
X181340820Y-79350498D01*
X181230506Y-79409463D01*
X181133815Y-79488815D01*
X181054463Y-79585506D01*
X180995498Y-79695820D01*
X180959188Y-79815518D01*
X180946928Y-79940000D01*
X160412207Y-79940000D01*
X160397240Y-79930000D01*
X160571632Y-79813475D01*
X160778475Y-79606632D01*
X160940990Y-79363411D01*
X161052932Y-79093158D01*
X161110000Y-78806260D01*
X161110000Y-78513740D01*
X161052932Y-78226842D01*
X160940990Y-77956589D01*
X160778475Y-77713368D01*
X160571632Y-77506525D01*
X160328411Y-77344010D01*
X160058158Y-77232068D01*
X159771260Y-77175000D01*
X159478740Y-77175000D01*
X159191842Y-77232068D01*
X158921589Y-77344010D01*
X158678368Y-77506525D01*
X158471525Y-77713368D01*
X158309010Y-77956589D01*
X158197068Y-78226842D01*
X158140000Y-78513740D01*
X158140000Y-78806260D01*
X158197068Y-79093158D01*
X158309010Y-79363411D01*
X158471525Y-79606632D01*
X158678368Y-79813475D01*
X158852760Y-79930000D01*
X158678368Y-80046525D01*
X158471525Y-80253368D01*
X158309010Y-80496589D01*
X158197068Y-80766842D01*
X158140000Y-81053740D01*
X158140000Y-81346260D01*
X158197068Y-81633158D01*
X158309010Y-81903411D01*
X158471525Y-82146632D01*
X158603380Y-82278487D01*
X158530820Y-82300498D01*
X158420506Y-82359463D01*
X158323815Y-82438815D01*
X158244463Y-82535506D01*
X158185498Y-82645820D01*
X158149188Y-82765518D01*
X158136928Y-82890000D01*
X123013072Y-82890000D01*
X123000812Y-82765518D01*
X122964502Y-82645820D01*
X122905537Y-82535506D01*
X122826185Y-82438815D01*
X122729494Y-82359463D01*
X122619180Y-82300498D01*
X122546620Y-82278487D01*
X122678475Y-82146632D01*
X122840990Y-81903411D01*
X122952932Y-81633158D01*
X123010000Y-81346260D01*
X123010000Y-81053740D01*
X122952932Y-80766842D01*
X122840990Y-80496589D01*
X122678475Y-80253368D01*
X122471632Y-80046525D01*
X122297240Y-79930000D01*
X122471632Y-79813475D01*
X122678475Y-79606632D01*
X122840990Y-79363411D01*
X122952932Y-79093158D01*
X123010000Y-78806260D01*
X123010000Y-78513740D01*
X122952932Y-78226842D01*
X122840990Y-77956589D01*
X122678475Y-77713368D01*
X122471632Y-77506525D01*
X122228411Y-77344010D01*
X121958158Y-77232068D01*
X121671260Y-77175000D01*
X121378740Y-77175000D01*
X121091842Y-77232068D01*
X120821589Y-77344010D01*
X120578368Y-77506525D01*
X120371525Y-77713368D01*
X120209010Y-77956589D01*
X120097068Y-78226842D01*
X120040000Y-78513740D01*
X120040000Y-78806260D01*
X120097068Y-79093158D01*
X120209010Y-79363411D01*
X120371525Y-79606632D01*
X120578368Y-79813475D01*
X120752760Y-79930000D01*
X120578368Y-80046525D01*
X120371525Y-80253368D01*
X120209010Y-80496589D01*
X120097068Y-80766842D01*
X120040000Y-81053740D01*
X120040000Y-81346260D01*
X120097068Y-81633158D01*
X120209010Y-81903411D01*
X120371525Y-82146632D01*
X120503380Y-82278487D01*
X120430820Y-82300498D01*
X120320506Y-82359463D01*
X120223815Y-82438815D01*
X120144463Y-82535506D01*
X120085498Y-82645820D01*
X120049188Y-82765518D01*
X120036928Y-82890000D01*
X97505000Y-82890000D01*
X97505000Y-82077459D01*
X99309250Y-82075000D01*
X99468000Y-81916250D01*
X99468000Y-80817000D01*
X99722000Y-80817000D01*
X99722000Y-81916250D01*
X99880750Y-82075000D01*
X102135000Y-82078072D01*
X102259482Y-82065812D01*
X102311607Y-82050000D01*
X104796928Y-82050000D01*
X104809188Y-82174482D01*
X104845498Y-82294180D01*
X104904463Y-82404494D01*
X104983815Y-82501185D01*
X105080506Y-82580537D01*
X105190820Y-82639502D01*
X105310518Y-82675812D01*
X105435000Y-82688072D01*
X105999250Y-82685000D01*
X106158000Y-82526250D01*
X106158000Y-81327000D01*
X106412000Y-81327000D01*
X106412000Y-82526250D01*
X106570750Y-82685000D01*
X107135000Y-82688072D01*
X107259482Y-82675812D01*
X107379180Y-82639502D01*
X107489494Y-82580537D01*
X107586185Y-82501185D01*
X107665537Y-82404494D01*
X107724502Y-82294180D01*
X107760812Y-82174482D01*
X107773072Y-82050000D01*
X107770000Y-81485750D01*
X107611250Y-81327000D01*
X106412000Y-81327000D01*
X106158000Y-81327000D01*
X104958750Y-81327000D01*
X104800000Y-81485750D01*
X104796928Y-82050000D01*
X102311607Y-82050000D01*
X102379180Y-82029502D01*
X102489494Y-81970537D01*
X102586185Y-81891185D01*
X102665537Y-81794494D01*
X102724502Y-81684180D01*
X102760812Y-81564482D01*
X102773072Y-81440000D01*
X102770000Y-80975750D01*
X102611250Y-80817000D01*
X99722000Y-80817000D01*
X99468000Y-80817000D01*
X99448000Y-80817000D01*
X99448000Y-80563000D01*
X99468000Y-80563000D01*
X99468000Y-79463750D01*
X99722000Y-79463750D01*
X99722000Y-80563000D01*
X102611250Y-80563000D01*
X102770000Y-80404250D01*
X102770358Y-80350000D01*
X104796928Y-80350000D01*
X104800000Y-80914250D01*
X104958750Y-81073000D01*
X106158000Y-81073000D01*
X106158000Y-81053000D01*
X106412000Y-81053000D01*
X106412000Y-81073000D01*
X107611250Y-81073000D01*
X107770000Y-80914250D01*
X107773072Y-80350000D01*
X107760812Y-80225518D01*
X107724502Y-80105820D01*
X107665537Y-79995506D01*
X107586185Y-79898815D01*
X107489494Y-79819463D01*
X107379180Y-79760498D01*
X107306620Y-79738487D01*
X107438475Y-79606632D01*
X107600990Y-79363411D01*
X107712932Y-79093158D01*
X107770000Y-78806260D01*
X107770000Y-78513740D01*
X107712932Y-78226842D01*
X107600990Y-77956589D01*
X107438475Y-77713368D01*
X107231632Y-77506525D01*
X106988411Y-77344010D01*
X106718158Y-77232068D01*
X106431260Y-77175000D01*
X106138740Y-77175000D01*
X105851842Y-77232068D01*
X105581589Y-77344010D01*
X105338368Y-77506525D01*
X105131525Y-77713368D01*
X104969010Y-77956589D01*
X104857068Y-78226842D01*
X104800000Y-78513740D01*
X104800000Y-78806260D01*
X104857068Y-79093158D01*
X104969010Y-79363411D01*
X105131525Y-79606632D01*
X105263380Y-79738487D01*
X105190820Y-79760498D01*
X105080506Y-79819463D01*
X104983815Y-79898815D01*
X104904463Y-79995506D01*
X104845498Y-80105820D01*
X104809188Y-80225518D01*
X104796928Y-80350000D01*
X102770358Y-80350000D01*
X102773072Y-79940000D01*
X102760812Y-79815518D01*
X102724502Y-79695820D01*
X102665537Y-79585506D01*
X102586185Y-79488815D01*
X102489494Y-79409463D01*
X102379180Y-79350498D01*
X102259482Y-79314188D01*
X102135000Y-79301928D01*
X99880750Y-79305000D01*
X99722000Y-79463750D01*
X99468000Y-79463750D01*
X99309250Y-79305000D01*
X97505000Y-79302541D01*
X97505000Y-73577459D01*
X99309250Y-73575000D01*
X99468000Y-73416250D01*
X99468000Y-72317000D01*
X99722000Y-72317000D01*
X99722000Y-73416250D01*
X99880750Y-73575000D01*
X102135000Y-73578072D01*
X102259482Y-73565812D01*
X102379180Y-73529502D01*
X102489494Y-73470537D01*
X102586185Y-73391185D01*
X102665537Y-73294494D01*
X102724502Y-73184180D01*
X102760812Y-73064482D01*
X102773072Y-72940000D01*
X180946928Y-72940000D01*
X180959188Y-73064482D01*
X180995498Y-73184180D01*
X181054463Y-73294494D01*
X181133815Y-73391185D01*
X181230506Y-73470537D01*
X181340820Y-73529502D01*
X181460518Y-73565812D01*
X181585000Y-73578072D01*
X183839250Y-73575000D01*
X183998000Y-73416250D01*
X183998000Y-72317000D01*
X181108750Y-72317000D01*
X180950000Y-72475750D01*
X180946928Y-72940000D01*
X102773072Y-72940000D01*
X102770000Y-72475750D01*
X102611250Y-72317000D01*
X99722000Y-72317000D01*
X99468000Y-72317000D01*
X99448000Y-72317000D01*
X99448000Y-72063000D01*
X99468000Y-72063000D01*
X99468000Y-70963750D01*
X99722000Y-70963750D01*
X99722000Y-72063000D01*
X102611250Y-72063000D01*
X102770000Y-71904250D01*
X102773072Y-71440000D01*
X102760812Y-71315518D01*
X102724502Y-71195820D01*
X102665537Y-71085506D01*
X102586185Y-70988815D01*
X102489494Y-70909463D01*
X102379180Y-70850498D01*
X102259482Y-70814188D01*
X102135000Y-70801928D01*
X99880750Y-70805000D01*
X99722000Y-70963750D01*
X99468000Y-70963750D01*
X99309250Y-70805000D01*
X97505000Y-70802541D01*
X97505000Y-70190000D01*
X160676928Y-70190000D01*
X160676928Y-71890000D01*
X160689188Y-72014482D01*
X160725498Y-72134180D01*
X160784463Y-72244494D01*
X160863815Y-72341185D01*
X160960506Y-72420537D01*
X161070820Y-72479502D01*
X161190518Y-72515812D01*
X161315000Y-72528072D01*
X163015000Y-72528072D01*
X163139482Y-72515812D01*
X163259180Y-72479502D01*
X163369494Y-72420537D01*
X163466185Y-72341185D01*
X163545537Y-72244494D01*
X163604502Y-72134180D01*
X163626513Y-72061620D01*
X163758368Y-72193475D01*
X164001589Y-72355990D01*
X164271842Y-72467932D01*
X164558740Y-72525000D01*
X164851260Y-72525000D01*
X165138158Y-72467932D01*
X165408411Y-72355990D01*
X165651632Y-72193475D01*
X165858475Y-71986632D01*
X165980195Y-71804466D01*
X166049822Y-71921355D01*
X166244731Y-72137588D01*
X166478080Y-72311641D01*
X166740901Y-72436825D01*
X166888110Y-72481476D01*
X167118000Y-72360155D01*
X167118000Y-71167000D01*
X167372000Y-71167000D01*
X167372000Y-72360155D01*
X167601890Y-72481476D01*
X167749099Y-72436825D01*
X168011920Y-72311641D01*
X168245269Y-72137588D01*
X168440178Y-71921355D01*
X168589157Y-71671252D01*
X168671188Y-71440000D01*
X180946928Y-71440000D01*
X180950000Y-71904250D01*
X181108750Y-72063000D01*
X183998000Y-72063000D01*
X183998000Y-70963750D01*
X183839250Y-70805000D01*
X181585000Y-70801928D01*
X181460518Y-70814188D01*
X181340820Y-70850498D01*
X181230506Y-70909463D01*
X181133815Y-70988815D01*
X181054463Y-71085506D01*
X180995498Y-71195820D01*
X180959188Y-71315518D01*
X180946928Y-71440000D01*
X168671188Y-71440000D01*
X168686481Y-71396891D01*
X168565814Y-71167000D01*
X167372000Y-71167000D01*
X167118000Y-71167000D01*
X167098000Y-71167000D01*
X167098000Y-70913000D01*
X167118000Y-70913000D01*
X167118000Y-69719845D01*
X167372000Y-69719845D01*
X167372000Y-70913000D01*
X168565814Y-70913000D01*
X168686481Y-70683109D01*
X168589157Y-70408748D01*
X168440178Y-70158645D01*
X168245269Y-69942412D01*
X168011920Y-69768359D01*
X167749099Y-69643175D01*
X167601890Y-69598524D01*
X167372000Y-69719845D01*
X167118000Y-69719845D01*
X166888110Y-69598524D01*
X166740901Y-69643175D01*
X166478080Y-69768359D01*
X166244731Y-69942412D01*
X166049822Y-70158645D01*
X165980195Y-70275534D01*
X165858475Y-70093368D01*
X165651632Y-69886525D01*
X165408411Y-69724010D01*
X165138158Y-69612068D01*
X164851260Y-69555000D01*
X164558740Y-69555000D01*
X164271842Y-69612068D01*
X164001589Y-69724010D01*
X163758368Y-69886525D01*
X163626513Y-70018380D01*
X163604502Y-69945820D01*
X163545537Y-69835506D01*
X163466185Y-69738815D01*
X163369494Y-69659463D01*
X163259180Y-69600498D01*
X163139482Y-69564188D01*
X163015000Y-69551928D01*
X161315000Y-69551928D01*
X161190518Y-69564188D01*
X161070820Y-69600498D01*
X160960506Y-69659463D01*
X160863815Y-69738815D01*
X160784463Y-69835506D01*
X160725498Y-69945820D01*
X160689188Y-70065518D01*
X160676928Y-70190000D01*
X97505000Y-70190000D01*
X97505000Y-67100000D01*
X186185000Y-67100000D01*
X186185000Y-70802582D01*
G37*
%TD.AperFunction*%
%TD*%
M02*
