%TF.GenerationSoftware,KiCad,Pcbnew,(5.1.8)-1*%
%TF.CreationDate,2020-12-12T14:46:25+01:00*%
%TF.ProjectId,ltc5599-test-pcb,6c746335-3539-4392-9d74-6573742d7063,rev?*%
%TF.SameCoordinates,Original*%
%TF.FileFunction,Soldermask,Bot*%
%TF.FilePolarity,Negative*%
%FSLAX46Y46*%
G04 Gerber Fmt 4.6, Leading zero omitted, Abs format (unit mm)*
G04 Created by KiCad (PCBNEW (5.1.8)-1) date 2020-12-12 14:46:25*
%MOMM*%
%LPD*%
G01*
G04 APERTURE LIST*
%ADD10C,2.340000*%
%ADD11O,1.700000X1.700000*%
%ADD12R,1.700000X1.700000*%
%ADD13R,5.080000X1.500000*%
G04 APERTURE END LIST*
D10*
%TO.C,RV101*%
X98665000Y-98980000D03*
X101165000Y-101480000D03*
X98665000Y-103980000D03*
%TD*%
D11*
%TO.C,J103*%
X101205000Y-91360000D03*
X101205000Y-88820000D03*
D12*
X101205000Y-86280000D03*
%TD*%
%TO.C,J1*%
X106285000Y-81200000D03*
D11*
X106285000Y-78660000D03*
%TD*%
%TO.C,J102*%
X167245000Y-71040000D03*
X164705000Y-71040000D03*
D12*
X162165000Y-71040000D03*
%TD*%
D11*
%TO.C,J101*%
X177405000Y-104060000D03*
X177405000Y-101520000D03*
X177405000Y-98980000D03*
X177405000Y-96440000D03*
X177405000Y-93900000D03*
X177405000Y-91360000D03*
D12*
X177405000Y-88820000D03*
%TD*%
%TO.C,J3*%
X106285000Y-111680000D03*
D11*
X106285000Y-114220000D03*
%TD*%
%TO.C,JP8*%
X159625000Y-98980000D03*
X159625000Y-101520000D03*
D12*
X159625000Y-104060000D03*
%TD*%
D11*
%TO.C,JP7*%
X159625000Y-114220000D03*
X159625000Y-111680000D03*
D12*
X159625000Y-109140000D03*
%TD*%
D11*
%TO.C,JP6*%
X159625000Y-78660000D03*
X159625000Y-81200000D03*
D12*
X159625000Y-83740000D03*
%TD*%
D11*
%TO.C,JP5*%
X159625000Y-93900000D03*
X159625000Y-91360000D03*
D12*
X159625000Y-88820000D03*
%TD*%
D11*
%TO.C,JP4*%
X121525000Y-98980000D03*
X121525000Y-101520000D03*
D12*
X121525000Y-104060000D03*
%TD*%
D11*
%TO.C,JP3*%
X121525000Y-114220000D03*
X121525000Y-111680000D03*
D12*
X121525000Y-109140000D03*
%TD*%
D11*
%TO.C,JP2*%
X121525000Y-78660000D03*
X121525000Y-81200000D03*
D12*
X121525000Y-83740000D03*
%TD*%
D11*
%TO.C,JP1*%
X121525000Y-93900000D03*
X121525000Y-91360000D03*
D12*
X121525000Y-88820000D03*
%TD*%
D13*
%TO.C,J7*%
X184125000Y-112190000D03*
X184125000Y-120690000D03*
%TD*%
%TO.C,J5*%
X184125000Y-72190000D03*
X184125000Y-80690000D03*
%TD*%
%TO.C,J4*%
X99595000Y-112190000D03*
X99595000Y-120690000D03*
%TD*%
%TO.C,J2*%
X99595000Y-72190000D03*
X99595000Y-80690000D03*
%TD*%
M02*
