%TF.GenerationSoftware,KiCad,Pcbnew,(5.1.8)-1*%
%TF.CreationDate,2020-12-12T14:46:25+01:00*%
%TF.ProjectId,ltc5599-test-pcb,6c746335-3539-4392-9d74-6573742d7063,rev?*%
%TF.SameCoordinates,Original*%
%TF.FileFunction,Legend,Top*%
%TF.FilePolarity,Positive*%
%FSLAX46Y46*%
G04 Gerber Fmt 4.6, Leading zero omitted, Abs format (unit mm)*
G04 Created by KiCad (PCBNEW (5.1.8)-1) date 2020-12-12 14:46:25*
%MOMM*%
%LPD*%
G01*
G04 APERTURE LIST*
%ADD10C,0.150000*%
%ADD11C,0.120000*%
%ADD12C,0.200000*%
%ADD13C,0.300000*%
G04 APERTURE END LIST*
D10*
X98875000Y-83951904D02*
X98922619Y-83856666D01*
X98922619Y-83713809D01*
X98875000Y-83570952D01*
X98779761Y-83475714D01*
X98684523Y-83428095D01*
X98494047Y-83380476D01*
X98351190Y-83380476D01*
X98160714Y-83428095D01*
X98065476Y-83475714D01*
X97970238Y-83570952D01*
X97922619Y-83713809D01*
X97922619Y-83809047D01*
X97970238Y-83951904D01*
X98017857Y-83999523D01*
X98351190Y-83999523D01*
X98351190Y-83809047D01*
X97922619Y-84428095D02*
X98922619Y-84428095D01*
X97922619Y-84999523D01*
X98922619Y-84999523D01*
X97922619Y-85475714D02*
X98922619Y-85475714D01*
X98922619Y-85713809D01*
X98875000Y-85856666D01*
X98779761Y-85951904D01*
X98684523Y-85999523D01*
X98494047Y-86047142D01*
X98351190Y-86047142D01*
X98160714Y-85999523D01*
X98065476Y-85951904D01*
X97970238Y-85856666D01*
X97922619Y-85713809D01*
X97922619Y-85475714D01*
X98922619Y-87094761D02*
X97922619Y-87428095D01*
X98922619Y-87761428D01*
X97922619Y-88666190D02*
X98398809Y-88332857D01*
X97922619Y-88094761D02*
X98922619Y-88094761D01*
X98922619Y-88475714D01*
X98875000Y-88570952D01*
X98827380Y-88618571D01*
X98732142Y-88666190D01*
X98589285Y-88666190D01*
X98494047Y-88618571D01*
X98446428Y-88570952D01*
X98398809Y-88475714D01*
X98398809Y-88094761D01*
X98446428Y-89094761D02*
X98446428Y-89428095D01*
X97922619Y-89570952D02*
X97922619Y-89094761D01*
X98922619Y-89094761D01*
X98922619Y-89570952D01*
X98446428Y-90332857D02*
X98446428Y-89999523D01*
X97922619Y-89999523D02*
X98922619Y-89999523D01*
X98922619Y-90475714D01*
X97922619Y-91618571D02*
X98922619Y-91618571D01*
X98922619Y-91999523D01*
X98875000Y-92094761D01*
X98827380Y-92142380D01*
X98732142Y-92190000D01*
X98589285Y-92190000D01*
X98494047Y-92142380D01*
X98446428Y-92094761D01*
X98398809Y-91999523D01*
X98398809Y-91618571D01*
X98922619Y-92809047D02*
X98922619Y-92999523D01*
X98875000Y-93094761D01*
X98779761Y-93190000D01*
X98589285Y-93237619D01*
X98255952Y-93237619D01*
X98065476Y-93190000D01*
X97970238Y-93094761D01*
X97922619Y-92999523D01*
X97922619Y-92809047D01*
X97970238Y-92713809D01*
X98065476Y-92618571D01*
X98255952Y-92570952D01*
X98589285Y-92570952D01*
X98779761Y-92618571D01*
X98875000Y-92713809D01*
X98922619Y-92809047D01*
X98922619Y-93523333D02*
X98922619Y-94094761D01*
X97922619Y-93809047D02*
X98922619Y-93809047D01*
X159267857Y-67892380D02*
X159839285Y-67892380D01*
X159553571Y-68892380D02*
X159553571Y-67892380D01*
X160172619Y-68368571D02*
X160505952Y-68368571D01*
X160648809Y-68892380D02*
X160172619Y-68892380D01*
X160172619Y-67892380D01*
X160648809Y-67892380D01*
X161077380Y-68892380D02*
X161077380Y-67892380D01*
X161410714Y-68606666D01*
X161744047Y-67892380D01*
X161744047Y-68892380D01*
X162220238Y-68892380D02*
X162220238Y-67892380D01*
X162601190Y-67892380D01*
X162696428Y-67940000D01*
X162744047Y-67987619D01*
X162791666Y-68082857D01*
X162791666Y-68225714D01*
X162744047Y-68320952D01*
X162696428Y-68368571D01*
X162601190Y-68416190D01*
X162220238Y-68416190D01*
X163839285Y-67892380D02*
X164410714Y-67892380D01*
X164125000Y-68892380D02*
X164125000Y-67892380D01*
X164601190Y-67892380D02*
X165172619Y-67892380D01*
X164886904Y-68892380D02*
X164886904Y-67892380D01*
X166077380Y-68797142D02*
X166029761Y-68844761D01*
X165886904Y-68892380D01*
X165791666Y-68892380D01*
X165648809Y-68844761D01*
X165553571Y-68749523D01*
X165505952Y-68654285D01*
X165458333Y-68463809D01*
X165458333Y-68320952D01*
X165505952Y-68130476D01*
X165553571Y-68035238D01*
X165648809Y-67940000D01*
X165791666Y-67892380D01*
X165886904Y-67892380D01*
X166029761Y-67940000D01*
X166077380Y-67987619D01*
X166505952Y-68892380D02*
X166505952Y-67892380D01*
X167077380Y-68892380D02*
X166648809Y-68320952D01*
X167077380Y-67892380D02*
X166505952Y-68463809D01*
X168791666Y-67940000D02*
X168696428Y-67892380D01*
X168553571Y-67892380D01*
X168410714Y-67940000D01*
X168315476Y-68035238D01*
X168267857Y-68130476D01*
X168220238Y-68320952D01*
X168220238Y-68463809D01*
X168267857Y-68654285D01*
X168315476Y-68749523D01*
X168410714Y-68844761D01*
X168553571Y-68892380D01*
X168648809Y-68892380D01*
X168791666Y-68844761D01*
X168839285Y-68797142D01*
X168839285Y-68463809D01*
X168648809Y-68463809D01*
X169267857Y-68892380D02*
X169267857Y-67892380D01*
X169839285Y-68892380D01*
X169839285Y-67892380D01*
X109244047Y-79186428D02*
X110005952Y-79186428D01*
X109625000Y-79567380D02*
X109625000Y-78805476D01*
X109244047Y-80836428D02*
X110005952Y-80836428D01*
X109755952Y-113693571D02*
X108994047Y-113693571D01*
X109375000Y-113312619D02*
X109375000Y-114074523D01*
X109755952Y-112043571D02*
X108994047Y-112043571D01*
D11*
X175375000Y-98940000D02*
X171125000Y-98940000D01*
X175375000Y-101440000D02*
X175375000Y-98940000D01*
X175375000Y-104440000D02*
X175375000Y-101440000D01*
X175375000Y-110940000D02*
X175375000Y-104440000D01*
X171125000Y-110940000D02*
X175375000Y-110940000D01*
X171125000Y-103440000D02*
X171125000Y-110940000D01*
X171125000Y-98940000D02*
X171125000Y-103440000D01*
D12*
X171600238Y-99292380D02*
X171933571Y-100292380D01*
X172266904Y-99292380D01*
X173171666Y-100197142D02*
X173124047Y-100244761D01*
X172981190Y-100292380D01*
X172885952Y-100292380D01*
X172743095Y-100244761D01*
X172647857Y-100149523D01*
X172600238Y-100054285D01*
X172552619Y-99863809D01*
X172552619Y-99720952D01*
X172600238Y-99530476D01*
X172647857Y-99435238D01*
X172743095Y-99340000D01*
X172885952Y-99292380D01*
X172981190Y-99292380D01*
X173124047Y-99340000D01*
X173171666Y-99387619D01*
X174171666Y-100197142D02*
X174124047Y-100244761D01*
X173981190Y-100292380D01*
X173885952Y-100292380D01*
X173743095Y-100244761D01*
X173647857Y-100149523D01*
X173600238Y-100054285D01*
X173552619Y-99863809D01*
X173552619Y-99720952D01*
X173600238Y-99530476D01*
X173647857Y-99435238D01*
X173743095Y-99340000D01*
X173885952Y-99292380D01*
X173981190Y-99292380D01*
X174124047Y-99340000D01*
X174171666Y-99387619D01*
X171743095Y-101468571D02*
X172076428Y-101468571D01*
X172219285Y-101992380D02*
X171743095Y-101992380D01*
X171743095Y-100992380D01*
X172219285Y-100992380D01*
X172647857Y-101992380D02*
X172647857Y-100992380D01*
X173219285Y-101992380D01*
X173219285Y-100992380D01*
X171695476Y-103644761D02*
X171838333Y-103692380D01*
X172076428Y-103692380D01*
X172171666Y-103644761D01*
X172219285Y-103597142D01*
X172266904Y-103501904D01*
X172266904Y-103406666D01*
X172219285Y-103311428D01*
X172171666Y-103263809D01*
X172076428Y-103216190D01*
X171885952Y-103168571D01*
X171790714Y-103120952D01*
X171743095Y-103073333D01*
X171695476Y-102978095D01*
X171695476Y-102882857D01*
X171743095Y-102787619D01*
X171790714Y-102740000D01*
X171885952Y-102692380D01*
X172124047Y-102692380D01*
X172266904Y-102740000D01*
X172695476Y-103692380D02*
X172695476Y-102692380D01*
X172933571Y-102692380D01*
X173076428Y-102740000D01*
X173171666Y-102835238D01*
X173219285Y-102930476D01*
X173266904Y-103120952D01*
X173266904Y-103263809D01*
X173219285Y-103454285D01*
X173171666Y-103549523D01*
X173076428Y-103644761D01*
X172933571Y-103692380D01*
X172695476Y-103692380D01*
X173885952Y-102692380D02*
X174076428Y-102692380D01*
X174171666Y-102740000D01*
X174266904Y-102835238D01*
X174314523Y-103025714D01*
X174314523Y-103359047D01*
X174266904Y-103549523D01*
X174171666Y-103644761D01*
X174076428Y-103692380D01*
X173885952Y-103692380D01*
X173790714Y-103644761D01*
X173695476Y-103549523D01*
X173647857Y-103359047D01*
X173647857Y-103025714D01*
X173695476Y-102835238D01*
X173790714Y-102740000D01*
X173885952Y-102692380D01*
X171695476Y-105344761D02*
X171838333Y-105392380D01*
X172076428Y-105392380D01*
X172171666Y-105344761D01*
X172219285Y-105297142D01*
X172266904Y-105201904D01*
X172266904Y-105106666D01*
X172219285Y-105011428D01*
X172171666Y-104963809D01*
X172076428Y-104916190D01*
X171885952Y-104868571D01*
X171790714Y-104820952D01*
X171743095Y-104773333D01*
X171695476Y-104678095D01*
X171695476Y-104582857D01*
X171743095Y-104487619D01*
X171790714Y-104440000D01*
X171885952Y-104392380D01*
X172124047Y-104392380D01*
X172266904Y-104440000D01*
X172695476Y-105392380D02*
X172695476Y-104392380D01*
X172933571Y-104392380D01*
X173076428Y-104440000D01*
X173171666Y-104535238D01*
X173219285Y-104630476D01*
X173266904Y-104820952D01*
X173266904Y-104963809D01*
X173219285Y-105154285D01*
X173171666Y-105249523D01*
X173076428Y-105344761D01*
X172933571Y-105392380D01*
X172695476Y-105392380D01*
X173695476Y-105392380D02*
X173695476Y-104392380D01*
X171695476Y-107044761D02*
X171838333Y-107092380D01*
X172076428Y-107092380D01*
X172171666Y-107044761D01*
X172219285Y-106997142D01*
X172266904Y-106901904D01*
X172266904Y-106806666D01*
X172219285Y-106711428D01*
X172171666Y-106663809D01*
X172076428Y-106616190D01*
X171885952Y-106568571D01*
X171790714Y-106520952D01*
X171743095Y-106473333D01*
X171695476Y-106378095D01*
X171695476Y-106282857D01*
X171743095Y-106187619D01*
X171790714Y-106140000D01*
X171885952Y-106092380D01*
X172124047Y-106092380D01*
X172266904Y-106140000D01*
X173266904Y-106997142D02*
X173219285Y-107044761D01*
X173076428Y-107092380D01*
X172981190Y-107092380D01*
X172838333Y-107044761D01*
X172743095Y-106949523D01*
X172695476Y-106854285D01*
X172647857Y-106663809D01*
X172647857Y-106520952D01*
X172695476Y-106330476D01*
X172743095Y-106235238D01*
X172838333Y-106140000D01*
X172981190Y-106092380D01*
X173076428Y-106092380D01*
X173219285Y-106140000D01*
X173266904Y-106187619D01*
X174171666Y-107092380D02*
X173695476Y-107092380D01*
X173695476Y-106092380D01*
X174505000Y-107092380D02*
X174505000Y-106092380D01*
X175076428Y-107092380D02*
X174647857Y-106520952D01*
X175076428Y-106092380D02*
X174505000Y-106663809D01*
X172314523Y-108697142D02*
X172266904Y-108744761D01*
X172124047Y-108792380D01*
X172028809Y-108792380D01*
X171885952Y-108744761D01*
X171790714Y-108649523D01*
X171743095Y-108554285D01*
X171695476Y-108363809D01*
X171695476Y-108220952D01*
X171743095Y-108030476D01*
X171790714Y-107935238D01*
X171885952Y-107840000D01*
X172028809Y-107792380D01*
X172124047Y-107792380D01*
X172266904Y-107840000D01*
X172314523Y-107887619D01*
X172695476Y-108744761D02*
X172838333Y-108792380D01*
X173076428Y-108792380D01*
X173171666Y-108744761D01*
X173219285Y-108697142D01*
X173266904Y-108601904D01*
X173266904Y-108506666D01*
X173219285Y-108411428D01*
X173171666Y-108363809D01*
X173076428Y-108316190D01*
X172885952Y-108268571D01*
X172790714Y-108220952D01*
X172743095Y-108173333D01*
X172695476Y-108078095D01*
X172695476Y-107982857D01*
X172743095Y-107887619D01*
X172790714Y-107840000D01*
X172885952Y-107792380D01*
X173124047Y-107792380D01*
X173266904Y-107840000D01*
X174028809Y-108268571D02*
X174171666Y-108316190D01*
X174219285Y-108363809D01*
X174266904Y-108459047D01*
X174266904Y-108601904D01*
X174219285Y-108697142D01*
X174171666Y-108744761D01*
X174076428Y-108792380D01*
X173695476Y-108792380D01*
X173695476Y-107792380D01*
X174028809Y-107792380D01*
X174124047Y-107840000D01*
X174171666Y-107887619D01*
X174219285Y-107982857D01*
X174219285Y-108078095D01*
X174171666Y-108173333D01*
X174124047Y-108220952D01*
X174028809Y-108268571D01*
X173695476Y-108268571D01*
X172266904Y-109540000D02*
X172171666Y-109492380D01*
X172028809Y-109492380D01*
X171885952Y-109540000D01*
X171790714Y-109635238D01*
X171743095Y-109730476D01*
X171695476Y-109920952D01*
X171695476Y-110063809D01*
X171743095Y-110254285D01*
X171790714Y-110349523D01*
X171885952Y-110444761D01*
X172028809Y-110492380D01*
X172124047Y-110492380D01*
X172266904Y-110444761D01*
X172314523Y-110397142D01*
X172314523Y-110063809D01*
X172124047Y-110063809D01*
X172743095Y-110492380D02*
X172743095Y-109492380D01*
X173314523Y-110492380D01*
X173314523Y-109492380D01*
X173790714Y-110492380D02*
X173790714Y-109492380D01*
X174028809Y-109492380D01*
X174171666Y-109540000D01*
X174266904Y-109635238D01*
X174314523Y-109730476D01*
X174362142Y-109920952D01*
X174362142Y-110063809D01*
X174314523Y-110254285D01*
X174266904Y-110349523D01*
X174171666Y-110444761D01*
X174028809Y-110492380D01*
X173790714Y-110492380D01*
D11*
%TO.C,C4*%
X113415000Y-96698578D02*
X113415000Y-96181422D01*
X114835000Y-96698578D02*
X114835000Y-96181422D01*
%TO.C,U1*%
X112885000Y-97070000D02*
X112885000Y-94640000D01*
X109815000Y-95310000D02*
X109815000Y-97070000D01*
%TO.C,RV101*%
X98544000Y-96459000D02*
X103585000Y-96459000D01*
X98544000Y-106500000D02*
X103585000Y-106500000D01*
X103585000Y-96459000D02*
X103585000Y-106500000D01*
X98544000Y-105405000D02*
X98544000Y-106500000D01*
X98544000Y-96459000D02*
X98544000Y-97554000D01*
X98544000Y-100406000D02*
X98544000Y-102555000D01*
X99902000Y-99860000D02*
X103585000Y-99860000D01*
X99902000Y-103100000D02*
X103585000Y-103100000D01*
X98544000Y-100406000D02*
X98544000Y-102555000D01*
X103585000Y-99860000D02*
X103585000Y-103100000D01*
%TO.C,J103*%
X99875000Y-92690000D02*
X102535000Y-92690000D01*
X99875000Y-87550000D02*
X99875000Y-92690000D01*
X102535000Y-87550000D02*
X102535000Y-92690000D01*
X99875000Y-87550000D02*
X102535000Y-87550000D01*
X99875000Y-86280000D02*
X99875000Y-84950000D01*
X99875000Y-84950000D02*
X101205000Y-84950000D01*
%TO.C,R101*%
X106397936Y-88705000D02*
X106852064Y-88705000D01*
X106397936Y-90175000D02*
X106852064Y-90175000D01*
%TO.C,C1*%
X111116422Y-93400000D02*
X111633578Y-93400000D01*
X111116422Y-91980000D02*
X111633578Y-91980000D01*
%TO.C,J1*%
X107615000Y-82530000D02*
X106285000Y-82530000D01*
X107615000Y-81200000D02*
X107615000Y-82530000D01*
X107615000Y-79930000D02*
X104955000Y-79930000D01*
X104955000Y-79930000D02*
X104955000Y-77330000D01*
X107615000Y-79930000D02*
X107615000Y-77330000D01*
X107615000Y-77330000D02*
X104955000Y-77330000D01*
%TO.C,R6*%
X111635000Y-102852779D02*
X111635000Y-102527221D01*
X110615000Y-102852779D02*
X110615000Y-102527221D01*
%TO.C,C107*%
X118360000Y-104951252D02*
X118360000Y-104428748D01*
X116890000Y-104951252D02*
X116890000Y-104428748D01*
%TO.C,C106*%
X118360000Y-83451252D02*
X118360000Y-82928748D01*
X116890000Y-83451252D02*
X116890000Y-82928748D01*
%TO.C,R104*%
X110360000Y-108917064D02*
X110360000Y-108462936D01*
X108890000Y-108917064D02*
X108890000Y-108462936D01*
%TO.C,R103*%
X109860000Y-101712936D02*
X109860000Y-102167064D01*
X108390000Y-101712936D02*
X108390000Y-102167064D01*
%TO.C,R102*%
X110110000Y-88917064D02*
X110110000Y-88462936D01*
X108640000Y-88917064D02*
X108640000Y-88462936D01*
%TO.C,C103*%
X118360000Y-107928748D02*
X118360000Y-108451252D01*
X116890000Y-107928748D02*
X116890000Y-108451252D01*
%TO.C,C105*%
X172113748Y-87955000D02*
X172636252Y-87955000D01*
X172113748Y-89425000D02*
X172636252Y-89425000D01*
%TO.C,C102*%
X118360000Y-86428748D02*
X118360000Y-86951252D01*
X116890000Y-86428748D02*
X116890000Y-86951252D01*
%TO.C,C101*%
X118136252Y-97175000D02*
X117613748Y-97175000D01*
X118136252Y-95705000D02*
X117613748Y-95705000D01*
%TO.C,J102*%
X160835000Y-72370000D02*
X160835000Y-71040000D01*
X162165000Y-72370000D02*
X160835000Y-72370000D01*
X163435000Y-72370000D02*
X163435000Y-69710000D01*
X163435000Y-69710000D02*
X168575000Y-69710000D01*
X163435000Y-72370000D02*
X168575000Y-72370000D01*
X168575000Y-72370000D02*
X168575000Y-69710000D01*
%TO.C,J101*%
X176075000Y-87490000D02*
X177405000Y-87490000D01*
X176075000Y-88820000D02*
X176075000Y-87490000D01*
X176075000Y-90090000D02*
X178735000Y-90090000D01*
X178735000Y-90090000D02*
X178735000Y-105390000D01*
X176075000Y-90090000D02*
X176075000Y-105390000D01*
X176075000Y-105390000D02*
X178735000Y-105390000D01*
%TO.C,J3*%
X104955000Y-110350000D02*
X106285000Y-110350000D01*
X104955000Y-111680000D02*
X104955000Y-110350000D01*
X104955000Y-112950000D02*
X107615000Y-112950000D01*
X107615000Y-112950000D02*
X107615000Y-115550000D01*
X104955000Y-112950000D02*
X104955000Y-115550000D01*
X104955000Y-115550000D02*
X107615000Y-115550000D01*
%TO.C,L3*%
X130625000Y-108080000D02*
X130625000Y-110280000D01*
X137825000Y-108080000D02*
X130625000Y-108080000D01*
X137825000Y-110280000D02*
X137825000Y-108080000D01*
X137825000Y-115280000D02*
X137825000Y-113080000D01*
X130625000Y-115280000D02*
X137825000Y-115280000D01*
X130625000Y-115280000D02*
X130625000Y-113080000D01*
%TO.C,L4*%
X130625000Y-97920000D02*
X130625000Y-100120000D01*
X137825000Y-97920000D02*
X130625000Y-97920000D01*
X137825000Y-100120000D02*
X137825000Y-97920000D01*
X137825000Y-105120000D02*
X137825000Y-102920000D01*
X130625000Y-105120000D02*
X137825000Y-105120000D01*
X130625000Y-105120000D02*
X130625000Y-102920000D01*
%TO.C,L1*%
X130625000Y-87760000D02*
X130625000Y-89960000D01*
X137825000Y-87760000D02*
X130625000Y-87760000D01*
X137825000Y-89960000D02*
X137825000Y-87760000D01*
X137825000Y-94960000D02*
X137825000Y-92760000D01*
X130625000Y-94960000D02*
X137825000Y-94960000D01*
X130625000Y-94960000D02*
X130625000Y-92760000D01*
%TO.C,L2*%
X130625000Y-77600000D02*
X130625000Y-79800000D01*
X137825000Y-77600000D02*
X130625000Y-77600000D01*
X137825000Y-79800000D02*
X137825000Y-77600000D01*
X137825000Y-84800000D02*
X137825000Y-82600000D01*
X130625000Y-84800000D02*
X137825000Y-84800000D01*
X130625000Y-84800000D02*
X130625000Y-82600000D01*
%TO.C,L8*%
X143325000Y-97920000D02*
X143325000Y-100120000D01*
X150525000Y-97920000D02*
X143325000Y-97920000D01*
X150525000Y-100120000D02*
X150525000Y-97920000D01*
X150525000Y-105120000D02*
X150525000Y-102920000D01*
X143325000Y-105120000D02*
X150525000Y-105120000D01*
X143325000Y-105120000D02*
X143325000Y-102920000D01*
%TO.C,L6*%
X143325000Y-77600000D02*
X143325000Y-79800000D01*
X150525000Y-77600000D02*
X143325000Y-77600000D01*
X150525000Y-79800000D02*
X150525000Y-77600000D01*
X150525000Y-84800000D02*
X150525000Y-82600000D01*
X143325000Y-84800000D02*
X150525000Y-84800000D01*
X143325000Y-84800000D02*
X143325000Y-82600000D01*
%TO.C,L7*%
X143325000Y-108080000D02*
X143325000Y-110280000D01*
X150525000Y-108080000D02*
X143325000Y-108080000D01*
X150525000Y-110280000D02*
X150525000Y-108080000D01*
X150525000Y-115280000D02*
X150525000Y-113080000D01*
X143325000Y-115280000D02*
X150525000Y-115280000D01*
X143325000Y-115280000D02*
X143325000Y-113080000D01*
%TO.C,L5*%
X143325000Y-87760000D02*
X143325000Y-89960000D01*
X150525000Y-87760000D02*
X143325000Y-87760000D01*
X150525000Y-89960000D02*
X150525000Y-87760000D01*
X150525000Y-94960000D02*
X150525000Y-92760000D01*
X143325000Y-94960000D02*
X150525000Y-94960000D01*
X143325000Y-94960000D02*
X143325000Y-92760000D01*
%TO.C,R10*%
X113787779Y-101430000D02*
X113462221Y-101430000D01*
X113787779Y-102450000D02*
X113462221Y-102450000D01*
%TO.C,R18*%
X124825000Y-104302779D02*
X124825000Y-103977221D01*
X125845000Y-104302779D02*
X125845000Y-103977221D01*
%TO.C,C10*%
X127165000Y-86538578D02*
X127165000Y-86021422D01*
X128585000Y-86538578D02*
X128585000Y-86021422D01*
%TO.C,U4*%
X170235000Y-94805000D02*
X170235000Y-94330000D01*
X166015000Y-98550000D02*
X166490000Y-98550000D01*
X166015000Y-98075000D02*
X166015000Y-98550000D01*
X166015000Y-94330000D02*
X166490000Y-94330000D01*
X166015000Y-94805000D02*
X166015000Y-94330000D01*
X170235000Y-98550000D02*
X169760000Y-98550000D01*
X170235000Y-98075000D02*
X170235000Y-98550000D01*
%TO.C,U3*%
X113015000Y-106690000D02*
X113015000Y-108190000D01*
X113015000Y-106690000D02*
X113015000Y-105190000D01*
X116235000Y-106690000D02*
X116235000Y-108190000D01*
X116235000Y-106690000D02*
X116235000Y-103765000D01*
%TO.C,U2*%
X113015000Y-84940000D02*
X113015000Y-86440000D01*
X113015000Y-84940000D02*
X113015000Y-83440000D01*
X116235000Y-84940000D02*
X116235000Y-86440000D01*
X116235000Y-84940000D02*
X116235000Y-82015000D01*
%TO.C,R26*%
X165716422Y-75560000D02*
X166233578Y-75560000D01*
X165716422Y-74140000D02*
X166233578Y-74140000D01*
%TO.C,R25*%
X181473578Y-102230000D02*
X180956422Y-102230000D01*
X181473578Y-100810000D02*
X180956422Y-100810000D01*
%TO.C,R24*%
X180956422Y-98270000D02*
X181473578Y-98270000D01*
X180956422Y-99690000D02*
X181473578Y-99690000D01*
%TO.C,R23*%
X181473578Y-94610000D02*
X180956422Y-94610000D01*
X181473578Y-93190000D02*
X180956422Y-93190000D01*
%TO.C,R22*%
X180956422Y-95730000D02*
X181473578Y-95730000D01*
X180956422Y-97150000D02*
X181473578Y-97150000D01*
%TO.C,R21*%
X181473578Y-92070000D02*
X180956422Y-92070000D01*
X181473578Y-90650000D02*
X180956422Y-90650000D01*
%TO.C,R20*%
X155305000Y-106762779D02*
X155305000Y-106437221D01*
X156325000Y-106762779D02*
X156325000Y-106437221D01*
%TO.C,R19*%
X155305000Y-86442779D02*
X155305000Y-86117221D01*
X156325000Y-86442779D02*
X156325000Y-86117221D01*
%TO.C,R17*%
X125845000Y-108977221D02*
X125845000Y-109302779D01*
X124825000Y-108977221D02*
X124825000Y-109302779D01*
%TO.C,R16*%
X124825000Y-83902779D02*
X124825000Y-83577221D01*
X125845000Y-83902779D02*
X125845000Y-83577221D01*
%TO.C,R15*%
X125845000Y-88657221D02*
X125845000Y-88982779D01*
X124825000Y-88657221D02*
X124825000Y-88982779D01*
%TO.C,R14*%
X116635000Y-101027221D02*
X116635000Y-101352779D01*
X115615000Y-101027221D02*
X115615000Y-101352779D01*
%TO.C,R13*%
X115615000Y-112102779D02*
X115615000Y-111777221D01*
X116635000Y-112102779D02*
X116635000Y-111777221D01*
%TO.C,R12*%
X116635000Y-79527221D02*
X116635000Y-79852779D01*
X115615000Y-79527221D02*
X115615000Y-79852779D01*
%TO.C,R11*%
X115615000Y-90602779D02*
X115615000Y-90277221D01*
X116635000Y-90602779D02*
X116635000Y-90277221D01*
%TO.C,R9*%
X114037779Y-111700000D02*
X113712221Y-111700000D01*
X114037779Y-110680000D02*
X113712221Y-110680000D01*
%TO.C,R8*%
X114037779Y-79930000D02*
X113712221Y-79930000D01*
X114037779Y-80950000D02*
X113712221Y-80950000D01*
%TO.C,R7*%
X114037779Y-90200000D02*
X113712221Y-90200000D01*
X114037779Y-89180000D02*
X113712221Y-89180000D01*
%TO.C,R5*%
X112135000Y-81352779D02*
X112135000Y-81027221D01*
X111115000Y-81352779D02*
X111115000Y-81027221D01*
%TO.C,L9*%
X168365000Y-91602779D02*
X168365000Y-91277221D01*
X169385000Y-91602779D02*
X169385000Y-91277221D01*
%TO.C,JP8*%
X160955000Y-97650000D02*
X158295000Y-97650000D01*
X160955000Y-102790000D02*
X160955000Y-97650000D01*
X158295000Y-102790000D02*
X158295000Y-97650000D01*
X160955000Y-102790000D02*
X158295000Y-102790000D01*
X160955000Y-104060000D02*
X160955000Y-105390000D01*
X160955000Y-105390000D02*
X159625000Y-105390000D01*
%TO.C,JP7*%
X158295000Y-115550000D02*
X160955000Y-115550000D01*
X158295000Y-110410000D02*
X158295000Y-115550000D01*
X160955000Y-110410000D02*
X160955000Y-115550000D01*
X158295000Y-110410000D02*
X160955000Y-110410000D01*
X158295000Y-109140000D02*
X158295000Y-107810000D01*
X158295000Y-107810000D02*
X159625000Y-107810000D01*
%TO.C,JP6*%
X160955000Y-77330000D02*
X158295000Y-77330000D01*
X160955000Y-82470000D02*
X160955000Y-77330000D01*
X158295000Y-82470000D02*
X158295000Y-77330000D01*
X160955000Y-82470000D02*
X158295000Y-82470000D01*
X160955000Y-83740000D02*
X160955000Y-85070000D01*
X160955000Y-85070000D02*
X159625000Y-85070000D01*
%TO.C,JP5*%
X158295000Y-95230000D02*
X160955000Y-95230000D01*
X158295000Y-90090000D02*
X158295000Y-95230000D01*
X160955000Y-90090000D02*
X160955000Y-95230000D01*
X158295000Y-90090000D02*
X160955000Y-90090000D01*
X158295000Y-88820000D02*
X158295000Y-87490000D01*
X158295000Y-87490000D02*
X159625000Y-87490000D01*
%TO.C,JP4*%
X122855000Y-97650000D02*
X120195000Y-97650000D01*
X122855000Y-102790000D02*
X122855000Y-97650000D01*
X120195000Y-102790000D02*
X120195000Y-97650000D01*
X122855000Y-102790000D02*
X120195000Y-102790000D01*
X122855000Y-104060000D02*
X122855000Y-105390000D01*
X122855000Y-105390000D02*
X121525000Y-105390000D01*
%TO.C,JP3*%
X120195000Y-115550000D02*
X122855000Y-115550000D01*
X120195000Y-110410000D02*
X120195000Y-115550000D01*
X122855000Y-110410000D02*
X122855000Y-115550000D01*
X120195000Y-110410000D02*
X122855000Y-110410000D01*
X120195000Y-109140000D02*
X120195000Y-107810000D01*
X120195000Y-107810000D02*
X121525000Y-107810000D01*
%TO.C,JP2*%
X122855000Y-77330000D02*
X120195000Y-77330000D01*
X122855000Y-82470000D02*
X122855000Y-77330000D01*
X120195000Y-82470000D02*
X120195000Y-77330000D01*
X122855000Y-82470000D02*
X120195000Y-82470000D01*
X122855000Y-83740000D02*
X122855000Y-85070000D01*
X122855000Y-85070000D02*
X121525000Y-85070000D01*
%TO.C,JP1*%
X120195000Y-95230000D02*
X122855000Y-95230000D01*
X120195000Y-90090000D02*
X120195000Y-95230000D01*
X122855000Y-90090000D02*
X122855000Y-95230000D01*
X120195000Y-90090000D02*
X122855000Y-90090000D01*
X120195000Y-88820000D02*
X120195000Y-87490000D01*
X120195000Y-87490000D02*
X121525000Y-87490000D01*
%TO.C,J7*%
X180415000Y-116690000D02*
X180915000Y-116440000D01*
X180415000Y-116190000D02*
X180415000Y-116690000D01*
X180915000Y-116440000D02*
X180415000Y-116190000D01*
%TO.C,J5*%
X180415000Y-76690000D02*
X180915000Y-76440000D01*
X180415000Y-76190000D02*
X180415000Y-76690000D01*
X180915000Y-76440000D02*
X180415000Y-76190000D01*
%TO.C,J4*%
X102805000Y-116440000D02*
X103305000Y-116690000D01*
X103305000Y-116690000D02*
X103305000Y-116190000D01*
X103305000Y-116190000D02*
X102805000Y-116440000D01*
%TO.C,J2*%
X102805000Y-76440000D02*
X103305000Y-76690000D01*
X103305000Y-76690000D02*
X103305000Y-76190000D01*
X103305000Y-76190000D02*
X102805000Y-76440000D01*
%TO.C,C32*%
X172116422Y-89980000D02*
X172633578Y-89980000D01*
X172116422Y-91400000D02*
X172633578Y-91400000D01*
%TO.C,C31*%
X172212221Y-91930000D02*
X172537779Y-91930000D01*
X172212221Y-92950000D02*
X172537779Y-92950000D01*
%TO.C,C30*%
X167865000Y-101352779D02*
X167865000Y-101027221D01*
X168885000Y-101352779D02*
X168885000Y-101027221D01*
%TO.C,C29*%
X172212221Y-93680000D02*
X172537779Y-93680000D01*
X172212221Y-94700000D02*
X172537779Y-94700000D01*
%TO.C,C28*%
X166865000Y-91602779D02*
X166865000Y-91277221D01*
X167885000Y-91602779D02*
X167885000Y-91277221D01*
%TO.C,C26*%
X152765000Y-102952779D02*
X152765000Y-102627221D01*
X153785000Y-102952779D02*
X153785000Y-102627221D01*
%TO.C,C25*%
X152765000Y-106762779D02*
X152765000Y-106437221D01*
X153785000Y-106762779D02*
X153785000Y-106437221D01*
%TO.C,C24*%
X152765000Y-110572779D02*
X152765000Y-110247221D01*
X153785000Y-110572779D02*
X153785000Y-110247221D01*
%TO.C,C23*%
X152765000Y-82632779D02*
X152765000Y-82307221D01*
X153785000Y-82632779D02*
X153785000Y-82307221D01*
%TO.C,C22*%
X152765000Y-86442779D02*
X152765000Y-86117221D01*
X153785000Y-86442779D02*
X153785000Y-86117221D01*
%TO.C,C21*%
X152765000Y-90252779D02*
X152765000Y-89927221D01*
X153785000Y-90252779D02*
X153785000Y-89927221D01*
%TO.C,C20*%
X140065000Y-102952779D02*
X140065000Y-102627221D01*
X141085000Y-102952779D02*
X141085000Y-102627221D01*
%TO.C,C19*%
X140065000Y-106762779D02*
X140065000Y-106437221D01*
X141085000Y-106762779D02*
X141085000Y-106437221D01*
%TO.C,C18*%
X140065000Y-110572779D02*
X140065000Y-110247221D01*
X141085000Y-110572779D02*
X141085000Y-110247221D01*
%TO.C,C17*%
X140065000Y-82632779D02*
X140065000Y-82307221D01*
X141085000Y-82632779D02*
X141085000Y-82307221D01*
%TO.C,C16*%
X140065000Y-86442779D02*
X140065000Y-86117221D01*
X141085000Y-86442779D02*
X141085000Y-86117221D01*
%TO.C,C15*%
X140065000Y-90252779D02*
X140065000Y-89927221D01*
X141085000Y-90252779D02*
X141085000Y-89927221D01*
%TO.C,C14*%
X127365000Y-102397779D02*
X127365000Y-102072221D01*
X128385000Y-102397779D02*
X128385000Y-102072221D01*
%TO.C,C13*%
X127165000Y-106858578D02*
X127165000Y-106341422D01*
X128585000Y-106858578D02*
X128585000Y-106341422D01*
%TO.C,C12*%
X128385000Y-110247221D02*
X128385000Y-110572779D01*
X127365000Y-110247221D02*
X127365000Y-110572779D01*
%TO.C,C11*%
X127365000Y-82632779D02*
X127365000Y-82307221D01*
X128385000Y-82632779D02*
X128385000Y-82307221D01*
%TO.C,C9*%
X128385000Y-89927221D02*
X128385000Y-90252779D01*
X127365000Y-89927221D02*
X127365000Y-90252779D01*
%TO.C,C8*%
X118135000Y-101027221D02*
X118135000Y-101352779D01*
X117115000Y-101027221D02*
X117115000Y-101352779D01*
%TO.C,C7*%
X117115000Y-112102779D02*
X117115000Y-111777221D01*
X118135000Y-112102779D02*
X118135000Y-111777221D01*
%TO.C,C6*%
X118135000Y-79527221D02*
X118135000Y-79852779D01*
X117115000Y-79527221D02*
X117115000Y-79852779D01*
%TO.C,C5*%
X117115000Y-90602779D02*
X117115000Y-90277221D01*
X118135000Y-90602779D02*
X118135000Y-90277221D01*
%TO.C,C3*%
X110915000Y-108948578D02*
X110915000Y-108431422D01*
X112335000Y-108948578D02*
X112335000Y-108431422D01*
%TO.C,C2*%
X110665000Y-88948578D02*
X110665000Y-88431422D01*
X112085000Y-88948578D02*
X112085000Y-88431422D01*
%TO.C,C4*%
D10*
X115241666Y-94725714D02*
X115203571Y-94763809D01*
X115089285Y-94801904D01*
X115013095Y-94801904D01*
X114898809Y-94763809D01*
X114822619Y-94687619D01*
X114784523Y-94611428D01*
X114746428Y-94459047D01*
X114746428Y-94344761D01*
X114784523Y-94192380D01*
X114822619Y-94116190D01*
X114898809Y-94040000D01*
X115013095Y-94001904D01*
X115089285Y-94001904D01*
X115203571Y-94040000D01*
X115241666Y-94078095D01*
X115927380Y-94268571D02*
X115927380Y-94801904D01*
X115736904Y-93963809D02*
X115546428Y-94535238D01*
X116041666Y-94535238D01*
%TO.C,U1*%
X108015476Y-97251904D02*
X108015476Y-97899523D01*
X108053571Y-97975714D01*
X108091666Y-98013809D01*
X108167857Y-98051904D01*
X108320238Y-98051904D01*
X108396428Y-98013809D01*
X108434523Y-97975714D01*
X108472619Y-97899523D01*
X108472619Y-97251904D01*
X109272619Y-98051904D02*
X108815476Y-98051904D01*
X109044047Y-98051904D02*
X109044047Y-97251904D01*
X108967857Y-97366190D01*
X108891666Y-97442380D01*
X108815476Y-97480476D01*
%TO.C,RV101*%
X99386904Y-96051904D02*
X99120238Y-95670952D01*
X98929761Y-96051904D02*
X98929761Y-95251904D01*
X99234523Y-95251904D01*
X99310714Y-95290000D01*
X99348809Y-95328095D01*
X99386904Y-95404285D01*
X99386904Y-95518571D01*
X99348809Y-95594761D01*
X99310714Y-95632857D01*
X99234523Y-95670952D01*
X98929761Y-95670952D01*
X99615476Y-95251904D02*
X99882142Y-96051904D01*
X100148809Y-95251904D01*
X100834523Y-96051904D02*
X100377380Y-96051904D01*
X100605952Y-96051904D02*
X100605952Y-95251904D01*
X100529761Y-95366190D01*
X100453571Y-95442380D01*
X100377380Y-95480476D01*
X101329761Y-95251904D02*
X101405952Y-95251904D01*
X101482142Y-95290000D01*
X101520238Y-95328095D01*
X101558333Y-95404285D01*
X101596428Y-95556666D01*
X101596428Y-95747142D01*
X101558333Y-95899523D01*
X101520238Y-95975714D01*
X101482142Y-96013809D01*
X101405952Y-96051904D01*
X101329761Y-96051904D01*
X101253571Y-96013809D01*
X101215476Y-95975714D01*
X101177380Y-95899523D01*
X101139285Y-95747142D01*
X101139285Y-95556666D01*
X101177380Y-95404285D01*
X101215476Y-95328095D01*
X101253571Y-95290000D01*
X101329761Y-95251904D01*
X102358333Y-96051904D02*
X101901190Y-96051904D01*
X102129761Y-96051904D02*
X102129761Y-95251904D01*
X102053571Y-95366190D01*
X101977380Y-95442380D01*
X101901190Y-95480476D01*
%TO.C,J103*%
X100176428Y-83511904D02*
X100176428Y-84083333D01*
X100138333Y-84197619D01*
X100062142Y-84273809D01*
X99947857Y-84311904D01*
X99871666Y-84311904D01*
X100976428Y-84311904D02*
X100519285Y-84311904D01*
X100747857Y-84311904D02*
X100747857Y-83511904D01*
X100671666Y-83626190D01*
X100595476Y-83702380D01*
X100519285Y-83740476D01*
X101471666Y-83511904D02*
X101547857Y-83511904D01*
X101624047Y-83550000D01*
X101662142Y-83588095D01*
X101700238Y-83664285D01*
X101738333Y-83816666D01*
X101738333Y-84007142D01*
X101700238Y-84159523D01*
X101662142Y-84235714D01*
X101624047Y-84273809D01*
X101547857Y-84311904D01*
X101471666Y-84311904D01*
X101395476Y-84273809D01*
X101357380Y-84235714D01*
X101319285Y-84159523D01*
X101281190Y-84007142D01*
X101281190Y-83816666D01*
X101319285Y-83664285D01*
X101357380Y-83588095D01*
X101395476Y-83550000D01*
X101471666Y-83511904D01*
X102005000Y-83511904D02*
X102500238Y-83511904D01*
X102233571Y-83816666D01*
X102347857Y-83816666D01*
X102424047Y-83854761D01*
X102462142Y-83892857D01*
X102500238Y-83969047D01*
X102500238Y-84159523D01*
X102462142Y-84235714D01*
X102424047Y-84273809D01*
X102347857Y-84311904D01*
X102119285Y-84311904D01*
X102043095Y-84273809D01*
X102005000Y-84235714D01*
%TO.C,R101*%
X105729761Y-88301904D02*
X105463095Y-87920952D01*
X105272619Y-88301904D02*
X105272619Y-87501904D01*
X105577380Y-87501904D01*
X105653571Y-87540000D01*
X105691666Y-87578095D01*
X105729761Y-87654285D01*
X105729761Y-87768571D01*
X105691666Y-87844761D01*
X105653571Y-87882857D01*
X105577380Y-87920952D01*
X105272619Y-87920952D01*
X106491666Y-88301904D02*
X106034523Y-88301904D01*
X106263095Y-88301904D02*
X106263095Y-87501904D01*
X106186904Y-87616190D01*
X106110714Y-87692380D01*
X106034523Y-87730476D01*
X106986904Y-87501904D02*
X107063095Y-87501904D01*
X107139285Y-87540000D01*
X107177380Y-87578095D01*
X107215476Y-87654285D01*
X107253571Y-87806666D01*
X107253571Y-87997142D01*
X107215476Y-88149523D01*
X107177380Y-88225714D01*
X107139285Y-88263809D01*
X107063095Y-88301904D01*
X106986904Y-88301904D01*
X106910714Y-88263809D01*
X106872619Y-88225714D01*
X106834523Y-88149523D01*
X106796428Y-87997142D01*
X106796428Y-87806666D01*
X106834523Y-87654285D01*
X106872619Y-87578095D01*
X106910714Y-87540000D01*
X106986904Y-87501904D01*
X108015476Y-88301904D02*
X107558333Y-88301904D01*
X107786904Y-88301904D02*
X107786904Y-87501904D01*
X107710714Y-87616190D01*
X107634523Y-87692380D01*
X107558333Y-87730476D01*
%TO.C,C1*%
X108741666Y-92975714D02*
X108703571Y-93013809D01*
X108589285Y-93051904D01*
X108513095Y-93051904D01*
X108398809Y-93013809D01*
X108322619Y-92937619D01*
X108284523Y-92861428D01*
X108246428Y-92709047D01*
X108246428Y-92594761D01*
X108284523Y-92442380D01*
X108322619Y-92366190D01*
X108398809Y-92290000D01*
X108513095Y-92251904D01*
X108589285Y-92251904D01*
X108703571Y-92290000D01*
X108741666Y-92328095D01*
X109503571Y-93051904D02*
X109046428Y-93051904D01*
X109275000Y-93051904D02*
X109275000Y-92251904D01*
X109198809Y-92366190D01*
X109122619Y-92442380D01*
X109046428Y-92480476D01*
%TO.C,R6*%
X110991666Y-101051904D02*
X110725000Y-100670952D01*
X110534523Y-101051904D02*
X110534523Y-100251904D01*
X110839285Y-100251904D01*
X110915476Y-100290000D01*
X110953571Y-100328095D01*
X110991666Y-100404285D01*
X110991666Y-100518571D01*
X110953571Y-100594761D01*
X110915476Y-100632857D01*
X110839285Y-100670952D01*
X110534523Y-100670952D01*
X111677380Y-100251904D02*
X111525000Y-100251904D01*
X111448809Y-100290000D01*
X111410714Y-100328095D01*
X111334523Y-100442380D01*
X111296428Y-100594761D01*
X111296428Y-100899523D01*
X111334523Y-100975714D01*
X111372619Y-101013809D01*
X111448809Y-101051904D01*
X111601190Y-101051904D01*
X111677380Y-101013809D01*
X111715476Y-100975714D01*
X111753571Y-100899523D01*
X111753571Y-100709047D01*
X111715476Y-100632857D01*
X111677380Y-100594761D01*
X111601190Y-100556666D01*
X111448809Y-100556666D01*
X111372619Y-100594761D01*
X111334523Y-100632857D01*
X111296428Y-100709047D01*
%TO.C,C107*%
X119660714Y-104835238D02*
X119698809Y-104873333D01*
X119736904Y-104987619D01*
X119736904Y-105063809D01*
X119698809Y-105178095D01*
X119622619Y-105254285D01*
X119546428Y-105292380D01*
X119394047Y-105330476D01*
X119279761Y-105330476D01*
X119127380Y-105292380D01*
X119051190Y-105254285D01*
X118975000Y-105178095D01*
X118936904Y-105063809D01*
X118936904Y-104987619D01*
X118975000Y-104873333D01*
X119013095Y-104835238D01*
X119736904Y-104073333D02*
X119736904Y-104530476D01*
X119736904Y-104301904D02*
X118936904Y-104301904D01*
X119051190Y-104378095D01*
X119127380Y-104454285D01*
X119165476Y-104530476D01*
X118936904Y-103578095D02*
X118936904Y-103501904D01*
X118975000Y-103425714D01*
X119013095Y-103387619D01*
X119089285Y-103349523D01*
X119241666Y-103311428D01*
X119432142Y-103311428D01*
X119584523Y-103349523D01*
X119660714Y-103387619D01*
X119698809Y-103425714D01*
X119736904Y-103501904D01*
X119736904Y-103578095D01*
X119698809Y-103654285D01*
X119660714Y-103692380D01*
X119584523Y-103730476D01*
X119432142Y-103768571D01*
X119241666Y-103768571D01*
X119089285Y-103730476D01*
X119013095Y-103692380D01*
X118975000Y-103654285D01*
X118936904Y-103578095D01*
X118936904Y-103044761D02*
X118936904Y-102511428D01*
X119736904Y-102854285D01*
%TO.C,C106*%
X119660714Y-85085238D02*
X119698809Y-85123333D01*
X119736904Y-85237619D01*
X119736904Y-85313809D01*
X119698809Y-85428095D01*
X119622619Y-85504285D01*
X119546428Y-85542380D01*
X119394047Y-85580476D01*
X119279761Y-85580476D01*
X119127380Y-85542380D01*
X119051190Y-85504285D01*
X118975000Y-85428095D01*
X118936904Y-85313809D01*
X118936904Y-85237619D01*
X118975000Y-85123333D01*
X119013095Y-85085238D01*
X119736904Y-84323333D02*
X119736904Y-84780476D01*
X119736904Y-84551904D02*
X118936904Y-84551904D01*
X119051190Y-84628095D01*
X119127380Y-84704285D01*
X119165476Y-84780476D01*
X118936904Y-83828095D02*
X118936904Y-83751904D01*
X118975000Y-83675714D01*
X119013095Y-83637619D01*
X119089285Y-83599523D01*
X119241666Y-83561428D01*
X119432142Y-83561428D01*
X119584523Y-83599523D01*
X119660714Y-83637619D01*
X119698809Y-83675714D01*
X119736904Y-83751904D01*
X119736904Y-83828095D01*
X119698809Y-83904285D01*
X119660714Y-83942380D01*
X119584523Y-83980476D01*
X119432142Y-84018571D01*
X119241666Y-84018571D01*
X119089285Y-83980476D01*
X119013095Y-83942380D01*
X118975000Y-83904285D01*
X118936904Y-83828095D01*
X118936904Y-82875714D02*
X118936904Y-83028095D01*
X118975000Y-83104285D01*
X119013095Y-83142380D01*
X119127380Y-83218571D01*
X119279761Y-83256666D01*
X119584523Y-83256666D01*
X119660714Y-83218571D01*
X119698809Y-83180476D01*
X119736904Y-83104285D01*
X119736904Y-82951904D01*
X119698809Y-82875714D01*
X119660714Y-82837619D01*
X119584523Y-82799523D01*
X119394047Y-82799523D01*
X119317857Y-82837619D01*
X119279761Y-82875714D01*
X119241666Y-82951904D01*
X119241666Y-83104285D01*
X119279761Y-83180476D01*
X119317857Y-83218571D01*
X119394047Y-83256666D01*
%TO.C,R104*%
X108729761Y-106301904D02*
X108463095Y-105920952D01*
X108272619Y-106301904D02*
X108272619Y-105501904D01*
X108577380Y-105501904D01*
X108653571Y-105540000D01*
X108691666Y-105578095D01*
X108729761Y-105654285D01*
X108729761Y-105768571D01*
X108691666Y-105844761D01*
X108653571Y-105882857D01*
X108577380Y-105920952D01*
X108272619Y-105920952D01*
X109491666Y-106301904D02*
X109034523Y-106301904D01*
X109263095Y-106301904D02*
X109263095Y-105501904D01*
X109186904Y-105616190D01*
X109110714Y-105692380D01*
X109034523Y-105730476D01*
X109986904Y-105501904D02*
X110063095Y-105501904D01*
X110139285Y-105540000D01*
X110177380Y-105578095D01*
X110215476Y-105654285D01*
X110253571Y-105806666D01*
X110253571Y-105997142D01*
X110215476Y-106149523D01*
X110177380Y-106225714D01*
X110139285Y-106263809D01*
X110063095Y-106301904D01*
X109986904Y-106301904D01*
X109910714Y-106263809D01*
X109872619Y-106225714D01*
X109834523Y-106149523D01*
X109796428Y-105997142D01*
X109796428Y-105806666D01*
X109834523Y-105654285D01*
X109872619Y-105578095D01*
X109910714Y-105540000D01*
X109986904Y-105501904D01*
X110939285Y-105768571D02*
X110939285Y-106301904D01*
X110748809Y-105463809D02*
X110558333Y-106035238D01*
X111053571Y-106035238D01*
%TO.C,R103*%
X105729761Y-103051904D02*
X105463095Y-102670952D01*
X105272619Y-103051904D02*
X105272619Y-102251904D01*
X105577380Y-102251904D01*
X105653571Y-102290000D01*
X105691666Y-102328095D01*
X105729761Y-102404285D01*
X105729761Y-102518571D01*
X105691666Y-102594761D01*
X105653571Y-102632857D01*
X105577380Y-102670952D01*
X105272619Y-102670952D01*
X106491666Y-103051904D02*
X106034523Y-103051904D01*
X106263095Y-103051904D02*
X106263095Y-102251904D01*
X106186904Y-102366190D01*
X106110714Y-102442380D01*
X106034523Y-102480476D01*
X106986904Y-102251904D02*
X107063095Y-102251904D01*
X107139285Y-102290000D01*
X107177380Y-102328095D01*
X107215476Y-102404285D01*
X107253571Y-102556666D01*
X107253571Y-102747142D01*
X107215476Y-102899523D01*
X107177380Y-102975714D01*
X107139285Y-103013809D01*
X107063095Y-103051904D01*
X106986904Y-103051904D01*
X106910714Y-103013809D01*
X106872619Y-102975714D01*
X106834523Y-102899523D01*
X106796428Y-102747142D01*
X106796428Y-102556666D01*
X106834523Y-102404285D01*
X106872619Y-102328095D01*
X106910714Y-102290000D01*
X106986904Y-102251904D01*
X107520238Y-102251904D02*
X108015476Y-102251904D01*
X107748809Y-102556666D01*
X107863095Y-102556666D01*
X107939285Y-102594761D01*
X107977380Y-102632857D01*
X108015476Y-102709047D01*
X108015476Y-102899523D01*
X107977380Y-102975714D01*
X107939285Y-103013809D01*
X107863095Y-103051904D01*
X107634523Y-103051904D01*
X107558333Y-103013809D01*
X107520238Y-102975714D01*
%TO.C,R102*%
X109736904Y-85585238D02*
X109355952Y-85851904D01*
X109736904Y-86042380D02*
X108936904Y-86042380D01*
X108936904Y-85737619D01*
X108975000Y-85661428D01*
X109013095Y-85623333D01*
X109089285Y-85585238D01*
X109203571Y-85585238D01*
X109279761Y-85623333D01*
X109317857Y-85661428D01*
X109355952Y-85737619D01*
X109355952Y-86042380D01*
X109736904Y-84823333D02*
X109736904Y-85280476D01*
X109736904Y-85051904D02*
X108936904Y-85051904D01*
X109051190Y-85128095D01*
X109127380Y-85204285D01*
X109165476Y-85280476D01*
X108936904Y-84328095D02*
X108936904Y-84251904D01*
X108975000Y-84175714D01*
X109013095Y-84137619D01*
X109089285Y-84099523D01*
X109241666Y-84061428D01*
X109432142Y-84061428D01*
X109584523Y-84099523D01*
X109660714Y-84137619D01*
X109698809Y-84175714D01*
X109736904Y-84251904D01*
X109736904Y-84328095D01*
X109698809Y-84404285D01*
X109660714Y-84442380D01*
X109584523Y-84480476D01*
X109432142Y-84518571D01*
X109241666Y-84518571D01*
X109089285Y-84480476D01*
X109013095Y-84442380D01*
X108975000Y-84404285D01*
X108936904Y-84328095D01*
X109013095Y-83756666D02*
X108975000Y-83718571D01*
X108936904Y-83642380D01*
X108936904Y-83451904D01*
X108975000Y-83375714D01*
X109013095Y-83337619D01*
X109089285Y-83299523D01*
X109165476Y-83299523D01*
X109279761Y-83337619D01*
X109736904Y-83794761D01*
X109736904Y-83299523D01*
%TO.C,C103*%
X119660714Y-108335238D02*
X119698809Y-108373333D01*
X119736904Y-108487619D01*
X119736904Y-108563809D01*
X119698809Y-108678095D01*
X119622619Y-108754285D01*
X119546428Y-108792380D01*
X119394047Y-108830476D01*
X119279761Y-108830476D01*
X119127380Y-108792380D01*
X119051190Y-108754285D01*
X118975000Y-108678095D01*
X118936904Y-108563809D01*
X118936904Y-108487619D01*
X118975000Y-108373333D01*
X119013095Y-108335238D01*
X119736904Y-107573333D02*
X119736904Y-108030476D01*
X119736904Y-107801904D02*
X118936904Y-107801904D01*
X119051190Y-107878095D01*
X119127380Y-107954285D01*
X119165476Y-108030476D01*
X118936904Y-107078095D02*
X118936904Y-107001904D01*
X118975000Y-106925714D01*
X119013095Y-106887619D01*
X119089285Y-106849523D01*
X119241666Y-106811428D01*
X119432142Y-106811428D01*
X119584523Y-106849523D01*
X119660714Y-106887619D01*
X119698809Y-106925714D01*
X119736904Y-107001904D01*
X119736904Y-107078095D01*
X119698809Y-107154285D01*
X119660714Y-107192380D01*
X119584523Y-107230476D01*
X119432142Y-107268571D01*
X119241666Y-107268571D01*
X119089285Y-107230476D01*
X119013095Y-107192380D01*
X118975000Y-107154285D01*
X118936904Y-107078095D01*
X118936904Y-106544761D02*
X118936904Y-106049523D01*
X119241666Y-106316190D01*
X119241666Y-106201904D01*
X119279761Y-106125714D01*
X119317857Y-106087619D01*
X119394047Y-106049523D01*
X119584523Y-106049523D01*
X119660714Y-106087619D01*
X119698809Y-106125714D01*
X119736904Y-106201904D01*
X119736904Y-106430476D01*
X119698809Y-106506666D01*
X119660714Y-106544761D01*
%TO.C,C105*%
X171620119Y-83475714D02*
X171582023Y-83513809D01*
X171467738Y-83551904D01*
X171391547Y-83551904D01*
X171277261Y-83513809D01*
X171201071Y-83437619D01*
X171162976Y-83361428D01*
X171124880Y-83209047D01*
X171124880Y-83094761D01*
X171162976Y-82942380D01*
X171201071Y-82866190D01*
X171277261Y-82790000D01*
X171391547Y-82751904D01*
X171467738Y-82751904D01*
X171582023Y-82790000D01*
X171620119Y-82828095D01*
X172382023Y-83551904D02*
X171924880Y-83551904D01*
X172153452Y-83551904D02*
X172153452Y-82751904D01*
X172077261Y-82866190D01*
X172001071Y-82942380D01*
X171924880Y-82980476D01*
X172877261Y-82751904D02*
X172953452Y-82751904D01*
X173029642Y-82790000D01*
X173067738Y-82828095D01*
X173105833Y-82904285D01*
X173143928Y-83056666D01*
X173143928Y-83247142D01*
X173105833Y-83399523D01*
X173067738Y-83475714D01*
X173029642Y-83513809D01*
X172953452Y-83551904D01*
X172877261Y-83551904D01*
X172801071Y-83513809D01*
X172762976Y-83475714D01*
X172724880Y-83399523D01*
X172686785Y-83247142D01*
X172686785Y-83056666D01*
X172724880Y-82904285D01*
X172762976Y-82828095D01*
X172801071Y-82790000D01*
X172877261Y-82751904D01*
X173867738Y-82751904D02*
X173486785Y-82751904D01*
X173448690Y-83132857D01*
X173486785Y-83094761D01*
X173562976Y-83056666D01*
X173753452Y-83056666D01*
X173829642Y-83094761D01*
X173867738Y-83132857D01*
X173905833Y-83209047D01*
X173905833Y-83399523D01*
X173867738Y-83475714D01*
X173829642Y-83513809D01*
X173753452Y-83551904D01*
X173562976Y-83551904D01*
X173486785Y-83513809D01*
X173448690Y-83475714D01*
%TO.C,C102*%
X119660714Y-88585238D02*
X119698809Y-88623333D01*
X119736904Y-88737619D01*
X119736904Y-88813809D01*
X119698809Y-88928095D01*
X119622619Y-89004285D01*
X119546428Y-89042380D01*
X119394047Y-89080476D01*
X119279761Y-89080476D01*
X119127380Y-89042380D01*
X119051190Y-89004285D01*
X118975000Y-88928095D01*
X118936904Y-88813809D01*
X118936904Y-88737619D01*
X118975000Y-88623333D01*
X119013095Y-88585238D01*
X119736904Y-87823333D02*
X119736904Y-88280476D01*
X119736904Y-88051904D02*
X118936904Y-88051904D01*
X119051190Y-88128095D01*
X119127380Y-88204285D01*
X119165476Y-88280476D01*
X118936904Y-87328095D02*
X118936904Y-87251904D01*
X118975000Y-87175714D01*
X119013095Y-87137619D01*
X119089285Y-87099523D01*
X119241666Y-87061428D01*
X119432142Y-87061428D01*
X119584523Y-87099523D01*
X119660714Y-87137619D01*
X119698809Y-87175714D01*
X119736904Y-87251904D01*
X119736904Y-87328095D01*
X119698809Y-87404285D01*
X119660714Y-87442380D01*
X119584523Y-87480476D01*
X119432142Y-87518571D01*
X119241666Y-87518571D01*
X119089285Y-87480476D01*
X119013095Y-87442380D01*
X118975000Y-87404285D01*
X118936904Y-87328095D01*
X119013095Y-86756666D02*
X118975000Y-86718571D01*
X118936904Y-86642380D01*
X118936904Y-86451904D01*
X118975000Y-86375714D01*
X119013095Y-86337619D01*
X119089285Y-86299523D01*
X119165476Y-86299523D01*
X119279761Y-86337619D01*
X119736904Y-86794761D01*
X119736904Y-86299523D01*
%TO.C,C101*%
X120329761Y-96725714D02*
X120291666Y-96763809D01*
X120177380Y-96801904D01*
X120101190Y-96801904D01*
X119986904Y-96763809D01*
X119910714Y-96687619D01*
X119872619Y-96611428D01*
X119834523Y-96459047D01*
X119834523Y-96344761D01*
X119872619Y-96192380D01*
X119910714Y-96116190D01*
X119986904Y-96040000D01*
X120101190Y-96001904D01*
X120177380Y-96001904D01*
X120291666Y-96040000D01*
X120329761Y-96078095D01*
X121091666Y-96801904D02*
X120634523Y-96801904D01*
X120863095Y-96801904D02*
X120863095Y-96001904D01*
X120786904Y-96116190D01*
X120710714Y-96192380D01*
X120634523Y-96230476D01*
X121586904Y-96001904D02*
X121663095Y-96001904D01*
X121739285Y-96040000D01*
X121777380Y-96078095D01*
X121815476Y-96154285D01*
X121853571Y-96306666D01*
X121853571Y-96497142D01*
X121815476Y-96649523D01*
X121777380Y-96725714D01*
X121739285Y-96763809D01*
X121663095Y-96801904D01*
X121586904Y-96801904D01*
X121510714Y-96763809D01*
X121472619Y-96725714D01*
X121434523Y-96649523D01*
X121396428Y-96497142D01*
X121396428Y-96306666D01*
X121434523Y-96154285D01*
X121472619Y-96078095D01*
X121510714Y-96040000D01*
X121586904Y-96001904D01*
X122615476Y-96801904D02*
X122158333Y-96801904D01*
X122386904Y-96801904D02*
X122386904Y-96001904D01*
X122310714Y-96116190D01*
X122234523Y-96192380D01*
X122158333Y-96230476D01*
%TO.C,J102*%
X159396904Y-72068571D02*
X159968333Y-72068571D01*
X160082619Y-72106666D01*
X160158809Y-72182857D01*
X160196904Y-72297142D01*
X160196904Y-72373333D01*
X160196904Y-71268571D02*
X160196904Y-71725714D01*
X160196904Y-71497142D02*
X159396904Y-71497142D01*
X159511190Y-71573333D01*
X159587380Y-71649523D01*
X159625476Y-71725714D01*
X159396904Y-70773333D02*
X159396904Y-70697142D01*
X159435000Y-70620952D01*
X159473095Y-70582857D01*
X159549285Y-70544761D01*
X159701666Y-70506666D01*
X159892142Y-70506666D01*
X160044523Y-70544761D01*
X160120714Y-70582857D01*
X160158809Y-70620952D01*
X160196904Y-70697142D01*
X160196904Y-70773333D01*
X160158809Y-70849523D01*
X160120714Y-70887619D01*
X160044523Y-70925714D01*
X159892142Y-70963809D01*
X159701666Y-70963809D01*
X159549285Y-70925714D01*
X159473095Y-70887619D01*
X159435000Y-70849523D01*
X159396904Y-70773333D01*
X159473095Y-70201904D02*
X159435000Y-70163809D01*
X159396904Y-70087619D01*
X159396904Y-69897142D01*
X159435000Y-69820952D01*
X159473095Y-69782857D01*
X159549285Y-69744761D01*
X159625476Y-69744761D01*
X159739761Y-69782857D01*
X160196904Y-70240000D01*
X160196904Y-69744761D01*
%TO.C,J101*%
X179846428Y-87001904D02*
X179846428Y-87573333D01*
X179808333Y-87687619D01*
X179732142Y-87763809D01*
X179617857Y-87801904D01*
X179541666Y-87801904D01*
X180646428Y-87801904D02*
X180189285Y-87801904D01*
X180417857Y-87801904D02*
X180417857Y-87001904D01*
X180341666Y-87116190D01*
X180265476Y-87192380D01*
X180189285Y-87230476D01*
X181141666Y-87001904D02*
X181217857Y-87001904D01*
X181294047Y-87040000D01*
X181332142Y-87078095D01*
X181370238Y-87154285D01*
X181408333Y-87306666D01*
X181408333Y-87497142D01*
X181370238Y-87649523D01*
X181332142Y-87725714D01*
X181294047Y-87763809D01*
X181217857Y-87801904D01*
X181141666Y-87801904D01*
X181065476Y-87763809D01*
X181027380Y-87725714D01*
X180989285Y-87649523D01*
X180951190Y-87497142D01*
X180951190Y-87306666D01*
X180989285Y-87154285D01*
X181027380Y-87078095D01*
X181065476Y-87040000D01*
X181141666Y-87001904D01*
X182170238Y-87801904D02*
X181713095Y-87801904D01*
X181941666Y-87801904D02*
X181941666Y-87001904D01*
X181865476Y-87116190D01*
X181789285Y-87192380D01*
X181713095Y-87230476D01*
%TO.C,J3*%
X106018333Y-108911904D02*
X106018333Y-109483333D01*
X105980238Y-109597619D01*
X105904047Y-109673809D01*
X105789761Y-109711904D01*
X105713571Y-109711904D01*
X106323095Y-108911904D02*
X106818333Y-108911904D01*
X106551666Y-109216666D01*
X106665952Y-109216666D01*
X106742142Y-109254761D01*
X106780238Y-109292857D01*
X106818333Y-109369047D01*
X106818333Y-109559523D01*
X106780238Y-109635714D01*
X106742142Y-109673809D01*
X106665952Y-109711904D01*
X106437380Y-109711904D01*
X106361190Y-109673809D01*
X106323095Y-109635714D01*
D13*
X105982142Y-120332857D02*
X106125000Y-120047142D01*
X106410714Y-119761428D01*
X106839285Y-119332857D01*
X106982142Y-119047142D01*
X106982142Y-118761428D01*
X106267857Y-118904285D02*
X106410714Y-118618571D01*
X106696428Y-118332857D01*
X107267857Y-118190000D01*
X108267857Y-118190000D01*
X108839285Y-118332857D01*
X109125000Y-118618571D01*
X109267857Y-118904285D01*
X109267857Y-119475714D01*
X109125000Y-119761428D01*
X108839285Y-120047142D01*
X108267857Y-120190000D01*
X107267857Y-120190000D01*
X106696428Y-120047142D01*
X106410714Y-119761428D01*
X106267857Y-119475714D01*
X106267857Y-118904285D01*
%TO.C,L3*%
D10*
X134091666Y-107801904D02*
X133710714Y-107801904D01*
X133710714Y-107001904D01*
X134282142Y-107001904D02*
X134777380Y-107001904D01*
X134510714Y-107306666D01*
X134625000Y-107306666D01*
X134701190Y-107344761D01*
X134739285Y-107382857D01*
X134777380Y-107459047D01*
X134777380Y-107649523D01*
X134739285Y-107725714D01*
X134701190Y-107763809D01*
X134625000Y-107801904D01*
X134396428Y-107801904D01*
X134320238Y-107763809D01*
X134282142Y-107725714D01*
%TO.C,L4*%
X134091666Y-106201904D02*
X133710714Y-106201904D01*
X133710714Y-105401904D01*
X134701190Y-105668571D02*
X134701190Y-106201904D01*
X134510714Y-105363809D02*
X134320238Y-105935238D01*
X134815476Y-105935238D01*
%TO.C,L1*%
X134091666Y-87551904D02*
X133710714Y-87551904D01*
X133710714Y-86751904D01*
X134777380Y-87551904D02*
X134320238Y-87551904D01*
X134548809Y-87551904D02*
X134548809Y-86751904D01*
X134472619Y-86866190D01*
X134396428Y-86942380D01*
X134320238Y-86980476D01*
%TO.C,L2*%
X134091666Y-85801904D02*
X133710714Y-85801904D01*
X133710714Y-85001904D01*
X134320238Y-85078095D02*
X134358333Y-85040000D01*
X134434523Y-85001904D01*
X134625000Y-85001904D01*
X134701190Y-85040000D01*
X134739285Y-85078095D01*
X134777380Y-85154285D01*
X134777380Y-85230476D01*
X134739285Y-85344761D01*
X134282142Y-85801904D01*
X134777380Y-85801904D01*
%TO.C,L8*%
X146891666Y-106201904D02*
X146510714Y-106201904D01*
X146510714Y-105401904D01*
X147272619Y-105744761D02*
X147196428Y-105706666D01*
X147158333Y-105668571D01*
X147120238Y-105592380D01*
X147120238Y-105554285D01*
X147158333Y-105478095D01*
X147196428Y-105440000D01*
X147272619Y-105401904D01*
X147425000Y-105401904D01*
X147501190Y-105440000D01*
X147539285Y-105478095D01*
X147577380Y-105554285D01*
X147577380Y-105592380D01*
X147539285Y-105668571D01*
X147501190Y-105706666D01*
X147425000Y-105744761D01*
X147272619Y-105744761D01*
X147196428Y-105782857D01*
X147158333Y-105820952D01*
X147120238Y-105897142D01*
X147120238Y-106049523D01*
X147158333Y-106125714D01*
X147196428Y-106163809D01*
X147272619Y-106201904D01*
X147425000Y-106201904D01*
X147501190Y-106163809D01*
X147539285Y-106125714D01*
X147577380Y-106049523D01*
X147577380Y-105897142D01*
X147539285Y-105820952D01*
X147501190Y-105782857D01*
X147425000Y-105744761D01*
%TO.C,L6*%
X146791666Y-86001904D02*
X146410714Y-86001904D01*
X146410714Y-85201904D01*
X147401190Y-85201904D02*
X147248809Y-85201904D01*
X147172619Y-85240000D01*
X147134523Y-85278095D01*
X147058333Y-85392380D01*
X147020238Y-85544761D01*
X147020238Y-85849523D01*
X147058333Y-85925714D01*
X147096428Y-85963809D01*
X147172619Y-86001904D01*
X147325000Y-86001904D01*
X147401190Y-85963809D01*
X147439285Y-85925714D01*
X147477380Y-85849523D01*
X147477380Y-85659047D01*
X147439285Y-85582857D01*
X147401190Y-85544761D01*
X147325000Y-85506666D01*
X147172619Y-85506666D01*
X147096428Y-85544761D01*
X147058333Y-85582857D01*
X147020238Y-85659047D01*
%TO.C,L7*%
X146791666Y-107801904D02*
X146410714Y-107801904D01*
X146410714Y-107001904D01*
X146982142Y-107001904D02*
X147515476Y-107001904D01*
X147172619Y-107801904D01*
%TO.C,L5*%
X146791666Y-87401904D02*
X146410714Y-87401904D01*
X146410714Y-86601904D01*
X147439285Y-86601904D02*
X147058333Y-86601904D01*
X147020238Y-86982857D01*
X147058333Y-86944761D01*
X147134523Y-86906666D01*
X147325000Y-86906666D01*
X147401190Y-86944761D01*
X147439285Y-86982857D01*
X147477380Y-87059047D01*
X147477380Y-87249523D01*
X147439285Y-87325714D01*
X147401190Y-87363809D01*
X147325000Y-87401904D01*
X147134523Y-87401904D01*
X147058333Y-87363809D01*
X147020238Y-87325714D01*
%TO.C,R10*%
X113360714Y-101051904D02*
X113094047Y-100670952D01*
X112903571Y-101051904D02*
X112903571Y-100251904D01*
X113208333Y-100251904D01*
X113284523Y-100290000D01*
X113322619Y-100328095D01*
X113360714Y-100404285D01*
X113360714Y-100518571D01*
X113322619Y-100594761D01*
X113284523Y-100632857D01*
X113208333Y-100670952D01*
X112903571Y-100670952D01*
X114122619Y-101051904D02*
X113665476Y-101051904D01*
X113894047Y-101051904D02*
X113894047Y-100251904D01*
X113817857Y-100366190D01*
X113741666Y-100442380D01*
X113665476Y-100480476D01*
X114617857Y-100251904D02*
X114694047Y-100251904D01*
X114770238Y-100290000D01*
X114808333Y-100328095D01*
X114846428Y-100404285D01*
X114884523Y-100556666D01*
X114884523Y-100747142D01*
X114846428Y-100899523D01*
X114808333Y-100975714D01*
X114770238Y-101013809D01*
X114694047Y-101051904D01*
X114617857Y-101051904D01*
X114541666Y-101013809D01*
X114503571Y-100975714D01*
X114465476Y-100899523D01*
X114427380Y-100747142D01*
X114427380Y-100556666D01*
X114465476Y-100404285D01*
X114503571Y-100328095D01*
X114541666Y-100290000D01*
X114617857Y-100251904D01*
%TO.C,R18*%
X124910714Y-102401904D02*
X124644047Y-102020952D01*
X124453571Y-102401904D02*
X124453571Y-101601904D01*
X124758333Y-101601904D01*
X124834523Y-101640000D01*
X124872619Y-101678095D01*
X124910714Y-101754285D01*
X124910714Y-101868571D01*
X124872619Y-101944761D01*
X124834523Y-101982857D01*
X124758333Y-102020952D01*
X124453571Y-102020952D01*
X125672619Y-102401904D02*
X125215476Y-102401904D01*
X125444047Y-102401904D02*
X125444047Y-101601904D01*
X125367857Y-101716190D01*
X125291666Y-101792380D01*
X125215476Y-101830476D01*
X126129761Y-101944761D02*
X126053571Y-101906666D01*
X126015476Y-101868571D01*
X125977380Y-101792380D01*
X125977380Y-101754285D01*
X126015476Y-101678095D01*
X126053571Y-101640000D01*
X126129761Y-101601904D01*
X126282142Y-101601904D01*
X126358333Y-101640000D01*
X126396428Y-101678095D01*
X126434523Y-101754285D01*
X126434523Y-101792380D01*
X126396428Y-101868571D01*
X126358333Y-101906666D01*
X126282142Y-101944761D01*
X126129761Y-101944761D01*
X126053571Y-101982857D01*
X126015476Y-102020952D01*
X125977380Y-102097142D01*
X125977380Y-102249523D01*
X126015476Y-102325714D01*
X126053571Y-102363809D01*
X126129761Y-102401904D01*
X126282142Y-102401904D01*
X126358333Y-102363809D01*
X126396428Y-102325714D01*
X126434523Y-102249523D01*
X126434523Y-102097142D01*
X126396428Y-102020952D01*
X126358333Y-101982857D01*
X126282142Y-101944761D01*
%TO.C,C10*%
X130110714Y-86525714D02*
X130072619Y-86563809D01*
X129958333Y-86601904D01*
X129882142Y-86601904D01*
X129767857Y-86563809D01*
X129691666Y-86487619D01*
X129653571Y-86411428D01*
X129615476Y-86259047D01*
X129615476Y-86144761D01*
X129653571Y-85992380D01*
X129691666Y-85916190D01*
X129767857Y-85840000D01*
X129882142Y-85801904D01*
X129958333Y-85801904D01*
X130072619Y-85840000D01*
X130110714Y-85878095D01*
X130872619Y-86601904D02*
X130415476Y-86601904D01*
X130644047Y-86601904D02*
X130644047Y-85801904D01*
X130567857Y-85916190D01*
X130491666Y-85992380D01*
X130415476Y-86030476D01*
X131367857Y-85801904D02*
X131444047Y-85801904D01*
X131520238Y-85840000D01*
X131558333Y-85878095D01*
X131596428Y-85954285D01*
X131634523Y-86106666D01*
X131634523Y-86297142D01*
X131596428Y-86449523D01*
X131558333Y-86525714D01*
X131520238Y-86563809D01*
X131444047Y-86601904D01*
X131367857Y-86601904D01*
X131291666Y-86563809D01*
X131253571Y-86525714D01*
X131215476Y-86449523D01*
X131177380Y-86297142D01*
X131177380Y-86106666D01*
X131215476Y-85954285D01*
X131253571Y-85878095D01*
X131291666Y-85840000D01*
X131367857Y-85801904D01*
%TO.C,U4*%
X171015476Y-96001904D02*
X171015476Y-96649523D01*
X171053571Y-96725714D01*
X171091666Y-96763809D01*
X171167857Y-96801904D01*
X171320238Y-96801904D01*
X171396428Y-96763809D01*
X171434523Y-96725714D01*
X171472619Y-96649523D01*
X171472619Y-96001904D01*
X172196428Y-96268571D02*
X172196428Y-96801904D01*
X172005952Y-95963809D02*
X171815476Y-96535238D01*
X172310714Y-96535238D01*
%TO.C,U3*%
X111936904Y-106049523D02*
X112584523Y-106049523D01*
X112660714Y-106011428D01*
X112698809Y-105973333D01*
X112736904Y-105897142D01*
X112736904Y-105744761D01*
X112698809Y-105668571D01*
X112660714Y-105630476D01*
X112584523Y-105592380D01*
X111936904Y-105592380D01*
X111936904Y-105287619D02*
X111936904Y-104792380D01*
X112241666Y-105059047D01*
X112241666Y-104944761D01*
X112279761Y-104868571D01*
X112317857Y-104830476D01*
X112394047Y-104792380D01*
X112584523Y-104792380D01*
X112660714Y-104830476D01*
X112698809Y-104868571D01*
X112736904Y-104944761D01*
X112736904Y-105173333D01*
X112698809Y-105249523D01*
X112660714Y-105287619D01*
%TO.C,U2*%
X111936904Y-84549523D02*
X112584523Y-84549523D01*
X112660714Y-84511428D01*
X112698809Y-84473333D01*
X112736904Y-84397142D01*
X112736904Y-84244761D01*
X112698809Y-84168571D01*
X112660714Y-84130476D01*
X112584523Y-84092380D01*
X111936904Y-84092380D01*
X112013095Y-83749523D02*
X111975000Y-83711428D01*
X111936904Y-83635238D01*
X111936904Y-83444761D01*
X111975000Y-83368571D01*
X112013095Y-83330476D01*
X112089285Y-83292380D01*
X112165476Y-83292380D01*
X112279761Y-83330476D01*
X112736904Y-83787619D01*
X112736904Y-83292380D01*
%TO.C,R26*%
X168860714Y-75301904D02*
X168594047Y-74920952D01*
X168403571Y-75301904D02*
X168403571Y-74501904D01*
X168708333Y-74501904D01*
X168784523Y-74540000D01*
X168822619Y-74578095D01*
X168860714Y-74654285D01*
X168860714Y-74768571D01*
X168822619Y-74844761D01*
X168784523Y-74882857D01*
X168708333Y-74920952D01*
X168403571Y-74920952D01*
X169165476Y-74578095D02*
X169203571Y-74540000D01*
X169279761Y-74501904D01*
X169470238Y-74501904D01*
X169546428Y-74540000D01*
X169584523Y-74578095D01*
X169622619Y-74654285D01*
X169622619Y-74730476D01*
X169584523Y-74844761D01*
X169127380Y-75301904D01*
X169622619Y-75301904D01*
X170308333Y-74501904D02*
X170155952Y-74501904D01*
X170079761Y-74540000D01*
X170041666Y-74578095D01*
X169965476Y-74692380D01*
X169927380Y-74844761D01*
X169927380Y-75149523D01*
X169965476Y-75225714D01*
X170003571Y-75263809D01*
X170079761Y-75301904D01*
X170232142Y-75301904D01*
X170308333Y-75263809D01*
X170346428Y-75225714D01*
X170384523Y-75149523D01*
X170384523Y-74959047D01*
X170346428Y-74882857D01*
X170308333Y-74844761D01*
X170232142Y-74806666D01*
X170079761Y-74806666D01*
X170003571Y-74844761D01*
X169965476Y-74882857D01*
X169927380Y-74959047D01*
%TO.C,R25*%
X184110714Y-101801904D02*
X183844047Y-101420952D01*
X183653571Y-101801904D02*
X183653571Y-101001904D01*
X183958333Y-101001904D01*
X184034523Y-101040000D01*
X184072619Y-101078095D01*
X184110714Y-101154285D01*
X184110714Y-101268571D01*
X184072619Y-101344761D01*
X184034523Y-101382857D01*
X183958333Y-101420952D01*
X183653571Y-101420952D01*
X184415476Y-101078095D02*
X184453571Y-101040000D01*
X184529761Y-101001904D01*
X184720238Y-101001904D01*
X184796428Y-101040000D01*
X184834523Y-101078095D01*
X184872619Y-101154285D01*
X184872619Y-101230476D01*
X184834523Y-101344761D01*
X184377380Y-101801904D01*
X184872619Y-101801904D01*
X185596428Y-101001904D02*
X185215476Y-101001904D01*
X185177380Y-101382857D01*
X185215476Y-101344761D01*
X185291666Y-101306666D01*
X185482142Y-101306666D01*
X185558333Y-101344761D01*
X185596428Y-101382857D01*
X185634523Y-101459047D01*
X185634523Y-101649523D01*
X185596428Y-101725714D01*
X185558333Y-101763809D01*
X185482142Y-101801904D01*
X185291666Y-101801904D01*
X185215476Y-101763809D01*
X185177380Y-101725714D01*
%TO.C,R24*%
X184110714Y-99301904D02*
X183844047Y-98920952D01*
X183653571Y-99301904D02*
X183653571Y-98501904D01*
X183958333Y-98501904D01*
X184034523Y-98540000D01*
X184072619Y-98578095D01*
X184110714Y-98654285D01*
X184110714Y-98768571D01*
X184072619Y-98844761D01*
X184034523Y-98882857D01*
X183958333Y-98920952D01*
X183653571Y-98920952D01*
X184415476Y-98578095D02*
X184453571Y-98540000D01*
X184529761Y-98501904D01*
X184720238Y-98501904D01*
X184796428Y-98540000D01*
X184834523Y-98578095D01*
X184872619Y-98654285D01*
X184872619Y-98730476D01*
X184834523Y-98844761D01*
X184377380Y-99301904D01*
X184872619Y-99301904D01*
X185558333Y-98768571D02*
X185558333Y-99301904D01*
X185367857Y-98463809D02*
X185177380Y-99035238D01*
X185672619Y-99035238D01*
%TO.C,R23*%
X184110714Y-96801904D02*
X183844047Y-96420952D01*
X183653571Y-96801904D02*
X183653571Y-96001904D01*
X183958333Y-96001904D01*
X184034523Y-96040000D01*
X184072619Y-96078095D01*
X184110714Y-96154285D01*
X184110714Y-96268571D01*
X184072619Y-96344761D01*
X184034523Y-96382857D01*
X183958333Y-96420952D01*
X183653571Y-96420952D01*
X184415476Y-96078095D02*
X184453571Y-96040000D01*
X184529761Y-96001904D01*
X184720238Y-96001904D01*
X184796428Y-96040000D01*
X184834523Y-96078095D01*
X184872619Y-96154285D01*
X184872619Y-96230476D01*
X184834523Y-96344761D01*
X184377380Y-96801904D01*
X184872619Y-96801904D01*
X185139285Y-96001904D02*
X185634523Y-96001904D01*
X185367857Y-96306666D01*
X185482142Y-96306666D01*
X185558333Y-96344761D01*
X185596428Y-96382857D01*
X185634523Y-96459047D01*
X185634523Y-96649523D01*
X185596428Y-96725714D01*
X185558333Y-96763809D01*
X185482142Y-96801904D01*
X185253571Y-96801904D01*
X185177380Y-96763809D01*
X185139285Y-96725714D01*
%TO.C,R22*%
X184110714Y-94301904D02*
X183844047Y-93920952D01*
X183653571Y-94301904D02*
X183653571Y-93501904D01*
X183958333Y-93501904D01*
X184034523Y-93540000D01*
X184072619Y-93578095D01*
X184110714Y-93654285D01*
X184110714Y-93768571D01*
X184072619Y-93844761D01*
X184034523Y-93882857D01*
X183958333Y-93920952D01*
X183653571Y-93920952D01*
X184415476Y-93578095D02*
X184453571Y-93540000D01*
X184529761Y-93501904D01*
X184720238Y-93501904D01*
X184796428Y-93540000D01*
X184834523Y-93578095D01*
X184872619Y-93654285D01*
X184872619Y-93730476D01*
X184834523Y-93844761D01*
X184377380Y-94301904D01*
X184872619Y-94301904D01*
X185177380Y-93578095D02*
X185215476Y-93540000D01*
X185291666Y-93501904D01*
X185482142Y-93501904D01*
X185558333Y-93540000D01*
X185596428Y-93578095D01*
X185634523Y-93654285D01*
X185634523Y-93730476D01*
X185596428Y-93844761D01*
X185139285Y-94301904D01*
X185634523Y-94301904D01*
%TO.C,R21*%
X184110714Y-91801904D02*
X183844047Y-91420952D01*
X183653571Y-91801904D02*
X183653571Y-91001904D01*
X183958333Y-91001904D01*
X184034523Y-91040000D01*
X184072619Y-91078095D01*
X184110714Y-91154285D01*
X184110714Y-91268571D01*
X184072619Y-91344761D01*
X184034523Y-91382857D01*
X183958333Y-91420952D01*
X183653571Y-91420952D01*
X184415476Y-91078095D02*
X184453571Y-91040000D01*
X184529761Y-91001904D01*
X184720238Y-91001904D01*
X184796428Y-91040000D01*
X184834523Y-91078095D01*
X184872619Y-91154285D01*
X184872619Y-91230476D01*
X184834523Y-91344761D01*
X184377380Y-91801904D01*
X184872619Y-91801904D01*
X185634523Y-91801904D02*
X185177380Y-91801904D01*
X185405952Y-91801904D02*
X185405952Y-91001904D01*
X185329761Y-91116190D01*
X185253571Y-91192380D01*
X185177380Y-91230476D01*
%TO.C,R20*%
X157310714Y-107001904D02*
X157044047Y-106620952D01*
X156853571Y-107001904D02*
X156853571Y-106201904D01*
X157158333Y-106201904D01*
X157234523Y-106240000D01*
X157272619Y-106278095D01*
X157310714Y-106354285D01*
X157310714Y-106468571D01*
X157272619Y-106544761D01*
X157234523Y-106582857D01*
X157158333Y-106620952D01*
X156853571Y-106620952D01*
X157615476Y-106278095D02*
X157653571Y-106240000D01*
X157729761Y-106201904D01*
X157920238Y-106201904D01*
X157996428Y-106240000D01*
X158034523Y-106278095D01*
X158072619Y-106354285D01*
X158072619Y-106430476D01*
X158034523Y-106544761D01*
X157577380Y-107001904D01*
X158072619Y-107001904D01*
X158567857Y-106201904D02*
X158644047Y-106201904D01*
X158720238Y-106240000D01*
X158758333Y-106278095D01*
X158796428Y-106354285D01*
X158834523Y-106506666D01*
X158834523Y-106697142D01*
X158796428Y-106849523D01*
X158758333Y-106925714D01*
X158720238Y-106963809D01*
X158644047Y-107001904D01*
X158567857Y-107001904D01*
X158491666Y-106963809D01*
X158453571Y-106925714D01*
X158415476Y-106849523D01*
X158377380Y-106697142D01*
X158377380Y-106506666D01*
X158415476Y-106354285D01*
X158453571Y-106278095D01*
X158491666Y-106240000D01*
X158567857Y-106201904D01*
%TO.C,R19*%
X155610714Y-83301904D02*
X155344047Y-82920952D01*
X155153571Y-83301904D02*
X155153571Y-82501904D01*
X155458333Y-82501904D01*
X155534523Y-82540000D01*
X155572619Y-82578095D01*
X155610714Y-82654285D01*
X155610714Y-82768571D01*
X155572619Y-82844761D01*
X155534523Y-82882857D01*
X155458333Y-82920952D01*
X155153571Y-82920952D01*
X156372619Y-83301904D02*
X155915476Y-83301904D01*
X156144047Y-83301904D02*
X156144047Y-82501904D01*
X156067857Y-82616190D01*
X155991666Y-82692380D01*
X155915476Y-82730476D01*
X156753571Y-83301904D02*
X156905952Y-83301904D01*
X156982142Y-83263809D01*
X157020238Y-83225714D01*
X157096428Y-83111428D01*
X157134523Y-82959047D01*
X157134523Y-82654285D01*
X157096428Y-82578095D01*
X157058333Y-82540000D01*
X156982142Y-82501904D01*
X156829761Y-82501904D01*
X156753571Y-82540000D01*
X156715476Y-82578095D01*
X156677380Y-82654285D01*
X156677380Y-82844761D01*
X156715476Y-82920952D01*
X156753571Y-82959047D01*
X156829761Y-82997142D01*
X156982142Y-82997142D01*
X157058333Y-82959047D01*
X157096428Y-82920952D01*
X157134523Y-82844761D01*
%TO.C,R17*%
X124860714Y-111801904D02*
X124594047Y-111420952D01*
X124403571Y-111801904D02*
X124403571Y-111001904D01*
X124708333Y-111001904D01*
X124784523Y-111040000D01*
X124822619Y-111078095D01*
X124860714Y-111154285D01*
X124860714Y-111268571D01*
X124822619Y-111344761D01*
X124784523Y-111382857D01*
X124708333Y-111420952D01*
X124403571Y-111420952D01*
X125622619Y-111801904D02*
X125165476Y-111801904D01*
X125394047Y-111801904D02*
X125394047Y-111001904D01*
X125317857Y-111116190D01*
X125241666Y-111192380D01*
X125165476Y-111230476D01*
X125889285Y-111001904D02*
X126422619Y-111001904D01*
X126079761Y-111801904D01*
%TO.C,R16*%
X124910714Y-82001904D02*
X124644047Y-81620952D01*
X124453571Y-82001904D02*
X124453571Y-81201904D01*
X124758333Y-81201904D01*
X124834523Y-81240000D01*
X124872619Y-81278095D01*
X124910714Y-81354285D01*
X124910714Y-81468571D01*
X124872619Y-81544761D01*
X124834523Y-81582857D01*
X124758333Y-81620952D01*
X124453571Y-81620952D01*
X125672619Y-82001904D02*
X125215476Y-82001904D01*
X125444047Y-82001904D02*
X125444047Y-81201904D01*
X125367857Y-81316190D01*
X125291666Y-81392380D01*
X125215476Y-81430476D01*
X126358333Y-81201904D02*
X126205952Y-81201904D01*
X126129761Y-81240000D01*
X126091666Y-81278095D01*
X126015476Y-81392380D01*
X125977380Y-81544761D01*
X125977380Y-81849523D01*
X126015476Y-81925714D01*
X126053571Y-81963809D01*
X126129761Y-82001904D01*
X126282142Y-82001904D01*
X126358333Y-81963809D01*
X126396428Y-81925714D01*
X126434523Y-81849523D01*
X126434523Y-81659047D01*
X126396428Y-81582857D01*
X126358333Y-81544761D01*
X126282142Y-81506666D01*
X126129761Y-81506666D01*
X126053571Y-81544761D01*
X126015476Y-81582857D01*
X125977380Y-81659047D01*
%TO.C,R15*%
X124610714Y-91551904D02*
X124344047Y-91170952D01*
X124153571Y-91551904D02*
X124153571Y-90751904D01*
X124458333Y-90751904D01*
X124534523Y-90790000D01*
X124572619Y-90828095D01*
X124610714Y-90904285D01*
X124610714Y-91018571D01*
X124572619Y-91094761D01*
X124534523Y-91132857D01*
X124458333Y-91170952D01*
X124153571Y-91170952D01*
X125372619Y-91551904D02*
X124915476Y-91551904D01*
X125144047Y-91551904D02*
X125144047Y-90751904D01*
X125067857Y-90866190D01*
X124991666Y-90942380D01*
X124915476Y-90980476D01*
X126096428Y-90751904D02*
X125715476Y-90751904D01*
X125677380Y-91132857D01*
X125715476Y-91094761D01*
X125791666Y-91056666D01*
X125982142Y-91056666D01*
X126058333Y-91094761D01*
X126096428Y-91132857D01*
X126134523Y-91209047D01*
X126134523Y-91399523D01*
X126096428Y-91475714D01*
X126058333Y-91513809D01*
X125982142Y-91551904D01*
X125791666Y-91551904D01*
X125715476Y-91513809D01*
X125677380Y-91475714D01*
%TO.C,R14*%
X113860714Y-99801904D02*
X113594047Y-99420952D01*
X113403571Y-99801904D02*
X113403571Y-99001904D01*
X113708333Y-99001904D01*
X113784523Y-99040000D01*
X113822619Y-99078095D01*
X113860714Y-99154285D01*
X113860714Y-99268571D01*
X113822619Y-99344761D01*
X113784523Y-99382857D01*
X113708333Y-99420952D01*
X113403571Y-99420952D01*
X114622619Y-99801904D02*
X114165476Y-99801904D01*
X114394047Y-99801904D02*
X114394047Y-99001904D01*
X114317857Y-99116190D01*
X114241666Y-99192380D01*
X114165476Y-99230476D01*
X115308333Y-99268571D02*
X115308333Y-99801904D01*
X115117857Y-98963809D02*
X114927380Y-99535238D01*
X115422619Y-99535238D01*
%TO.C,R13*%
X115610714Y-114551904D02*
X115344047Y-114170952D01*
X115153571Y-114551904D02*
X115153571Y-113751904D01*
X115458333Y-113751904D01*
X115534523Y-113790000D01*
X115572619Y-113828095D01*
X115610714Y-113904285D01*
X115610714Y-114018571D01*
X115572619Y-114094761D01*
X115534523Y-114132857D01*
X115458333Y-114170952D01*
X115153571Y-114170952D01*
X116372619Y-114551904D02*
X115915476Y-114551904D01*
X116144047Y-114551904D02*
X116144047Y-113751904D01*
X116067857Y-113866190D01*
X115991666Y-113942380D01*
X115915476Y-113980476D01*
X116639285Y-113751904D02*
X117134523Y-113751904D01*
X116867857Y-114056666D01*
X116982142Y-114056666D01*
X117058333Y-114094761D01*
X117096428Y-114132857D01*
X117134523Y-114209047D01*
X117134523Y-114399523D01*
X117096428Y-114475714D01*
X117058333Y-114513809D01*
X116982142Y-114551904D01*
X116753571Y-114551904D01*
X116677380Y-114513809D01*
X116639285Y-114475714D01*
%TO.C,R12*%
X116486904Y-77454285D02*
X116105952Y-77720952D01*
X116486904Y-77911428D02*
X115686904Y-77911428D01*
X115686904Y-77606666D01*
X115725000Y-77530476D01*
X115763095Y-77492380D01*
X115839285Y-77454285D01*
X115953571Y-77454285D01*
X116029761Y-77492380D01*
X116067857Y-77530476D01*
X116105952Y-77606666D01*
X116105952Y-77911428D01*
X116486904Y-76692380D02*
X116486904Y-77149523D01*
X116486904Y-76920952D02*
X115686904Y-76920952D01*
X115801190Y-76997142D01*
X115877380Y-77073333D01*
X115915476Y-77149523D01*
X115763095Y-76387619D02*
X115725000Y-76349523D01*
X115686904Y-76273333D01*
X115686904Y-76082857D01*
X115725000Y-76006666D01*
X115763095Y-75968571D01*
X115839285Y-75930476D01*
X115915476Y-75930476D01*
X116029761Y-75968571D01*
X116486904Y-76425714D01*
X116486904Y-75930476D01*
%TO.C,R11*%
X115110714Y-93051904D02*
X114844047Y-92670952D01*
X114653571Y-93051904D02*
X114653571Y-92251904D01*
X114958333Y-92251904D01*
X115034523Y-92290000D01*
X115072619Y-92328095D01*
X115110714Y-92404285D01*
X115110714Y-92518571D01*
X115072619Y-92594761D01*
X115034523Y-92632857D01*
X114958333Y-92670952D01*
X114653571Y-92670952D01*
X115872619Y-93051904D02*
X115415476Y-93051904D01*
X115644047Y-93051904D02*
X115644047Y-92251904D01*
X115567857Y-92366190D01*
X115491666Y-92442380D01*
X115415476Y-92480476D01*
X116634523Y-93051904D02*
X116177380Y-93051904D01*
X116405952Y-93051904D02*
X116405952Y-92251904D01*
X116329761Y-92366190D01*
X116253571Y-92442380D01*
X116177380Y-92480476D01*
%TO.C,R9*%
X113741666Y-113051904D02*
X113475000Y-112670952D01*
X113284523Y-113051904D02*
X113284523Y-112251904D01*
X113589285Y-112251904D01*
X113665476Y-112290000D01*
X113703571Y-112328095D01*
X113741666Y-112404285D01*
X113741666Y-112518571D01*
X113703571Y-112594761D01*
X113665476Y-112632857D01*
X113589285Y-112670952D01*
X113284523Y-112670952D01*
X114122619Y-113051904D02*
X114275000Y-113051904D01*
X114351190Y-113013809D01*
X114389285Y-112975714D01*
X114465476Y-112861428D01*
X114503571Y-112709047D01*
X114503571Y-112404285D01*
X114465476Y-112328095D01*
X114427380Y-112290000D01*
X114351190Y-112251904D01*
X114198809Y-112251904D01*
X114122619Y-112290000D01*
X114084523Y-112328095D01*
X114046428Y-112404285D01*
X114046428Y-112594761D01*
X114084523Y-112670952D01*
X114122619Y-112709047D01*
X114198809Y-112747142D01*
X114351190Y-112747142D01*
X114427380Y-112709047D01*
X114465476Y-112670952D01*
X114503571Y-112594761D01*
%TO.C,R8*%
X113741666Y-79551904D02*
X113475000Y-79170952D01*
X113284523Y-79551904D02*
X113284523Y-78751904D01*
X113589285Y-78751904D01*
X113665476Y-78790000D01*
X113703571Y-78828095D01*
X113741666Y-78904285D01*
X113741666Y-79018571D01*
X113703571Y-79094761D01*
X113665476Y-79132857D01*
X113589285Y-79170952D01*
X113284523Y-79170952D01*
X114198809Y-79094761D02*
X114122619Y-79056666D01*
X114084523Y-79018571D01*
X114046428Y-78942380D01*
X114046428Y-78904285D01*
X114084523Y-78828095D01*
X114122619Y-78790000D01*
X114198809Y-78751904D01*
X114351190Y-78751904D01*
X114427380Y-78790000D01*
X114465476Y-78828095D01*
X114503571Y-78904285D01*
X114503571Y-78942380D01*
X114465476Y-79018571D01*
X114427380Y-79056666D01*
X114351190Y-79094761D01*
X114198809Y-79094761D01*
X114122619Y-79132857D01*
X114084523Y-79170952D01*
X114046428Y-79247142D01*
X114046428Y-79399523D01*
X114084523Y-79475714D01*
X114122619Y-79513809D01*
X114198809Y-79551904D01*
X114351190Y-79551904D01*
X114427380Y-79513809D01*
X114465476Y-79475714D01*
X114503571Y-79399523D01*
X114503571Y-79247142D01*
X114465476Y-79170952D01*
X114427380Y-79132857D01*
X114351190Y-79094761D01*
%TO.C,R7*%
X113741666Y-91551904D02*
X113475000Y-91170952D01*
X113284523Y-91551904D02*
X113284523Y-90751904D01*
X113589285Y-90751904D01*
X113665476Y-90790000D01*
X113703571Y-90828095D01*
X113741666Y-90904285D01*
X113741666Y-91018571D01*
X113703571Y-91094761D01*
X113665476Y-91132857D01*
X113589285Y-91170952D01*
X113284523Y-91170952D01*
X114008333Y-90751904D02*
X114541666Y-90751904D01*
X114198809Y-91551904D01*
%TO.C,R5*%
X111491666Y-79551904D02*
X111225000Y-79170952D01*
X111034523Y-79551904D02*
X111034523Y-78751904D01*
X111339285Y-78751904D01*
X111415476Y-78790000D01*
X111453571Y-78828095D01*
X111491666Y-78904285D01*
X111491666Y-79018571D01*
X111453571Y-79094761D01*
X111415476Y-79132857D01*
X111339285Y-79170952D01*
X111034523Y-79170952D01*
X112215476Y-78751904D02*
X111834523Y-78751904D01*
X111796428Y-79132857D01*
X111834523Y-79094761D01*
X111910714Y-79056666D01*
X112101190Y-79056666D01*
X112177380Y-79094761D01*
X112215476Y-79132857D01*
X112253571Y-79209047D01*
X112253571Y-79399523D01*
X112215476Y-79475714D01*
X112177380Y-79513809D01*
X112101190Y-79551904D01*
X111910714Y-79551904D01*
X111834523Y-79513809D01*
X111796428Y-79475714D01*
%TO.C,L9*%
X170486904Y-91573333D02*
X170486904Y-91954285D01*
X169686904Y-91954285D01*
X170486904Y-91268571D02*
X170486904Y-91116190D01*
X170448809Y-91040000D01*
X170410714Y-91001904D01*
X170296428Y-90925714D01*
X170144047Y-90887619D01*
X169839285Y-90887619D01*
X169763095Y-90925714D01*
X169725000Y-90963809D01*
X169686904Y-91040000D01*
X169686904Y-91192380D01*
X169725000Y-91268571D01*
X169763095Y-91306666D01*
X169839285Y-91344761D01*
X170029761Y-91344761D01*
X170105952Y-91306666D01*
X170144047Y-91268571D01*
X170182142Y-91192380D01*
X170182142Y-91040000D01*
X170144047Y-90963809D01*
X170105952Y-90925714D01*
X170029761Y-90887619D01*
%TO.C,JP8*%
X155958333Y-101081904D02*
X155958333Y-101653333D01*
X155920238Y-101767619D01*
X155844047Y-101843809D01*
X155729761Y-101881904D01*
X155653571Y-101881904D01*
X156339285Y-101881904D02*
X156339285Y-101081904D01*
X156644047Y-101081904D01*
X156720238Y-101120000D01*
X156758333Y-101158095D01*
X156796428Y-101234285D01*
X156796428Y-101348571D01*
X156758333Y-101424761D01*
X156720238Y-101462857D01*
X156644047Y-101500952D01*
X156339285Y-101500952D01*
X157253571Y-101424761D02*
X157177380Y-101386666D01*
X157139285Y-101348571D01*
X157101190Y-101272380D01*
X157101190Y-101234285D01*
X157139285Y-101158095D01*
X157177380Y-101120000D01*
X157253571Y-101081904D01*
X157405952Y-101081904D01*
X157482142Y-101120000D01*
X157520238Y-101158095D01*
X157558333Y-101234285D01*
X157558333Y-101272380D01*
X157520238Y-101348571D01*
X157482142Y-101386666D01*
X157405952Y-101424761D01*
X157253571Y-101424761D01*
X157177380Y-101462857D01*
X157139285Y-101500952D01*
X157101190Y-101577142D01*
X157101190Y-101729523D01*
X157139285Y-101805714D01*
X157177380Y-101843809D01*
X157253571Y-101881904D01*
X157405952Y-101881904D01*
X157482142Y-101843809D01*
X157520238Y-101805714D01*
X157558333Y-101729523D01*
X157558333Y-101577142D01*
X157520238Y-101500952D01*
X157482142Y-101462857D01*
X157405952Y-101424761D01*
%TO.C,JP7*%
X155958333Y-111241904D02*
X155958333Y-111813333D01*
X155920238Y-111927619D01*
X155844047Y-112003809D01*
X155729761Y-112041904D01*
X155653571Y-112041904D01*
X156339285Y-112041904D02*
X156339285Y-111241904D01*
X156644047Y-111241904D01*
X156720238Y-111280000D01*
X156758333Y-111318095D01*
X156796428Y-111394285D01*
X156796428Y-111508571D01*
X156758333Y-111584761D01*
X156720238Y-111622857D01*
X156644047Y-111660952D01*
X156339285Y-111660952D01*
X157063095Y-111241904D02*
X157596428Y-111241904D01*
X157253571Y-112041904D01*
%TO.C,JP6*%
X156418333Y-79491904D02*
X156418333Y-80063333D01*
X156380238Y-80177619D01*
X156304047Y-80253809D01*
X156189761Y-80291904D01*
X156113571Y-80291904D01*
X156799285Y-80291904D02*
X156799285Y-79491904D01*
X157104047Y-79491904D01*
X157180238Y-79530000D01*
X157218333Y-79568095D01*
X157256428Y-79644285D01*
X157256428Y-79758571D01*
X157218333Y-79834761D01*
X157180238Y-79872857D01*
X157104047Y-79910952D01*
X156799285Y-79910952D01*
X157942142Y-79491904D02*
X157789761Y-79491904D01*
X157713571Y-79530000D01*
X157675476Y-79568095D01*
X157599285Y-79682380D01*
X157561190Y-79834761D01*
X157561190Y-80139523D01*
X157599285Y-80215714D01*
X157637380Y-80253809D01*
X157713571Y-80291904D01*
X157865952Y-80291904D01*
X157942142Y-80253809D01*
X157980238Y-80215714D01*
X158018333Y-80139523D01*
X158018333Y-79949047D01*
X157980238Y-79872857D01*
X157942142Y-79834761D01*
X157865952Y-79796666D01*
X157713571Y-79796666D01*
X157637380Y-79834761D01*
X157599285Y-79872857D01*
X157561190Y-79949047D01*
%TO.C,JP5*%
X156418333Y-92191904D02*
X156418333Y-92763333D01*
X156380238Y-92877619D01*
X156304047Y-92953809D01*
X156189761Y-92991904D01*
X156113571Y-92991904D01*
X156799285Y-92991904D02*
X156799285Y-92191904D01*
X157104047Y-92191904D01*
X157180238Y-92230000D01*
X157218333Y-92268095D01*
X157256428Y-92344285D01*
X157256428Y-92458571D01*
X157218333Y-92534761D01*
X157180238Y-92572857D01*
X157104047Y-92610952D01*
X156799285Y-92610952D01*
X157980238Y-92191904D02*
X157599285Y-92191904D01*
X157561190Y-92572857D01*
X157599285Y-92534761D01*
X157675476Y-92496666D01*
X157865952Y-92496666D01*
X157942142Y-92534761D01*
X157980238Y-92572857D01*
X158018333Y-92649047D01*
X158018333Y-92839523D01*
X157980238Y-92915714D01*
X157942142Y-92953809D01*
X157865952Y-92991904D01*
X157675476Y-92991904D01*
X157599285Y-92953809D01*
X157561190Y-92915714D01*
%TO.C,JP4*%
X123958333Y-97401904D02*
X123958333Y-97973333D01*
X123920238Y-98087619D01*
X123844047Y-98163809D01*
X123729761Y-98201904D01*
X123653571Y-98201904D01*
X124339285Y-98201904D02*
X124339285Y-97401904D01*
X124644047Y-97401904D01*
X124720238Y-97440000D01*
X124758333Y-97478095D01*
X124796428Y-97554285D01*
X124796428Y-97668571D01*
X124758333Y-97744761D01*
X124720238Y-97782857D01*
X124644047Y-97820952D01*
X124339285Y-97820952D01*
X125482142Y-97668571D02*
X125482142Y-98201904D01*
X125291666Y-97363809D02*
X125101190Y-97935238D01*
X125596428Y-97935238D01*
%TO.C,JP3*%
X123958333Y-115001904D02*
X123958333Y-115573333D01*
X123920238Y-115687619D01*
X123844047Y-115763809D01*
X123729761Y-115801904D01*
X123653571Y-115801904D01*
X124339285Y-115801904D02*
X124339285Y-115001904D01*
X124644047Y-115001904D01*
X124720238Y-115040000D01*
X124758333Y-115078095D01*
X124796428Y-115154285D01*
X124796428Y-115268571D01*
X124758333Y-115344761D01*
X124720238Y-115382857D01*
X124644047Y-115420952D01*
X124339285Y-115420952D01*
X125063095Y-115001904D02*
X125558333Y-115001904D01*
X125291666Y-115306666D01*
X125405952Y-115306666D01*
X125482142Y-115344761D01*
X125520238Y-115382857D01*
X125558333Y-115459047D01*
X125558333Y-115649523D01*
X125520238Y-115725714D01*
X125482142Y-115763809D01*
X125405952Y-115801904D01*
X125177380Y-115801904D01*
X125101190Y-115763809D01*
X125063095Y-115725714D01*
%TO.C,JP2*%
X123958333Y-77001904D02*
X123958333Y-77573333D01*
X123920238Y-77687619D01*
X123844047Y-77763809D01*
X123729761Y-77801904D01*
X123653571Y-77801904D01*
X124339285Y-77801904D02*
X124339285Y-77001904D01*
X124644047Y-77001904D01*
X124720238Y-77040000D01*
X124758333Y-77078095D01*
X124796428Y-77154285D01*
X124796428Y-77268571D01*
X124758333Y-77344761D01*
X124720238Y-77382857D01*
X124644047Y-77420952D01*
X124339285Y-77420952D01*
X125101190Y-77078095D02*
X125139285Y-77040000D01*
X125215476Y-77001904D01*
X125405952Y-77001904D01*
X125482142Y-77040000D01*
X125520238Y-77078095D01*
X125558333Y-77154285D01*
X125558333Y-77230476D01*
X125520238Y-77344761D01*
X125063095Y-77801904D01*
X125558333Y-77801904D01*
%TO.C,JP1*%
X123958333Y-94601904D02*
X123958333Y-95173333D01*
X123920238Y-95287619D01*
X123844047Y-95363809D01*
X123729761Y-95401904D01*
X123653571Y-95401904D01*
X124339285Y-95401904D02*
X124339285Y-94601904D01*
X124644047Y-94601904D01*
X124720238Y-94640000D01*
X124758333Y-94678095D01*
X124796428Y-94754285D01*
X124796428Y-94868571D01*
X124758333Y-94944761D01*
X124720238Y-94982857D01*
X124644047Y-95020952D01*
X124339285Y-95020952D01*
X125558333Y-95401904D02*
X125101190Y-95401904D01*
X125329761Y-95401904D02*
X125329761Y-94601904D01*
X125253571Y-94716190D01*
X125177380Y-94792380D01*
X125101190Y-94830476D01*
%TO.C,J7*%
X180603095Y-113173333D02*
X180031666Y-113173333D01*
X179917380Y-113135238D01*
X179841190Y-113059047D01*
X179803095Y-112944761D01*
X179803095Y-112868571D01*
X180603095Y-113478095D02*
X180603095Y-114011428D01*
X179803095Y-113668571D01*
D13*
X179732142Y-116797142D02*
X178303571Y-117797142D01*
X179732142Y-118511428D02*
X176732142Y-118511428D01*
X176732142Y-117368571D01*
X176875000Y-117082857D01*
X177017857Y-116940000D01*
X177303571Y-116797142D01*
X177732142Y-116797142D01*
X178017857Y-116940000D01*
X178160714Y-117082857D01*
X178303571Y-117368571D01*
X178303571Y-118511428D01*
X178160714Y-114511428D02*
X178160714Y-115511428D01*
X179732142Y-115511428D02*
X176732142Y-115511428D01*
X176732142Y-114082857D01*
%TO.C,J5*%
D10*
X179726904Y-73706666D02*
X180298333Y-73706666D01*
X180412619Y-73744761D01*
X180488809Y-73820952D01*
X180526904Y-73935238D01*
X180526904Y-74011428D01*
X179726904Y-72944761D02*
X179726904Y-73325714D01*
X180107857Y-73363809D01*
X180069761Y-73325714D01*
X180031666Y-73249523D01*
X180031666Y-73059047D01*
X180069761Y-72982857D01*
X180107857Y-72944761D01*
X180184047Y-72906666D01*
X180374523Y-72906666D01*
X180450714Y-72944761D01*
X180488809Y-72982857D01*
X180526904Y-73059047D01*
X180526904Y-73249523D01*
X180488809Y-73325714D01*
X180450714Y-73363809D01*
D13*
X179982142Y-77082857D02*
X179982142Y-78511428D01*
X176982142Y-78511428D01*
X176982142Y-75511428D02*
X176982142Y-74940000D01*
X177125000Y-74654285D01*
X177410714Y-74368571D01*
X177982142Y-74225714D01*
X178982142Y-74225714D01*
X179553571Y-74368571D01*
X179839285Y-74654285D01*
X179982142Y-74940000D01*
X179982142Y-75511428D01*
X179839285Y-75797142D01*
X179553571Y-76082857D01*
X178982142Y-76225714D01*
X177982142Y-76225714D01*
X177410714Y-76082857D01*
X177125000Y-75797142D01*
X176982142Y-75511428D01*
%TO.C,J4*%
D10*
X97858333Y-122251904D02*
X97858333Y-122823333D01*
X97820238Y-122937619D01*
X97744047Y-123013809D01*
X97629761Y-123051904D01*
X97553571Y-123051904D01*
X98582142Y-122518571D02*
X98582142Y-123051904D01*
X98391666Y-122213809D02*
X98201190Y-122785238D01*
X98696428Y-122785238D01*
%TO.C,J2*%
X98358333Y-69751904D02*
X98358333Y-70323333D01*
X98320238Y-70437619D01*
X98244047Y-70513809D01*
X98129761Y-70551904D01*
X98053571Y-70551904D01*
X98701190Y-69828095D02*
X98739285Y-69790000D01*
X98815476Y-69751904D01*
X99005952Y-69751904D01*
X99082142Y-69790000D01*
X99120238Y-69828095D01*
X99158333Y-69904285D01*
X99158333Y-69980476D01*
X99120238Y-70094761D01*
X98663095Y-70551904D01*
X99158333Y-70551904D01*
D13*
X107982142Y-74690000D02*
X104982142Y-74690000D01*
%TO.C,C32*%
D10*
X171620119Y-84725714D02*
X171582023Y-84763809D01*
X171467738Y-84801904D01*
X171391547Y-84801904D01*
X171277261Y-84763809D01*
X171201071Y-84687619D01*
X171162976Y-84611428D01*
X171124880Y-84459047D01*
X171124880Y-84344761D01*
X171162976Y-84192380D01*
X171201071Y-84116190D01*
X171277261Y-84040000D01*
X171391547Y-84001904D01*
X171467738Y-84001904D01*
X171582023Y-84040000D01*
X171620119Y-84078095D01*
X171886785Y-84001904D02*
X172382023Y-84001904D01*
X172115357Y-84306666D01*
X172229642Y-84306666D01*
X172305833Y-84344761D01*
X172343928Y-84382857D01*
X172382023Y-84459047D01*
X172382023Y-84649523D01*
X172343928Y-84725714D01*
X172305833Y-84763809D01*
X172229642Y-84801904D01*
X172001071Y-84801904D01*
X171924880Y-84763809D01*
X171886785Y-84725714D01*
X172686785Y-84078095D02*
X172724880Y-84040000D01*
X172801071Y-84001904D01*
X172991547Y-84001904D01*
X173067738Y-84040000D01*
X173105833Y-84078095D01*
X173143928Y-84154285D01*
X173143928Y-84230476D01*
X173105833Y-84344761D01*
X172648690Y-84801904D01*
X173143928Y-84801904D01*
%TO.C,C31*%
X171620119Y-85975714D02*
X171582023Y-86013809D01*
X171467738Y-86051904D01*
X171391547Y-86051904D01*
X171277261Y-86013809D01*
X171201071Y-85937619D01*
X171162976Y-85861428D01*
X171124880Y-85709047D01*
X171124880Y-85594761D01*
X171162976Y-85442380D01*
X171201071Y-85366190D01*
X171277261Y-85290000D01*
X171391547Y-85251904D01*
X171467738Y-85251904D01*
X171582023Y-85290000D01*
X171620119Y-85328095D01*
X171886785Y-85251904D02*
X172382023Y-85251904D01*
X172115357Y-85556666D01*
X172229642Y-85556666D01*
X172305833Y-85594761D01*
X172343928Y-85632857D01*
X172382023Y-85709047D01*
X172382023Y-85899523D01*
X172343928Y-85975714D01*
X172305833Y-86013809D01*
X172229642Y-86051904D01*
X172001071Y-86051904D01*
X171924880Y-86013809D01*
X171886785Y-85975714D01*
X173143928Y-86051904D02*
X172686785Y-86051904D01*
X172915357Y-86051904D02*
X172915357Y-85251904D01*
X172839166Y-85366190D01*
X172762976Y-85442380D01*
X172686785Y-85480476D01*
%TO.C,C30*%
X165860714Y-101475714D02*
X165822619Y-101513809D01*
X165708333Y-101551904D01*
X165632142Y-101551904D01*
X165517857Y-101513809D01*
X165441666Y-101437619D01*
X165403571Y-101361428D01*
X165365476Y-101209047D01*
X165365476Y-101094761D01*
X165403571Y-100942380D01*
X165441666Y-100866190D01*
X165517857Y-100790000D01*
X165632142Y-100751904D01*
X165708333Y-100751904D01*
X165822619Y-100790000D01*
X165860714Y-100828095D01*
X166127380Y-100751904D02*
X166622619Y-100751904D01*
X166355952Y-101056666D01*
X166470238Y-101056666D01*
X166546428Y-101094761D01*
X166584523Y-101132857D01*
X166622619Y-101209047D01*
X166622619Y-101399523D01*
X166584523Y-101475714D01*
X166546428Y-101513809D01*
X166470238Y-101551904D01*
X166241666Y-101551904D01*
X166165476Y-101513809D01*
X166127380Y-101475714D01*
X167117857Y-100751904D02*
X167194047Y-100751904D01*
X167270238Y-100790000D01*
X167308333Y-100828095D01*
X167346428Y-100904285D01*
X167384523Y-101056666D01*
X167384523Y-101247142D01*
X167346428Y-101399523D01*
X167308333Y-101475714D01*
X167270238Y-101513809D01*
X167194047Y-101551904D01*
X167117857Y-101551904D01*
X167041666Y-101513809D01*
X167003571Y-101475714D01*
X166965476Y-101399523D01*
X166927380Y-101247142D01*
X166927380Y-101056666D01*
X166965476Y-100904285D01*
X167003571Y-100828095D01*
X167041666Y-100790000D01*
X167117857Y-100751904D01*
%TO.C,C29*%
X171620119Y-87225714D02*
X171582023Y-87263809D01*
X171467738Y-87301904D01*
X171391547Y-87301904D01*
X171277261Y-87263809D01*
X171201071Y-87187619D01*
X171162976Y-87111428D01*
X171124880Y-86959047D01*
X171124880Y-86844761D01*
X171162976Y-86692380D01*
X171201071Y-86616190D01*
X171277261Y-86540000D01*
X171391547Y-86501904D01*
X171467738Y-86501904D01*
X171582023Y-86540000D01*
X171620119Y-86578095D01*
X171924880Y-86578095D02*
X171962976Y-86540000D01*
X172039166Y-86501904D01*
X172229642Y-86501904D01*
X172305833Y-86540000D01*
X172343928Y-86578095D01*
X172382023Y-86654285D01*
X172382023Y-86730476D01*
X172343928Y-86844761D01*
X171886785Y-87301904D01*
X172382023Y-87301904D01*
X172762976Y-87301904D02*
X172915357Y-87301904D01*
X172991547Y-87263809D01*
X173029642Y-87225714D01*
X173105833Y-87111428D01*
X173143928Y-86959047D01*
X173143928Y-86654285D01*
X173105833Y-86578095D01*
X173067738Y-86540000D01*
X172991547Y-86501904D01*
X172839166Y-86501904D01*
X172762976Y-86540000D01*
X172724880Y-86578095D01*
X172686785Y-86654285D01*
X172686785Y-86844761D01*
X172724880Y-86920952D01*
X172762976Y-86959047D01*
X172839166Y-86997142D01*
X172991547Y-86997142D01*
X173067738Y-86959047D01*
X173105833Y-86920952D01*
X173143928Y-86844761D01*
%TO.C,C28*%
X166410714Y-91954285D02*
X166448809Y-91992380D01*
X166486904Y-92106666D01*
X166486904Y-92182857D01*
X166448809Y-92297142D01*
X166372619Y-92373333D01*
X166296428Y-92411428D01*
X166144047Y-92449523D01*
X166029761Y-92449523D01*
X165877380Y-92411428D01*
X165801190Y-92373333D01*
X165725000Y-92297142D01*
X165686904Y-92182857D01*
X165686904Y-92106666D01*
X165725000Y-91992380D01*
X165763095Y-91954285D01*
X165763095Y-91649523D02*
X165725000Y-91611428D01*
X165686904Y-91535238D01*
X165686904Y-91344761D01*
X165725000Y-91268571D01*
X165763095Y-91230476D01*
X165839285Y-91192380D01*
X165915476Y-91192380D01*
X166029761Y-91230476D01*
X166486904Y-91687619D01*
X166486904Y-91192380D01*
X166029761Y-90735238D02*
X165991666Y-90811428D01*
X165953571Y-90849523D01*
X165877380Y-90887619D01*
X165839285Y-90887619D01*
X165763095Y-90849523D01*
X165725000Y-90811428D01*
X165686904Y-90735238D01*
X165686904Y-90582857D01*
X165725000Y-90506666D01*
X165763095Y-90468571D01*
X165839285Y-90430476D01*
X165877380Y-90430476D01*
X165953571Y-90468571D01*
X165991666Y-90506666D01*
X166029761Y-90582857D01*
X166029761Y-90735238D01*
X166067857Y-90811428D01*
X166105952Y-90849523D01*
X166182142Y-90887619D01*
X166334523Y-90887619D01*
X166410714Y-90849523D01*
X166448809Y-90811428D01*
X166486904Y-90735238D01*
X166486904Y-90582857D01*
X166448809Y-90506666D01*
X166410714Y-90468571D01*
X166334523Y-90430476D01*
X166182142Y-90430476D01*
X166105952Y-90468571D01*
X166067857Y-90506666D01*
X166029761Y-90582857D01*
%TO.C,C26*%
X152710714Y-100325714D02*
X152672619Y-100363809D01*
X152558333Y-100401904D01*
X152482142Y-100401904D01*
X152367857Y-100363809D01*
X152291666Y-100287619D01*
X152253571Y-100211428D01*
X152215476Y-100059047D01*
X152215476Y-99944761D01*
X152253571Y-99792380D01*
X152291666Y-99716190D01*
X152367857Y-99640000D01*
X152482142Y-99601904D01*
X152558333Y-99601904D01*
X152672619Y-99640000D01*
X152710714Y-99678095D01*
X153015476Y-99678095D02*
X153053571Y-99640000D01*
X153129761Y-99601904D01*
X153320238Y-99601904D01*
X153396428Y-99640000D01*
X153434523Y-99678095D01*
X153472619Y-99754285D01*
X153472619Y-99830476D01*
X153434523Y-99944761D01*
X152977380Y-100401904D01*
X153472619Y-100401904D01*
X154158333Y-99601904D02*
X154005952Y-99601904D01*
X153929761Y-99640000D01*
X153891666Y-99678095D01*
X153815476Y-99792380D01*
X153777380Y-99944761D01*
X153777380Y-100249523D01*
X153815476Y-100325714D01*
X153853571Y-100363809D01*
X153929761Y-100401904D01*
X154082142Y-100401904D01*
X154158333Y-100363809D01*
X154196428Y-100325714D01*
X154234523Y-100249523D01*
X154234523Y-100059047D01*
X154196428Y-99982857D01*
X154158333Y-99944761D01*
X154082142Y-99906666D01*
X153929761Y-99906666D01*
X153853571Y-99944761D01*
X153815476Y-99982857D01*
X153777380Y-100059047D01*
%TO.C,C25*%
X149910714Y-106925714D02*
X149872619Y-106963809D01*
X149758333Y-107001904D01*
X149682142Y-107001904D01*
X149567857Y-106963809D01*
X149491666Y-106887619D01*
X149453571Y-106811428D01*
X149415476Y-106659047D01*
X149415476Y-106544761D01*
X149453571Y-106392380D01*
X149491666Y-106316190D01*
X149567857Y-106240000D01*
X149682142Y-106201904D01*
X149758333Y-106201904D01*
X149872619Y-106240000D01*
X149910714Y-106278095D01*
X150215476Y-106278095D02*
X150253571Y-106240000D01*
X150329761Y-106201904D01*
X150520238Y-106201904D01*
X150596428Y-106240000D01*
X150634523Y-106278095D01*
X150672619Y-106354285D01*
X150672619Y-106430476D01*
X150634523Y-106544761D01*
X150177380Y-107001904D01*
X150672619Y-107001904D01*
X151396428Y-106201904D02*
X151015476Y-106201904D01*
X150977380Y-106582857D01*
X151015476Y-106544761D01*
X151091666Y-106506666D01*
X151282142Y-106506666D01*
X151358333Y-106544761D01*
X151396428Y-106582857D01*
X151434523Y-106659047D01*
X151434523Y-106849523D01*
X151396428Y-106925714D01*
X151358333Y-106963809D01*
X151282142Y-107001904D01*
X151091666Y-107001904D01*
X151015476Y-106963809D01*
X150977380Y-106925714D01*
%TO.C,C24*%
X152710714Y-113525714D02*
X152672619Y-113563809D01*
X152558333Y-113601904D01*
X152482142Y-113601904D01*
X152367857Y-113563809D01*
X152291666Y-113487619D01*
X152253571Y-113411428D01*
X152215476Y-113259047D01*
X152215476Y-113144761D01*
X152253571Y-112992380D01*
X152291666Y-112916190D01*
X152367857Y-112840000D01*
X152482142Y-112801904D01*
X152558333Y-112801904D01*
X152672619Y-112840000D01*
X152710714Y-112878095D01*
X153015476Y-112878095D02*
X153053571Y-112840000D01*
X153129761Y-112801904D01*
X153320238Y-112801904D01*
X153396428Y-112840000D01*
X153434523Y-112878095D01*
X153472619Y-112954285D01*
X153472619Y-113030476D01*
X153434523Y-113144761D01*
X152977380Y-113601904D01*
X153472619Y-113601904D01*
X154158333Y-113068571D02*
X154158333Y-113601904D01*
X153967857Y-112763809D02*
X153777380Y-113335238D01*
X154272619Y-113335238D01*
%TO.C,C23*%
X152860714Y-78725714D02*
X152822619Y-78763809D01*
X152708333Y-78801904D01*
X152632142Y-78801904D01*
X152517857Y-78763809D01*
X152441666Y-78687619D01*
X152403571Y-78611428D01*
X152365476Y-78459047D01*
X152365476Y-78344761D01*
X152403571Y-78192380D01*
X152441666Y-78116190D01*
X152517857Y-78040000D01*
X152632142Y-78001904D01*
X152708333Y-78001904D01*
X152822619Y-78040000D01*
X152860714Y-78078095D01*
X153165476Y-78078095D02*
X153203571Y-78040000D01*
X153279761Y-78001904D01*
X153470238Y-78001904D01*
X153546428Y-78040000D01*
X153584523Y-78078095D01*
X153622619Y-78154285D01*
X153622619Y-78230476D01*
X153584523Y-78344761D01*
X153127380Y-78801904D01*
X153622619Y-78801904D01*
X153889285Y-78001904D02*
X154384523Y-78001904D01*
X154117857Y-78306666D01*
X154232142Y-78306666D01*
X154308333Y-78344761D01*
X154346428Y-78382857D01*
X154384523Y-78459047D01*
X154384523Y-78649523D01*
X154346428Y-78725714D01*
X154308333Y-78763809D01*
X154232142Y-78801904D01*
X154003571Y-78801904D01*
X153927380Y-78763809D01*
X153889285Y-78725714D01*
%TO.C,C22*%
X149860714Y-85975714D02*
X149822619Y-86013809D01*
X149708333Y-86051904D01*
X149632142Y-86051904D01*
X149517857Y-86013809D01*
X149441666Y-85937619D01*
X149403571Y-85861428D01*
X149365476Y-85709047D01*
X149365476Y-85594761D01*
X149403571Y-85442380D01*
X149441666Y-85366190D01*
X149517857Y-85290000D01*
X149632142Y-85251904D01*
X149708333Y-85251904D01*
X149822619Y-85290000D01*
X149860714Y-85328095D01*
X150165476Y-85328095D02*
X150203571Y-85290000D01*
X150279761Y-85251904D01*
X150470238Y-85251904D01*
X150546428Y-85290000D01*
X150584523Y-85328095D01*
X150622619Y-85404285D01*
X150622619Y-85480476D01*
X150584523Y-85594761D01*
X150127380Y-86051904D01*
X150622619Y-86051904D01*
X150927380Y-85328095D02*
X150965476Y-85290000D01*
X151041666Y-85251904D01*
X151232142Y-85251904D01*
X151308333Y-85290000D01*
X151346428Y-85328095D01*
X151384523Y-85404285D01*
X151384523Y-85480476D01*
X151346428Y-85594761D01*
X150889285Y-86051904D01*
X151384523Y-86051904D01*
%TO.C,C21*%
X152860714Y-93225714D02*
X152822619Y-93263809D01*
X152708333Y-93301904D01*
X152632142Y-93301904D01*
X152517857Y-93263809D01*
X152441666Y-93187619D01*
X152403571Y-93111428D01*
X152365476Y-92959047D01*
X152365476Y-92844761D01*
X152403571Y-92692380D01*
X152441666Y-92616190D01*
X152517857Y-92540000D01*
X152632142Y-92501904D01*
X152708333Y-92501904D01*
X152822619Y-92540000D01*
X152860714Y-92578095D01*
X153165476Y-92578095D02*
X153203571Y-92540000D01*
X153279761Y-92501904D01*
X153470238Y-92501904D01*
X153546428Y-92540000D01*
X153584523Y-92578095D01*
X153622619Y-92654285D01*
X153622619Y-92730476D01*
X153584523Y-92844761D01*
X153127380Y-93301904D01*
X153622619Y-93301904D01*
X154384523Y-93301904D02*
X153927380Y-93301904D01*
X154155952Y-93301904D02*
X154155952Y-92501904D01*
X154079761Y-92616190D01*
X154003571Y-92692380D01*
X153927380Y-92730476D01*
%TO.C,C20*%
X140110714Y-100325714D02*
X140072619Y-100363809D01*
X139958333Y-100401904D01*
X139882142Y-100401904D01*
X139767857Y-100363809D01*
X139691666Y-100287619D01*
X139653571Y-100211428D01*
X139615476Y-100059047D01*
X139615476Y-99944761D01*
X139653571Y-99792380D01*
X139691666Y-99716190D01*
X139767857Y-99640000D01*
X139882142Y-99601904D01*
X139958333Y-99601904D01*
X140072619Y-99640000D01*
X140110714Y-99678095D01*
X140415476Y-99678095D02*
X140453571Y-99640000D01*
X140529761Y-99601904D01*
X140720238Y-99601904D01*
X140796428Y-99640000D01*
X140834523Y-99678095D01*
X140872619Y-99754285D01*
X140872619Y-99830476D01*
X140834523Y-99944761D01*
X140377380Y-100401904D01*
X140872619Y-100401904D01*
X141367857Y-99601904D02*
X141444047Y-99601904D01*
X141520238Y-99640000D01*
X141558333Y-99678095D01*
X141596428Y-99754285D01*
X141634523Y-99906666D01*
X141634523Y-100097142D01*
X141596428Y-100249523D01*
X141558333Y-100325714D01*
X141520238Y-100363809D01*
X141444047Y-100401904D01*
X141367857Y-100401904D01*
X141291666Y-100363809D01*
X141253571Y-100325714D01*
X141215476Y-100249523D01*
X141177380Y-100097142D01*
X141177380Y-99906666D01*
X141215476Y-99754285D01*
X141253571Y-99678095D01*
X141291666Y-99640000D01*
X141367857Y-99601904D01*
%TO.C,C19*%
X142860714Y-106925714D02*
X142822619Y-106963809D01*
X142708333Y-107001904D01*
X142632142Y-107001904D01*
X142517857Y-106963809D01*
X142441666Y-106887619D01*
X142403571Y-106811428D01*
X142365476Y-106659047D01*
X142365476Y-106544761D01*
X142403571Y-106392380D01*
X142441666Y-106316190D01*
X142517857Y-106240000D01*
X142632142Y-106201904D01*
X142708333Y-106201904D01*
X142822619Y-106240000D01*
X142860714Y-106278095D01*
X143622619Y-107001904D02*
X143165476Y-107001904D01*
X143394047Y-107001904D02*
X143394047Y-106201904D01*
X143317857Y-106316190D01*
X143241666Y-106392380D01*
X143165476Y-106430476D01*
X144003571Y-107001904D02*
X144155952Y-107001904D01*
X144232142Y-106963809D01*
X144270238Y-106925714D01*
X144346428Y-106811428D01*
X144384523Y-106659047D01*
X144384523Y-106354285D01*
X144346428Y-106278095D01*
X144308333Y-106240000D01*
X144232142Y-106201904D01*
X144079761Y-106201904D01*
X144003571Y-106240000D01*
X143965476Y-106278095D01*
X143927380Y-106354285D01*
X143927380Y-106544761D01*
X143965476Y-106620952D01*
X144003571Y-106659047D01*
X144079761Y-106697142D01*
X144232142Y-106697142D01*
X144308333Y-106659047D01*
X144346428Y-106620952D01*
X144384523Y-106544761D01*
%TO.C,C18*%
X140110714Y-113525714D02*
X140072619Y-113563809D01*
X139958333Y-113601904D01*
X139882142Y-113601904D01*
X139767857Y-113563809D01*
X139691666Y-113487619D01*
X139653571Y-113411428D01*
X139615476Y-113259047D01*
X139615476Y-113144761D01*
X139653571Y-112992380D01*
X139691666Y-112916190D01*
X139767857Y-112840000D01*
X139882142Y-112801904D01*
X139958333Y-112801904D01*
X140072619Y-112840000D01*
X140110714Y-112878095D01*
X140872619Y-113601904D02*
X140415476Y-113601904D01*
X140644047Y-113601904D02*
X140644047Y-112801904D01*
X140567857Y-112916190D01*
X140491666Y-112992380D01*
X140415476Y-113030476D01*
X141329761Y-113144761D02*
X141253571Y-113106666D01*
X141215476Y-113068571D01*
X141177380Y-112992380D01*
X141177380Y-112954285D01*
X141215476Y-112878095D01*
X141253571Y-112840000D01*
X141329761Y-112801904D01*
X141482142Y-112801904D01*
X141558333Y-112840000D01*
X141596428Y-112878095D01*
X141634523Y-112954285D01*
X141634523Y-112992380D01*
X141596428Y-113068571D01*
X141558333Y-113106666D01*
X141482142Y-113144761D01*
X141329761Y-113144761D01*
X141253571Y-113182857D01*
X141215476Y-113220952D01*
X141177380Y-113297142D01*
X141177380Y-113449523D01*
X141215476Y-113525714D01*
X141253571Y-113563809D01*
X141329761Y-113601904D01*
X141482142Y-113601904D01*
X141558333Y-113563809D01*
X141596428Y-113525714D01*
X141634523Y-113449523D01*
X141634523Y-113297142D01*
X141596428Y-113220952D01*
X141558333Y-113182857D01*
X141482142Y-113144761D01*
%TO.C,C17*%
X140110714Y-79925714D02*
X140072619Y-79963809D01*
X139958333Y-80001904D01*
X139882142Y-80001904D01*
X139767857Y-79963809D01*
X139691666Y-79887619D01*
X139653571Y-79811428D01*
X139615476Y-79659047D01*
X139615476Y-79544761D01*
X139653571Y-79392380D01*
X139691666Y-79316190D01*
X139767857Y-79240000D01*
X139882142Y-79201904D01*
X139958333Y-79201904D01*
X140072619Y-79240000D01*
X140110714Y-79278095D01*
X140872619Y-80001904D02*
X140415476Y-80001904D01*
X140644047Y-80001904D02*
X140644047Y-79201904D01*
X140567857Y-79316190D01*
X140491666Y-79392380D01*
X140415476Y-79430476D01*
X141139285Y-79201904D02*
X141672619Y-79201904D01*
X141329761Y-80001904D01*
%TO.C,C16*%
X142860714Y-86525714D02*
X142822619Y-86563809D01*
X142708333Y-86601904D01*
X142632142Y-86601904D01*
X142517857Y-86563809D01*
X142441666Y-86487619D01*
X142403571Y-86411428D01*
X142365476Y-86259047D01*
X142365476Y-86144761D01*
X142403571Y-85992380D01*
X142441666Y-85916190D01*
X142517857Y-85840000D01*
X142632142Y-85801904D01*
X142708333Y-85801904D01*
X142822619Y-85840000D01*
X142860714Y-85878095D01*
X143622619Y-86601904D02*
X143165476Y-86601904D01*
X143394047Y-86601904D02*
X143394047Y-85801904D01*
X143317857Y-85916190D01*
X143241666Y-85992380D01*
X143165476Y-86030476D01*
X144308333Y-85801904D02*
X144155952Y-85801904D01*
X144079761Y-85840000D01*
X144041666Y-85878095D01*
X143965476Y-85992380D01*
X143927380Y-86144761D01*
X143927380Y-86449523D01*
X143965476Y-86525714D01*
X144003571Y-86563809D01*
X144079761Y-86601904D01*
X144232142Y-86601904D01*
X144308333Y-86563809D01*
X144346428Y-86525714D01*
X144384523Y-86449523D01*
X144384523Y-86259047D01*
X144346428Y-86182857D01*
X144308333Y-86144761D01*
X144232142Y-86106666D01*
X144079761Y-86106666D01*
X144003571Y-86144761D01*
X143965476Y-86182857D01*
X143927380Y-86259047D01*
%TO.C,C15*%
X140110714Y-93225714D02*
X140072619Y-93263809D01*
X139958333Y-93301904D01*
X139882142Y-93301904D01*
X139767857Y-93263809D01*
X139691666Y-93187619D01*
X139653571Y-93111428D01*
X139615476Y-92959047D01*
X139615476Y-92844761D01*
X139653571Y-92692380D01*
X139691666Y-92616190D01*
X139767857Y-92540000D01*
X139882142Y-92501904D01*
X139958333Y-92501904D01*
X140072619Y-92540000D01*
X140110714Y-92578095D01*
X140872619Y-93301904D02*
X140415476Y-93301904D01*
X140644047Y-93301904D02*
X140644047Y-92501904D01*
X140567857Y-92616190D01*
X140491666Y-92692380D01*
X140415476Y-92730476D01*
X141596428Y-92501904D02*
X141215476Y-92501904D01*
X141177380Y-92882857D01*
X141215476Y-92844761D01*
X141291666Y-92806666D01*
X141482142Y-92806666D01*
X141558333Y-92844761D01*
X141596428Y-92882857D01*
X141634523Y-92959047D01*
X141634523Y-93149523D01*
X141596428Y-93225714D01*
X141558333Y-93263809D01*
X141482142Y-93301904D01*
X141291666Y-93301904D01*
X141215476Y-93263809D01*
X141177380Y-93225714D01*
%TO.C,C14*%
X127310714Y-99325714D02*
X127272619Y-99363809D01*
X127158333Y-99401904D01*
X127082142Y-99401904D01*
X126967857Y-99363809D01*
X126891666Y-99287619D01*
X126853571Y-99211428D01*
X126815476Y-99059047D01*
X126815476Y-98944761D01*
X126853571Y-98792380D01*
X126891666Y-98716190D01*
X126967857Y-98640000D01*
X127082142Y-98601904D01*
X127158333Y-98601904D01*
X127272619Y-98640000D01*
X127310714Y-98678095D01*
X128072619Y-99401904D02*
X127615476Y-99401904D01*
X127844047Y-99401904D02*
X127844047Y-98601904D01*
X127767857Y-98716190D01*
X127691666Y-98792380D01*
X127615476Y-98830476D01*
X128758333Y-98868571D02*
X128758333Y-99401904D01*
X128567857Y-98563809D02*
X128377380Y-99135238D01*
X128872619Y-99135238D01*
%TO.C,C13*%
X130110714Y-106925714D02*
X130072619Y-106963809D01*
X129958333Y-107001904D01*
X129882142Y-107001904D01*
X129767857Y-106963809D01*
X129691666Y-106887619D01*
X129653571Y-106811428D01*
X129615476Y-106659047D01*
X129615476Y-106544761D01*
X129653571Y-106392380D01*
X129691666Y-106316190D01*
X129767857Y-106240000D01*
X129882142Y-106201904D01*
X129958333Y-106201904D01*
X130072619Y-106240000D01*
X130110714Y-106278095D01*
X130872619Y-107001904D02*
X130415476Y-107001904D01*
X130644047Y-107001904D02*
X130644047Y-106201904D01*
X130567857Y-106316190D01*
X130491666Y-106392380D01*
X130415476Y-106430476D01*
X131139285Y-106201904D02*
X131634523Y-106201904D01*
X131367857Y-106506666D01*
X131482142Y-106506666D01*
X131558333Y-106544761D01*
X131596428Y-106582857D01*
X131634523Y-106659047D01*
X131634523Y-106849523D01*
X131596428Y-106925714D01*
X131558333Y-106963809D01*
X131482142Y-107001904D01*
X131253571Y-107001904D01*
X131177380Y-106963809D01*
X131139285Y-106925714D01*
%TO.C,C12*%
X127310714Y-113725714D02*
X127272619Y-113763809D01*
X127158333Y-113801904D01*
X127082142Y-113801904D01*
X126967857Y-113763809D01*
X126891666Y-113687619D01*
X126853571Y-113611428D01*
X126815476Y-113459047D01*
X126815476Y-113344761D01*
X126853571Y-113192380D01*
X126891666Y-113116190D01*
X126967857Y-113040000D01*
X127082142Y-113001904D01*
X127158333Y-113001904D01*
X127272619Y-113040000D01*
X127310714Y-113078095D01*
X128072619Y-113801904D02*
X127615476Y-113801904D01*
X127844047Y-113801904D02*
X127844047Y-113001904D01*
X127767857Y-113116190D01*
X127691666Y-113192380D01*
X127615476Y-113230476D01*
X128377380Y-113078095D02*
X128415476Y-113040000D01*
X128491666Y-113001904D01*
X128682142Y-113001904D01*
X128758333Y-113040000D01*
X128796428Y-113078095D01*
X128834523Y-113154285D01*
X128834523Y-113230476D01*
X128796428Y-113344761D01*
X128339285Y-113801904D01*
X128834523Y-113801904D01*
%TO.C,C11*%
X127360714Y-79925714D02*
X127322619Y-79963809D01*
X127208333Y-80001904D01*
X127132142Y-80001904D01*
X127017857Y-79963809D01*
X126941666Y-79887619D01*
X126903571Y-79811428D01*
X126865476Y-79659047D01*
X126865476Y-79544761D01*
X126903571Y-79392380D01*
X126941666Y-79316190D01*
X127017857Y-79240000D01*
X127132142Y-79201904D01*
X127208333Y-79201904D01*
X127322619Y-79240000D01*
X127360714Y-79278095D01*
X128122619Y-80001904D02*
X127665476Y-80001904D01*
X127894047Y-80001904D02*
X127894047Y-79201904D01*
X127817857Y-79316190D01*
X127741666Y-79392380D01*
X127665476Y-79430476D01*
X128884523Y-80001904D02*
X128427380Y-80001904D01*
X128655952Y-80001904D02*
X128655952Y-79201904D01*
X128579761Y-79316190D01*
X128503571Y-79392380D01*
X128427380Y-79430476D01*
%TO.C,C9*%
X127741666Y-93225714D02*
X127703571Y-93263809D01*
X127589285Y-93301904D01*
X127513095Y-93301904D01*
X127398809Y-93263809D01*
X127322619Y-93187619D01*
X127284523Y-93111428D01*
X127246428Y-92959047D01*
X127246428Y-92844761D01*
X127284523Y-92692380D01*
X127322619Y-92616190D01*
X127398809Y-92540000D01*
X127513095Y-92501904D01*
X127589285Y-92501904D01*
X127703571Y-92540000D01*
X127741666Y-92578095D01*
X128122619Y-93301904D02*
X128275000Y-93301904D01*
X128351190Y-93263809D01*
X128389285Y-93225714D01*
X128465476Y-93111428D01*
X128503571Y-92959047D01*
X128503571Y-92654285D01*
X128465476Y-92578095D01*
X128427380Y-92540000D01*
X128351190Y-92501904D01*
X128198809Y-92501904D01*
X128122619Y-92540000D01*
X128084523Y-92578095D01*
X128046428Y-92654285D01*
X128046428Y-92844761D01*
X128084523Y-92920952D01*
X128122619Y-92959047D01*
X128198809Y-92997142D01*
X128351190Y-92997142D01*
X128427380Y-92959047D01*
X128465476Y-92920952D01*
X128503571Y-92844761D01*
%TO.C,C8*%
X117491666Y-99475714D02*
X117453571Y-99513809D01*
X117339285Y-99551904D01*
X117263095Y-99551904D01*
X117148809Y-99513809D01*
X117072619Y-99437619D01*
X117034523Y-99361428D01*
X116996428Y-99209047D01*
X116996428Y-99094761D01*
X117034523Y-98942380D01*
X117072619Y-98866190D01*
X117148809Y-98790000D01*
X117263095Y-98751904D01*
X117339285Y-98751904D01*
X117453571Y-98790000D01*
X117491666Y-98828095D01*
X117948809Y-99094761D02*
X117872619Y-99056666D01*
X117834523Y-99018571D01*
X117796428Y-98942380D01*
X117796428Y-98904285D01*
X117834523Y-98828095D01*
X117872619Y-98790000D01*
X117948809Y-98751904D01*
X118101190Y-98751904D01*
X118177380Y-98790000D01*
X118215476Y-98828095D01*
X118253571Y-98904285D01*
X118253571Y-98942380D01*
X118215476Y-99018571D01*
X118177380Y-99056666D01*
X118101190Y-99094761D01*
X117948809Y-99094761D01*
X117872619Y-99132857D01*
X117834523Y-99170952D01*
X117796428Y-99247142D01*
X117796428Y-99399523D01*
X117834523Y-99475714D01*
X117872619Y-99513809D01*
X117948809Y-99551904D01*
X118101190Y-99551904D01*
X118177380Y-99513809D01*
X118215476Y-99475714D01*
X118253571Y-99399523D01*
X118253571Y-99247142D01*
X118215476Y-99170952D01*
X118177380Y-99132857D01*
X118101190Y-99094761D01*
%TO.C,C7*%
X118991666Y-112225714D02*
X118953571Y-112263809D01*
X118839285Y-112301904D01*
X118763095Y-112301904D01*
X118648809Y-112263809D01*
X118572619Y-112187619D01*
X118534523Y-112111428D01*
X118496428Y-111959047D01*
X118496428Y-111844761D01*
X118534523Y-111692380D01*
X118572619Y-111616190D01*
X118648809Y-111540000D01*
X118763095Y-111501904D01*
X118839285Y-111501904D01*
X118953571Y-111540000D01*
X118991666Y-111578095D01*
X119258333Y-111501904D02*
X119791666Y-111501904D01*
X119448809Y-112301904D01*
%TO.C,C6*%
X117910714Y-77323333D02*
X117948809Y-77361428D01*
X117986904Y-77475714D01*
X117986904Y-77551904D01*
X117948809Y-77666190D01*
X117872619Y-77742380D01*
X117796428Y-77780476D01*
X117644047Y-77818571D01*
X117529761Y-77818571D01*
X117377380Y-77780476D01*
X117301190Y-77742380D01*
X117225000Y-77666190D01*
X117186904Y-77551904D01*
X117186904Y-77475714D01*
X117225000Y-77361428D01*
X117263095Y-77323333D01*
X117186904Y-76637619D02*
X117186904Y-76790000D01*
X117225000Y-76866190D01*
X117263095Y-76904285D01*
X117377380Y-76980476D01*
X117529761Y-77018571D01*
X117834523Y-77018571D01*
X117910714Y-76980476D01*
X117948809Y-76942380D01*
X117986904Y-76866190D01*
X117986904Y-76713809D01*
X117948809Y-76637619D01*
X117910714Y-76599523D01*
X117834523Y-76561428D01*
X117644047Y-76561428D01*
X117567857Y-76599523D01*
X117529761Y-76637619D01*
X117491666Y-76713809D01*
X117491666Y-76866190D01*
X117529761Y-76942380D01*
X117567857Y-76980476D01*
X117644047Y-77018571D01*
%TO.C,C5*%
X117491666Y-92975714D02*
X117453571Y-93013809D01*
X117339285Y-93051904D01*
X117263095Y-93051904D01*
X117148809Y-93013809D01*
X117072619Y-92937619D01*
X117034523Y-92861428D01*
X116996428Y-92709047D01*
X116996428Y-92594761D01*
X117034523Y-92442380D01*
X117072619Y-92366190D01*
X117148809Y-92290000D01*
X117263095Y-92251904D01*
X117339285Y-92251904D01*
X117453571Y-92290000D01*
X117491666Y-92328095D01*
X118215476Y-92251904D02*
X117834523Y-92251904D01*
X117796428Y-92632857D01*
X117834523Y-92594761D01*
X117910714Y-92556666D01*
X118101190Y-92556666D01*
X118177380Y-92594761D01*
X118215476Y-92632857D01*
X118253571Y-92709047D01*
X118253571Y-92899523D01*
X118215476Y-92975714D01*
X118177380Y-93013809D01*
X118101190Y-93051904D01*
X117910714Y-93051904D01*
X117834523Y-93013809D01*
X117796428Y-92975714D01*
%TO.C,C3*%
X111491666Y-111225714D02*
X111453571Y-111263809D01*
X111339285Y-111301904D01*
X111263095Y-111301904D01*
X111148809Y-111263809D01*
X111072619Y-111187619D01*
X111034523Y-111111428D01*
X110996428Y-110959047D01*
X110996428Y-110844761D01*
X111034523Y-110692380D01*
X111072619Y-110616190D01*
X111148809Y-110540000D01*
X111263095Y-110501904D01*
X111339285Y-110501904D01*
X111453571Y-110540000D01*
X111491666Y-110578095D01*
X111758333Y-110501904D02*
X112253571Y-110501904D01*
X111986904Y-110806666D01*
X112101190Y-110806666D01*
X112177380Y-110844761D01*
X112215476Y-110882857D01*
X112253571Y-110959047D01*
X112253571Y-111149523D01*
X112215476Y-111225714D01*
X112177380Y-111263809D01*
X112101190Y-111301904D01*
X111872619Y-111301904D01*
X111796428Y-111263809D01*
X111758333Y-111225714D01*
%TO.C,C2*%
X111660714Y-85573333D02*
X111698809Y-85611428D01*
X111736904Y-85725714D01*
X111736904Y-85801904D01*
X111698809Y-85916190D01*
X111622619Y-85992380D01*
X111546428Y-86030476D01*
X111394047Y-86068571D01*
X111279761Y-86068571D01*
X111127380Y-86030476D01*
X111051190Y-85992380D01*
X110975000Y-85916190D01*
X110936904Y-85801904D01*
X110936904Y-85725714D01*
X110975000Y-85611428D01*
X111013095Y-85573333D01*
X111013095Y-85268571D02*
X110975000Y-85230476D01*
X110936904Y-85154285D01*
X110936904Y-84963809D01*
X110975000Y-84887619D01*
X111013095Y-84849523D01*
X111089285Y-84811428D01*
X111165476Y-84811428D01*
X111279761Y-84849523D01*
X111736904Y-85306666D01*
X111736904Y-84811428D01*
%TD*%
M02*
