M48
; DRILL file {KiCad (5.1.8)-1} date 12/12/20 14:47:06
; FORMAT={-:-/ absolute / inch / decimal}
; #@! TF.CreationDate,2020-12-12T14:47:06+01:00
; #@! TF.GenerationSoftware,Kicad,Pcbnew,(5.1.8)-1
FMAT,2
INCH
T1C0.0118
T2C0.0394
T3C0.0512
%
G90
G05
T1
X3.9222Y-2.7732
X3.9222Y-2.911
X3.9222Y-3.1079
X3.9222Y-3.2457
X3.9222Y-4.348
X3.9222Y-4.4858
X3.9222Y-4.6827
X3.9222Y-4.8205
X3.9321Y-3.8264
X4.0305Y-3.6591
X4.06Y-2.8421
X4.06Y-3.1768
X4.06Y-4.4169
X4.06Y-4.7516
X4.1191Y-3.9445
X4.1289Y-3.5803
X4.1486Y-3.974
X4.1585Y-3.8559
X4.1781Y-4.0035
X4.2077Y-3.915
X4.2569Y-3.9248
X4.2766Y-3.1177
X4.2864Y-4.3677
X4.3061Y-3.413
X4.3159Y-4.2004
X4.3356Y-3.5803
X4.375Y-4.1118
X4.3848Y-3.413
X4.3947Y-3.2654
X4.3947Y-4.2004
X4.4222Y-3.7752
X4.4242Y-3.9642
X4.4734Y-3.6492
X4.4833Y-3.3736
X4.4931Y-3.7181
X4.4931Y-4.2299
X4.5325Y-3.8756
X4.5935Y-3.2752
X4.5935Y-3.413
X4.5935Y-4.1217
X4.5935Y-4.2594
X4.6033Y-3.7496
X4.6033Y-3.8441
X4.6507Y-3.7083
X4.6801Y-3.5508
X4.6801Y-3.6394
X4.6801Y-3.915
X4.6801Y-3.9937
X4.6801Y-4.2988
X4.69Y-3.0587
X4.6998Y-3.2358
X4.7195Y-3.5508
X4.7195Y-3.915
X4.7195Y-3.9937
X4.7844Y-3.3969
X4.7844Y-4.1969
X4.8573Y-3.1965
X4.8573Y-3.6
X4.8573Y-3.9937
X4.8573Y-4.3972
X4.9344Y-3.3969
X4.9344Y-4.1969
X5.0344Y-3.0469
X5.0344Y-3.1719
X5.0344Y-3.6219
X5.0344Y-3.7469
X5.0344Y-3.8469
X5.0344Y-3.9469
X5.0344Y-4.4219
X5.0344Y-4.5469
X5.0844Y-3.3969
X5.0844Y-4.1969
X5.2844Y-3.1469
X5.2844Y-3.3969
X5.2844Y-3.6469
X5.2844Y-3.9469
X5.2844Y-4.1969
X5.2844Y-4.4469
X5.4844Y-3.3969
X5.4844Y-4.1969
X5.5344Y-3.0469
X5.5344Y-3.1719
X5.5344Y-3.6219
X5.5344Y-3.7469
X5.5344Y-3.8469
X5.5344Y-3.9719
X5.5344Y-4.4219
X5.5344Y-4.5469
X5.5844Y-3.3969
X5.5844Y-4.1969
X5.7844Y-3.1469
X5.7844Y-3.3969
X5.7844Y-3.6469
X5.7844Y-3.9469
X5.7844Y-4.1969
X5.7844Y-4.4469
X5.9844Y-3.3969
X5.9844Y-4.1969
X6.0344Y-3.0469
X6.0344Y-3.1719
X6.0344Y-3.6219
X6.0344Y-3.7469
X6.0344Y-3.8469
X6.0344Y-3.9719
X6.0344Y-4.4219
X6.0344Y-4.5469
X6.1959Y-4.1118
X6.1959Y-4.2791
X6.2156Y-3.1965
X6.2156Y-3.5902
X6.2844Y-3.3969
X6.2844Y-4.1969
X6.3829Y-3.8362
X6.3844Y-3.1469
X6.3844Y-3.7575
X6.4026Y-2.8913
X6.4124Y-3.6295
X6.4321Y-3.7969
X6.501Y-3.8559
X6.5428Y-3.8731
X6.56Y-3.915
X6.5797Y-3.226
X6.5797Y-3.285
X6.5797Y-3.3441
X6.5797Y-3.4031
X6.5797Y-3.4622
X6.5797Y-3.5213
X6.5797Y-3.6886
X6.5896Y-4.0626
X6.5896Y-4.1217
X6.5896Y-4.1807
X6.5896Y-4.2398
X6.5896Y-4.2988
X6.5896Y-4.3579
X6.5994Y-3.915
X6.6094Y-2.9469
X6.6191Y-3.1866
X6.6191Y-4.4071
X6.6585Y-3.1472
X6.6585Y-3.285
X6.6585Y-3.3441
X6.6585Y-3.4031
X6.6585Y-3.4622
X6.6585Y-3.5213
X6.6585Y-3.6886
X6.6585Y-3.915
X6.6585Y-4.4465
X6.6683Y-4.0626
X6.6683Y-4.1217
X6.6683Y-4.1807
X6.6683Y-4.2398
X6.6683Y-4.2988
X6.688Y-4.3579
X6.6978Y-3.1079
X6.6978Y-3.226
X6.6978Y-3.8756
X6.6978Y-3.915
X6.6978Y-4.4858
X6.7274Y-4.3972
X6.7372Y-3.0685
X6.7372Y-3.1866
X6.7372Y-4.5252
X6.7569Y-3.8756
X6.7667Y-4.4366
X6.7766Y-3.0291
X6.7766Y-3.1472
X6.7766Y-4.5646
X6.8061Y-4.476
X6.8159Y-2.9898
X6.8159Y-3.1079
X6.8159Y-3.8756
X6.8159Y-4.6039
X6.8455Y-4.5154
X6.8553Y-3.0685
X6.8553Y-3.6394
X6.8553Y-3.7083
X6.8652Y-2.9701
X6.8652Y-3.4917
X6.8652Y-3.5705
X6.875Y-4.6236
X6.8848Y-4.5449
X6.9144Y-3.0488
X6.9242Y-2.9701
X6.9341Y-4.5449
X6.9341Y-4.6236
X6.9833Y-2.9701
X6.9833Y-3.0488
X6.9931Y-4.5449
X6.9931Y-4.6236
X7.0423Y-2.9701
X7.0423Y-3.0488
X7.0522Y-4.5449
X7.0522Y-4.6236
X7.1014Y-2.9701
X7.1014Y-3.0488
X7.1112Y-4.5449
X7.1112Y-4.6236
X7.1211Y-2.8421
X7.1211Y-3.1768
X7.1211Y-4.4169
X7.1211Y-4.7516
X7.1604Y-2.9504
X7.1604Y-3.0685
X7.1703Y-4.5252
X7.1703Y-4.6433
X7.2081Y-3.8969
X7.2096Y-3.7969
X7.2195Y-2.9504
X7.2195Y-3.0685
X7.2293Y-4.5252
X7.2293Y-4.6433
X7.249Y-2.7831
X7.249Y-2.9012
X7.249Y-3.1177
X7.249Y-3.2358
X7.249Y-4.3579
X7.249Y-4.476
X7.249Y-4.6925
X7.249Y-4.8106
X7.2785Y-2.9504
X7.2785Y-3.0685
X7.2884Y-4.5252
X7.2884Y-4.6433
T2
X6.3844Y-2.7969
X6.4844Y-2.7969
X6.5844Y-2.7969
X6.2844Y-4.2969
X6.2844Y-4.3969
X6.2844Y-4.4969
X6.2844Y-3.4969
X6.2844Y-3.5969
X6.2844Y-3.6969
X4.7844Y-3.4969
X4.7844Y-3.5969
X4.7844Y-3.6969
X4.1844Y-3.0969
X4.1844Y-3.1969
X4.1844Y-4.3969
X4.1844Y-4.4969
X4.7844Y-3.8969
X4.7844Y-3.9969
X4.7844Y-4.0969
X6.2844Y-3.8969
X6.2844Y-3.9969
X6.2844Y-4.0969
X4.7844Y-3.0969
X4.7844Y-3.1969
X4.7844Y-3.2969
X6.9844Y-3.4969
X6.9844Y-3.5969
X6.9844Y-3.6969
X6.9844Y-3.7969
X6.9844Y-3.8969
X6.9844Y-3.9969
X6.9844Y-4.0969
X4.7844Y-4.2969
X4.7844Y-4.3969
X4.7844Y-4.4969
X6.2844Y-3.0969
X6.2844Y-3.1969
X6.2844Y-3.2969
X3.9844Y-3.3969
X3.9844Y-3.4969
X3.9844Y-3.5969
T3
X3.8844Y-3.8969
X3.8844Y-4.0937
X3.9829Y-3.9953
T0
M30
